G75*
%MOIN*%
%OFA0B0*%
%FSLAX25Y25*%
%IPPOS*%
%LPD*%
%AMOC8*
5,1,8,0,0,1.08239X$1,22.5*
%
%ADD10C,0.00000*%
%ADD11R,0.07487X0.08865*%
%ADD12R,0.05200X0.09200*%
%ADD13R,0.14573X0.09061*%
%ADD14C,0.17400*%
%ADD15R,0.09900X0.09900*%
%ADD16C,0.09900*%
%ADD17R,0.07400X0.07400*%
%ADD18C,0.12998*%
%ADD19C,0.05600*%
%ADD20C,0.08200*%
%ADD21C,0.11050*%
%ADD22R,0.05518X0.06306*%
%ADD23R,0.05124X0.05124*%
%ADD24C,0.06400*%
%ADD25R,0.08400X0.08400*%
%ADD26C,0.08400*%
%ADD27OC8,0.05600*%
D10*
X0023622Y0002016D02*
X0358268Y0002016D01*
X0351969Y0021701D02*
X0351971Y0021859D01*
X0351977Y0022017D01*
X0351987Y0022175D01*
X0352001Y0022333D01*
X0352019Y0022490D01*
X0352040Y0022647D01*
X0352066Y0022803D01*
X0352096Y0022959D01*
X0352129Y0023114D01*
X0352167Y0023267D01*
X0352208Y0023420D01*
X0352253Y0023572D01*
X0352302Y0023723D01*
X0352355Y0023872D01*
X0352411Y0024020D01*
X0352471Y0024166D01*
X0352535Y0024311D01*
X0352603Y0024454D01*
X0352674Y0024596D01*
X0352748Y0024736D01*
X0352826Y0024873D01*
X0352908Y0025009D01*
X0352992Y0025143D01*
X0353081Y0025274D01*
X0353172Y0025403D01*
X0353267Y0025530D01*
X0353364Y0025655D01*
X0353465Y0025777D01*
X0353569Y0025896D01*
X0353676Y0026013D01*
X0353786Y0026127D01*
X0353899Y0026238D01*
X0354014Y0026347D01*
X0354132Y0026452D01*
X0354253Y0026554D01*
X0354376Y0026654D01*
X0354502Y0026750D01*
X0354630Y0026843D01*
X0354760Y0026933D01*
X0354893Y0027019D01*
X0355028Y0027103D01*
X0355164Y0027182D01*
X0355303Y0027259D01*
X0355444Y0027331D01*
X0355586Y0027401D01*
X0355730Y0027466D01*
X0355876Y0027528D01*
X0356023Y0027586D01*
X0356172Y0027641D01*
X0356322Y0027692D01*
X0356473Y0027739D01*
X0356625Y0027782D01*
X0356778Y0027821D01*
X0356933Y0027857D01*
X0357088Y0027888D01*
X0357244Y0027916D01*
X0357400Y0027940D01*
X0357557Y0027960D01*
X0357715Y0027976D01*
X0357872Y0027988D01*
X0358031Y0027996D01*
X0358189Y0028000D01*
X0358347Y0028000D01*
X0358505Y0027996D01*
X0358664Y0027988D01*
X0358821Y0027976D01*
X0358979Y0027960D01*
X0359136Y0027940D01*
X0359292Y0027916D01*
X0359448Y0027888D01*
X0359603Y0027857D01*
X0359758Y0027821D01*
X0359911Y0027782D01*
X0360063Y0027739D01*
X0360214Y0027692D01*
X0360364Y0027641D01*
X0360513Y0027586D01*
X0360660Y0027528D01*
X0360806Y0027466D01*
X0360950Y0027401D01*
X0361092Y0027331D01*
X0361233Y0027259D01*
X0361372Y0027182D01*
X0361508Y0027103D01*
X0361643Y0027019D01*
X0361776Y0026933D01*
X0361906Y0026843D01*
X0362034Y0026750D01*
X0362160Y0026654D01*
X0362283Y0026554D01*
X0362404Y0026452D01*
X0362522Y0026347D01*
X0362637Y0026238D01*
X0362750Y0026127D01*
X0362860Y0026013D01*
X0362967Y0025896D01*
X0363071Y0025777D01*
X0363172Y0025655D01*
X0363269Y0025530D01*
X0363364Y0025403D01*
X0363455Y0025274D01*
X0363544Y0025143D01*
X0363628Y0025009D01*
X0363710Y0024873D01*
X0363788Y0024736D01*
X0363862Y0024596D01*
X0363933Y0024454D01*
X0364001Y0024311D01*
X0364065Y0024166D01*
X0364125Y0024020D01*
X0364181Y0023872D01*
X0364234Y0023723D01*
X0364283Y0023572D01*
X0364328Y0023420D01*
X0364369Y0023267D01*
X0364407Y0023114D01*
X0364440Y0022959D01*
X0364470Y0022803D01*
X0364496Y0022647D01*
X0364517Y0022490D01*
X0364535Y0022333D01*
X0364549Y0022175D01*
X0364559Y0022017D01*
X0364565Y0021859D01*
X0364567Y0021701D01*
X0364565Y0021543D01*
X0364559Y0021385D01*
X0364549Y0021227D01*
X0364535Y0021069D01*
X0364517Y0020912D01*
X0364496Y0020755D01*
X0364470Y0020599D01*
X0364440Y0020443D01*
X0364407Y0020288D01*
X0364369Y0020135D01*
X0364328Y0019982D01*
X0364283Y0019830D01*
X0364234Y0019679D01*
X0364181Y0019530D01*
X0364125Y0019382D01*
X0364065Y0019236D01*
X0364001Y0019091D01*
X0363933Y0018948D01*
X0363862Y0018806D01*
X0363788Y0018666D01*
X0363710Y0018529D01*
X0363628Y0018393D01*
X0363544Y0018259D01*
X0363455Y0018128D01*
X0363364Y0017999D01*
X0363269Y0017872D01*
X0363172Y0017747D01*
X0363071Y0017625D01*
X0362967Y0017506D01*
X0362860Y0017389D01*
X0362750Y0017275D01*
X0362637Y0017164D01*
X0362522Y0017055D01*
X0362404Y0016950D01*
X0362283Y0016848D01*
X0362160Y0016748D01*
X0362034Y0016652D01*
X0361906Y0016559D01*
X0361776Y0016469D01*
X0361643Y0016383D01*
X0361508Y0016299D01*
X0361372Y0016220D01*
X0361233Y0016143D01*
X0361092Y0016071D01*
X0360950Y0016001D01*
X0360806Y0015936D01*
X0360660Y0015874D01*
X0360513Y0015816D01*
X0360364Y0015761D01*
X0360214Y0015710D01*
X0360063Y0015663D01*
X0359911Y0015620D01*
X0359758Y0015581D01*
X0359603Y0015545D01*
X0359448Y0015514D01*
X0359292Y0015486D01*
X0359136Y0015462D01*
X0358979Y0015442D01*
X0358821Y0015426D01*
X0358664Y0015414D01*
X0358505Y0015406D01*
X0358347Y0015402D01*
X0358189Y0015402D01*
X0358031Y0015406D01*
X0357872Y0015414D01*
X0357715Y0015426D01*
X0357557Y0015442D01*
X0357400Y0015462D01*
X0357244Y0015486D01*
X0357088Y0015514D01*
X0356933Y0015545D01*
X0356778Y0015581D01*
X0356625Y0015620D01*
X0356473Y0015663D01*
X0356322Y0015710D01*
X0356172Y0015761D01*
X0356023Y0015816D01*
X0355876Y0015874D01*
X0355730Y0015936D01*
X0355586Y0016001D01*
X0355444Y0016071D01*
X0355303Y0016143D01*
X0355164Y0016220D01*
X0355028Y0016299D01*
X0354893Y0016383D01*
X0354760Y0016469D01*
X0354630Y0016559D01*
X0354502Y0016652D01*
X0354376Y0016748D01*
X0354253Y0016848D01*
X0354132Y0016950D01*
X0354014Y0017055D01*
X0353899Y0017164D01*
X0353786Y0017275D01*
X0353676Y0017389D01*
X0353569Y0017506D01*
X0353465Y0017625D01*
X0353364Y0017747D01*
X0353267Y0017872D01*
X0353172Y0017999D01*
X0353081Y0018128D01*
X0352992Y0018259D01*
X0352908Y0018393D01*
X0352826Y0018529D01*
X0352748Y0018666D01*
X0352674Y0018806D01*
X0352603Y0018948D01*
X0352535Y0019091D01*
X0352471Y0019236D01*
X0352411Y0019382D01*
X0352355Y0019530D01*
X0352302Y0019679D01*
X0352253Y0019830D01*
X0352208Y0019982D01*
X0352167Y0020135D01*
X0352129Y0020288D01*
X0352096Y0020443D01*
X0352066Y0020599D01*
X0352040Y0020755D01*
X0352019Y0020912D01*
X0352001Y0021069D01*
X0351987Y0021227D01*
X0351977Y0021385D01*
X0351971Y0021543D01*
X0351969Y0021701D01*
X0358268Y0002016D02*
X0358744Y0002022D01*
X0359219Y0002039D01*
X0359694Y0002068D01*
X0360168Y0002108D01*
X0360641Y0002160D01*
X0361112Y0002223D01*
X0361582Y0002297D01*
X0362050Y0002383D01*
X0362516Y0002480D01*
X0362979Y0002588D01*
X0363439Y0002707D01*
X0363897Y0002838D01*
X0364351Y0002979D01*
X0364802Y0003132D01*
X0365248Y0003295D01*
X0365691Y0003469D01*
X0366129Y0003654D01*
X0366563Y0003849D01*
X0366992Y0004055D01*
X0367416Y0004271D01*
X0367835Y0004497D01*
X0368248Y0004733D01*
X0368655Y0004979D01*
X0369056Y0005235D01*
X0369450Y0005501D01*
X0369839Y0005776D01*
X0370220Y0006060D01*
X0370594Y0006353D01*
X0370962Y0006655D01*
X0371322Y0006967D01*
X0371674Y0007286D01*
X0372018Y0007614D01*
X0372355Y0007951D01*
X0372683Y0008295D01*
X0373002Y0008647D01*
X0373314Y0009007D01*
X0373616Y0009375D01*
X0373909Y0009749D01*
X0374193Y0010130D01*
X0374468Y0010519D01*
X0374734Y0010913D01*
X0374990Y0011314D01*
X0375236Y0011721D01*
X0375472Y0012134D01*
X0375698Y0012553D01*
X0375914Y0012977D01*
X0376120Y0013406D01*
X0376315Y0013840D01*
X0376500Y0014278D01*
X0376674Y0014721D01*
X0376837Y0015167D01*
X0376990Y0015618D01*
X0377131Y0016072D01*
X0377262Y0016530D01*
X0377381Y0016990D01*
X0377489Y0017453D01*
X0377586Y0017919D01*
X0377672Y0018387D01*
X0377746Y0018857D01*
X0377809Y0019328D01*
X0377861Y0019801D01*
X0377901Y0020275D01*
X0377930Y0020750D01*
X0377947Y0021225D01*
X0377953Y0021701D01*
X0377953Y0226425D01*
X0351969Y0226425D02*
X0351971Y0226583D01*
X0351977Y0226741D01*
X0351987Y0226899D01*
X0352001Y0227057D01*
X0352019Y0227214D01*
X0352040Y0227371D01*
X0352066Y0227527D01*
X0352096Y0227683D01*
X0352129Y0227838D01*
X0352167Y0227991D01*
X0352208Y0228144D01*
X0352253Y0228296D01*
X0352302Y0228447D01*
X0352355Y0228596D01*
X0352411Y0228744D01*
X0352471Y0228890D01*
X0352535Y0229035D01*
X0352603Y0229178D01*
X0352674Y0229320D01*
X0352748Y0229460D01*
X0352826Y0229597D01*
X0352908Y0229733D01*
X0352992Y0229867D01*
X0353081Y0229998D01*
X0353172Y0230127D01*
X0353267Y0230254D01*
X0353364Y0230379D01*
X0353465Y0230501D01*
X0353569Y0230620D01*
X0353676Y0230737D01*
X0353786Y0230851D01*
X0353899Y0230962D01*
X0354014Y0231071D01*
X0354132Y0231176D01*
X0354253Y0231278D01*
X0354376Y0231378D01*
X0354502Y0231474D01*
X0354630Y0231567D01*
X0354760Y0231657D01*
X0354893Y0231743D01*
X0355028Y0231827D01*
X0355164Y0231906D01*
X0355303Y0231983D01*
X0355444Y0232055D01*
X0355586Y0232125D01*
X0355730Y0232190D01*
X0355876Y0232252D01*
X0356023Y0232310D01*
X0356172Y0232365D01*
X0356322Y0232416D01*
X0356473Y0232463D01*
X0356625Y0232506D01*
X0356778Y0232545D01*
X0356933Y0232581D01*
X0357088Y0232612D01*
X0357244Y0232640D01*
X0357400Y0232664D01*
X0357557Y0232684D01*
X0357715Y0232700D01*
X0357872Y0232712D01*
X0358031Y0232720D01*
X0358189Y0232724D01*
X0358347Y0232724D01*
X0358505Y0232720D01*
X0358664Y0232712D01*
X0358821Y0232700D01*
X0358979Y0232684D01*
X0359136Y0232664D01*
X0359292Y0232640D01*
X0359448Y0232612D01*
X0359603Y0232581D01*
X0359758Y0232545D01*
X0359911Y0232506D01*
X0360063Y0232463D01*
X0360214Y0232416D01*
X0360364Y0232365D01*
X0360513Y0232310D01*
X0360660Y0232252D01*
X0360806Y0232190D01*
X0360950Y0232125D01*
X0361092Y0232055D01*
X0361233Y0231983D01*
X0361372Y0231906D01*
X0361508Y0231827D01*
X0361643Y0231743D01*
X0361776Y0231657D01*
X0361906Y0231567D01*
X0362034Y0231474D01*
X0362160Y0231378D01*
X0362283Y0231278D01*
X0362404Y0231176D01*
X0362522Y0231071D01*
X0362637Y0230962D01*
X0362750Y0230851D01*
X0362860Y0230737D01*
X0362967Y0230620D01*
X0363071Y0230501D01*
X0363172Y0230379D01*
X0363269Y0230254D01*
X0363364Y0230127D01*
X0363455Y0229998D01*
X0363544Y0229867D01*
X0363628Y0229733D01*
X0363710Y0229597D01*
X0363788Y0229460D01*
X0363862Y0229320D01*
X0363933Y0229178D01*
X0364001Y0229035D01*
X0364065Y0228890D01*
X0364125Y0228744D01*
X0364181Y0228596D01*
X0364234Y0228447D01*
X0364283Y0228296D01*
X0364328Y0228144D01*
X0364369Y0227991D01*
X0364407Y0227838D01*
X0364440Y0227683D01*
X0364470Y0227527D01*
X0364496Y0227371D01*
X0364517Y0227214D01*
X0364535Y0227057D01*
X0364549Y0226899D01*
X0364559Y0226741D01*
X0364565Y0226583D01*
X0364567Y0226425D01*
X0364565Y0226267D01*
X0364559Y0226109D01*
X0364549Y0225951D01*
X0364535Y0225793D01*
X0364517Y0225636D01*
X0364496Y0225479D01*
X0364470Y0225323D01*
X0364440Y0225167D01*
X0364407Y0225012D01*
X0364369Y0224859D01*
X0364328Y0224706D01*
X0364283Y0224554D01*
X0364234Y0224403D01*
X0364181Y0224254D01*
X0364125Y0224106D01*
X0364065Y0223960D01*
X0364001Y0223815D01*
X0363933Y0223672D01*
X0363862Y0223530D01*
X0363788Y0223390D01*
X0363710Y0223253D01*
X0363628Y0223117D01*
X0363544Y0222983D01*
X0363455Y0222852D01*
X0363364Y0222723D01*
X0363269Y0222596D01*
X0363172Y0222471D01*
X0363071Y0222349D01*
X0362967Y0222230D01*
X0362860Y0222113D01*
X0362750Y0221999D01*
X0362637Y0221888D01*
X0362522Y0221779D01*
X0362404Y0221674D01*
X0362283Y0221572D01*
X0362160Y0221472D01*
X0362034Y0221376D01*
X0361906Y0221283D01*
X0361776Y0221193D01*
X0361643Y0221107D01*
X0361508Y0221023D01*
X0361372Y0220944D01*
X0361233Y0220867D01*
X0361092Y0220795D01*
X0360950Y0220725D01*
X0360806Y0220660D01*
X0360660Y0220598D01*
X0360513Y0220540D01*
X0360364Y0220485D01*
X0360214Y0220434D01*
X0360063Y0220387D01*
X0359911Y0220344D01*
X0359758Y0220305D01*
X0359603Y0220269D01*
X0359448Y0220238D01*
X0359292Y0220210D01*
X0359136Y0220186D01*
X0358979Y0220166D01*
X0358821Y0220150D01*
X0358664Y0220138D01*
X0358505Y0220130D01*
X0358347Y0220126D01*
X0358189Y0220126D01*
X0358031Y0220130D01*
X0357872Y0220138D01*
X0357715Y0220150D01*
X0357557Y0220166D01*
X0357400Y0220186D01*
X0357244Y0220210D01*
X0357088Y0220238D01*
X0356933Y0220269D01*
X0356778Y0220305D01*
X0356625Y0220344D01*
X0356473Y0220387D01*
X0356322Y0220434D01*
X0356172Y0220485D01*
X0356023Y0220540D01*
X0355876Y0220598D01*
X0355730Y0220660D01*
X0355586Y0220725D01*
X0355444Y0220795D01*
X0355303Y0220867D01*
X0355164Y0220944D01*
X0355028Y0221023D01*
X0354893Y0221107D01*
X0354760Y0221193D01*
X0354630Y0221283D01*
X0354502Y0221376D01*
X0354376Y0221472D01*
X0354253Y0221572D01*
X0354132Y0221674D01*
X0354014Y0221779D01*
X0353899Y0221888D01*
X0353786Y0221999D01*
X0353676Y0222113D01*
X0353569Y0222230D01*
X0353465Y0222349D01*
X0353364Y0222471D01*
X0353267Y0222596D01*
X0353172Y0222723D01*
X0353081Y0222852D01*
X0352992Y0222983D01*
X0352908Y0223117D01*
X0352826Y0223253D01*
X0352748Y0223390D01*
X0352674Y0223530D01*
X0352603Y0223672D01*
X0352535Y0223815D01*
X0352471Y0223960D01*
X0352411Y0224106D01*
X0352355Y0224254D01*
X0352302Y0224403D01*
X0352253Y0224554D01*
X0352208Y0224706D01*
X0352167Y0224859D01*
X0352129Y0225012D01*
X0352096Y0225167D01*
X0352066Y0225323D01*
X0352040Y0225479D01*
X0352019Y0225636D01*
X0352001Y0225793D01*
X0351987Y0225951D01*
X0351977Y0226109D01*
X0351971Y0226267D01*
X0351969Y0226425D01*
X0358268Y0246110D02*
X0358744Y0246104D01*
X0359219Y0246087D01*
X0359694Y0246058D01*
X0360168Y0246018D01*
X0360641Y0245966D01*
X0361112Y0245903D01*
X0361582Y0245829D01*
X0362050Y0245743D01*
X0362516Y0245646D01*
X0362979Y0245538D01*
X0363439Y0245419D01*
X0363897Y0245288D01*
X0364351Y0245147D01*
X0364802Y0244994D01*
X0365248Y0244831D01*
X0365691Y0244657D01*
X0366129Y0244472D01*
X0366563Y0244277D01*
X0366992Y0244071D01*
X0367416Y0243855D01*
X0367835Y0243629D01*
X0368248Y0243393D01*
X0368655Y0243147D01*
X0369056Y0242891D01*
X0369450Y0242625D01*
X0369839Y0242350D01*
X0370220Y0242066D01*
X0370594Y0241773D01*
X0370962Y0241471D01*
X0371322Y0241159D01*
X0371674Y0240840D01*
X0372018Y0240512D01*
X0372355Y0240175D01*
X0372683Y0239831D01*
X0373002Y0239479D01*
X0373314Y0239119D01*
X0373616Y0238751D01*
X0373909Y0238377D01*
X0374193Y0237996D01*
X0374468Y0237607D01*
X0374734Y0237213D01*
X0374990Y0236812D01*
X0375236Y0236405D01*
X0375472Y0235992D01*
X0375698Y0235573D01*
X0375914Y0235149D01*
X0376120Y0234720D01*
X0376315Y0234286D01*
X0376500Y0233848D01*
X0376674Y0233405D01*
X0376837Y0232959D01*
X0376990Y0232508D01*
X0377131Y0232054D01*
X0377262Y0231596D01*
X0377381Y0231136D01*
X0377489Y0230673D01*
X0377586Y0230207D01*
X0377672Y0229739D01*
X0377746Y0229269D01*
X0377809Y0228798D01*
X0377861Y0228325D01*
X0377901Y0227851D01*
X0377930Y0227376D01*
X0377947Y0226901D01*
X0377953Y0226425D01*
X0358268Y0246110D02*
X0023622Y0246110D01*
X0017323Y0226425D02*
X0017325Y0226583D01*
X0017331Y0226741D01*
X0017341Y0226899D01*
X0017355Y0227057D01*
X0017373Y0227214D01*
X0017394Y0227371D01*
X0017420Y0227527D01*
X0017450Y0227683D01*
X0017483Y0227838D01*
X0017521Y0227991D01*
X0017562Y0228144D01*
X0017607Y0228296D01*
X0017656Y0228447D01*
X0017709Y0228596D01*
X0017765Y0228744D01*
X0017825Y0228890D01*
X0017889Y0229035D01*
X0017957Y0229178D01*
X0018028Y0229320D01*
X0018102Y0229460D01*
X0018180Y0229597D01*
X0018262Y0229733D01*
X0018346Y0229867D01*
X0018435Y0229998D01*
X0018526Y0230127D01*
X0018621Y0230254D01*
X0018718Y0230379D01*
X0018819Y0230501D01*
X0018923Y0230620D01*
X0019030Y0230737D01*
X0019140Y0230851D01*
X0019253Y0230962D01*
X0019368Y0231071D01*
X0019486Y0231176D01*
X0019607Y0231278D01*
X0019730Y0231378D01*
X0019856Y0231474D01*
X0019984Y0231567D01*
X0020114Y0231657D01*
X0020247Y0231743D01*
X0020382Y0231827D01*
X0020518Y0231906D01*
X0020657Y0231983D01*
X0020798Y0232055D01*
X0020940Y0232125D01*
X0021084Y0232190D01*
X0021230Y0232252D01*
X0021377Y0232310D01*
X0021526Y0232365D01*
X0021676Y0232416D01*
X0021827Y0232463D01*
X0021979Y0232506D01*
X0022132Y0232545D01*
X0022287Y0232581D01*
X0022442Y0232612D01*
X0022598Y0232640D01*
X0022754Y0232664D01*
X0022911Y0232684D01*
X0023069Y0232700D01*
X0023226Y0232712D01*
X0023385Y0232720D01*
X0023543Y0232724D01*
X0023701Y0232724D01*
X0023859Y0232720D01*
X0024018Y0232712D01*
X0024175Y0232700D01*
X0024333Y0232684D01*
X0024490Y0232664D01*
X0024646Y0232640D01*
X0024802Y0232612D01*
X0024957Y0232581D01*
X0025112Y0232545D01*
X0025265Y0232506D01*
X0025417Y0232463D01*
X0025568Y0232416D01*
X0025718Y0232365D01*
X0025867Y0232310D01*
X0026014Y0232252D01*
X0026160Y0232190D01*
X0026304Y0232125D01*
X0026446Y0232055D01*
X0026587Y0231983D01*
X0026726Y0231906D01*
X0026862Y0231827D01*
X0026997Y0231743D01*
X0027130Y0231657D01*
X0027260Y0231567D01*
X0027388Y0231474D01*
X0027514Y0231378D01*
X0027637Y0231278D01*
X0027758Y0231176D01*
X0027876Y0231071D01*
X0027991Y0230962D01*
X0028104Y0230851D01*
X0028214Y0230737D01*
X0028321Y0230620D01*
X0028425Y0230501D01*
X0028526Y0230379D01*
X0028623Y0230254D01*
X0028718Y0230127D01*
X0028809Y0229998D01*
X0028898Y0229867D01*
X0028982Y0229733D01*
X0029064Y0229597D01*
X0029142Y0229460D01*
X0029216Y0229320D01*
X0029287Y0229178D01*
X0029355Y0229035D01*
X0029419Y0228890D01*
X0029479Y0228744D01*
X0029535Y0228596D01*
X0029588Y0228447D01*
X0029637Y0228296D01*
X0029682Y0228144D01*
X0029723Y0227991D01*
X0029761Y0227838D01*
X0029794Y0227683D01*
X0029824Y0227527D01*
X0029850Y0227371D01*
X0029871Y0227214D01*
X0029889Y0227057D01*
X0029903Y0226899D01*
X0029913Y0226741D01*
X0029919Y0226583D01*
X0029921Y0226425D01*
X0029919Y0226267D01*
X0029913Y0226109D01*
X0029903Y0225951D01*
X0029889Y0225793D01*
X0029871Y0225636D01*
X0029850Y0225479D01*
X0029824Y0225323D01*
X0029794Y0225167D01*
X0029761Y0225012D01*
X0029723Y0224859D01*
X0029682Y0224706D01*
X0029637Y0224554D01*
X0029588Y0224403D01*
X0029535Y0224254D01*
X0029479Y0224106D01*
X0029419Y0223960D01*
X0029355Y0223815D01*
X0029287Y0223672D01*
X0029216Y0223530D01*
X0029142Y0223390D01*
X0029064Y0223253D01*
X0028982Y0223117D01*
X0028898Y0222983D01*
X0028809Y0222852D01*
X0028718Y0222723D01*
X0028623Y0222596D01*
X0028526Y0222471D01*
X0028425Y0222349D01*
X0028321Y0222230D01*
X0028214Y0222113D01*
X0028104Y0221999D01*
X0027991Y0221888D01*
X0027876Y0221779D01*
X0027758Y0221674D01*
X0027637Y0221572D01*
X0027514Y0221472D01*
X0027388Y0221376D01*
X0027260Y0221283D01*
X0027130Y0221193D01*
X0026997Y0221107D01*
X0026862Y0221023D01*
X0026726Y0220944D01*
X0026587Y0220867D01*
X0026446Y0220795D01*
X0026304Y0220725D01*
X0026160Y0220660D01*
X0026014Y0220598D01*
X0025867Y0220540D01*
X0025718Y0220485D01*
X0025568Y0220434D01*
X0025417Y0220387D01*
X0025265Y0220344D01*
X0025112Y0220305D01*
X0024957Y0220269D01*
X0024802Y0220238D01*
X0024646Y0220210D01*
X0024490Y0220186D01*
X0024333Y0220166D01*
X0024175Y0220150D01*
X0024018Y0220138D01*
X0023859Y0220130D01*
X0023701Y0220126D01*
X0023543Y0220126D01*
X0023385Y0220130D01*
X0023226Y0220138D01*
X0023069Y0220150D01*
X0022911Y0220166D01*
X0022754Y0220186D01*
X0022598Y0220210D01*
X0022442Y0220238D01*
X0022287Y0220269D01*
X0022132Y0220305D01*
X0021979Y0220344D01*
X0021827Y0220387D01*
X0021676Y0220434D01*
X0021526Y0220485D01*
X0021377Y0220540D01*
X0021230Y0220598D01*
X0021084Y0220660D01*
X0020940Y0220725D01*
X0020798Y0220795D01*
X0020657Y0220867D01*
X0020518Y0220944D01*
X0020382Y0221023D01*
X0020247Y0221107D01*
X0020114Y0221193D01*
X0019984Y0221283D01*
X0019856Y0221376D01*
X0019730Y0221472D01*
X0019607Y0221572D01*
X0019486Y0221674D01*
X0019368Y0221779D01*
X0019253Y0221888D01*
X0019140Y0221999D01*
X0019030Y0222113D01*
X0018923Y0222230D01*
X0018819Y0222349D01*
X0018718Y0222471D01*
X0018621Y0222596D01*
X0018526Y0222723D01*
X0018435Y0222852D01*
X0018346Y0222983D01*
X0018262Y0223117D01*
X0018180Y0223253D01*
X0018102Y0223390D01*
X0018028Y0223530D01*
X0017957Y0223672D01*
X0017889Y0223815D01*
X0017825Y0223960D01*
X0017765Y0224106D01*
X0017709Y0224254D01*
X0017656Y0224403D01*
X0017607Y0224554D01*
X0017562Y0224706D01*
X0017521Y0224859D01*
X0017483Y0225012D01*
X0017450Y0225167D01*
X0017420Y0225323D01*
X0017394Y0225479D01*
X0017373Y0225636D01*
X0017355Y0225793D01*
X0017341Y0225951D01*
X0017331Y0226109D01*
X0017325Y0226267D01*
X0017323Y0226425D01*
X0003937Y0226425D02*
X0003943Y0226901D01*
X0003960Y0227376D01*
X0003989Y0227851D01*
X0004029Y0228325D01*
X0004081Y0228798D01*
X0004144Y0229269D01*
X0004218Y0229739D01*
X0004304Y0230207D01*
X0004401Y0230673D01*
X0004509Y0231136D01*
X0004628Y0231596D01*
X0004759Y0232054D01*
X0004900Y0232508D01*
X0005053Y0232959D01*
X0005216Y0233405D01*
X0005390Y0233848D01*
X0005575Y0234286D01*
X0005770Y0234720D01*
X0005976Y0235149D01*
X0006192Y0235573D01*
X0006418Y0235992D01*
X0006654Y0236405D01*
X0006900Y0236812D01*
X0007156Y0237213D01*
X0007422Y0237607D01*
X0007697Y0237996D01*
X0007981Y0238377D01*
X0008274Y0238751D01*
X0008576Y0239119D01*
X0008888Y0239479D01*
X0009207Y0239831D01*
X0009535Y0240175D01*
X0009872Y0240512D01*
X0010216Y0240840D01*
X0010568Y0241159D01*
X0010928Y0241471D01*
X0011296Y0241773D01*
X0011670Y0242066D01*
X0012051Y0242350D01*
X0012440Y0242625D01*
X0012834Y0242891D01*
X0013235Y0243147D01*
X0013642Y0243393D01*
X0014055Y0243629D01*
X0014474Y0243855D01*
X0014898Y0244071D01*
X0015327Y0244277D01*
X0015761Y0244472D01*
X0016199Y0244657D01*
X0016642Y0244831D01*
X0017088Y0244994D01*
X0017539Y0245147D01*
X0017993Y0245288D01*
X0018451Y0245419D01*
X0018911Y0245538D01*
X0019374Y0245646D01*
X0019840Y0245743D01*
X0020308Y0245829D01*
X0020778Y0245903D01*
X0021249Y0245966D01*
X0021722Y0246018D01*
X0022196Y0246058D01*
X0022671Y0246087D01*
X0023146Y0246104D01*
X0023622Y0246110D01*
X0003937Y0226425D02*
X0003937Y0021701D01*
X0017323Y0021701D02*
X0017325Y0021859D01*
X0017331Y0022017D01*
X0017341Y0022175D01*
X0017355Y0022333D01*
X0017373Y0022490D01*
X0017394Y0022647D01*
X0017420Y0022803D01*
X0017450Y0022959D01*
X0017483Y0023114D01*
X0017521Y0023267D01*
X0017562Y0023420D01*
X0017607Y0023572D01*
X0017656Y0023723D01*
X0017709Y0023872D01*
X0017765Y0024020D01*
X0017825Y0024166D01*
X0017889Y0024311D01*
X0017957Y0024454D01*
X0018028Y0024596D01*
X0018102Y0024736D01*
X0018180Y0024873D01*
X0018262Y0025009D01*
X0018346Y0025143D01*
X0018435Y0025274D01*
X0018526Y0025403D01*
X0018621Y0025530D01*
X0018718Y0025655D01*
X0018819Y0025777D01*
X0018923Y0025896D01*
X0019030Y0026013D01*
X0019140Y0026127D01*
X0019253Y0026238D01*
X0019368Y0026347D01*
X0019486Y0026452D01*
X0019607Y0026554D01*
X0019730Y0026654D01*
X0019856Y0026750D01*
X0019984Y0026843D01*
X0020114Y0026933D01*
X0020247Y0027019D01*
X0020382Y0027103D01*
X0020518Y0027182D01*
X0020657Y0027259D01*
X0020798Y0027331D01*
X0020940Y0027401D01*
X0021084Y0027466D01*
X0021230Y0027528D01*
X0021377Y0027586D01*
X0021526Y0027641D01*
X0021676Y0027692D01*
X0021827Y0027739D01*
X0021979Y0027782D01*
X0022132Y0027821D01*
X0022287Y0027857D01*
X0022442Y0027888D01*
X0022598Y0027916D01*
X0022754Y0027940D01*
X0022911Y0027960D01*
X0023069Y0027976D01*
X0023226Y0027988D01*
X0023385Y0027996D01*
X0023543Y0028000D01*
X0023701Y0028000D01*
X0023859Y0027996D01*
X0024018Y0027988D01*
X0024175Y0027976D01*
X0024333Y0027960D01*
X0024490Y0027940D01*
X0024646Y0027916D01*
X0024802Y0027888D01*
X0024957Y0027857D01*
X0025112Y0027821D01*
X0025265Y0027782D01*
X0025417Y0027739D01*
X0025568Y0027692D01*
X0025718Y0027641D01*
X0025867Y0027586D01*
X0026014Y0027528D01*
X0026160Y0027466D01*
X0026304Y0027401D01*
X0026446Y0027331D01*
X0026587Y0027259D01*
X0026726Y0027182D01*
X0026862Y0027103D01*
X0026997Y0027019D01*
X0027130Y0026933D01*
X0027260Y0026843D01*
X0027388Y0026750D01*
X0027514Y0026654D01*
X0027637Y0026554D01*
X0027758Y0026452D01*
X0027876Y0026347D01*
X0027991Y0026238D01*
X0028104Y0026127D01*
X0028214Y0026013D01*
X0028321Y0025896D01*
X0028425Y0025777D01*
X0028526Y0025655D01*
X0028623Y0025530D01*
X0028718Y0025403D01*
X0028809Y0025274D01*
X0028898Y0025143D01*
X0028982Y0025009D01*
X0029064Y0024873D01*
X0029142Y0024736D01*
X0029216Y0024596D01*
X0029287Y0024454D01*
X0029355Y0024311D01*
X0029419Y0024166D01*
X0029479Y0024020D01*
X0029535Y0023872D01*
X0029588Y0023723D01*
X0029637Y0023572D01*
X0029682Y0023420D01*
X0029723Y0023267D01*
X0029761Y0023114D01*
X0029794Y0022959D01*
X0029824Y0022803D01*
X0029850Y0022647D01*
X0029871Y0022490D01*
X0029889Y0022333D01*
X0029903Y0022175D01*
X0029913Y0022017D01*
X0029919Y0021859D01*
X0029921Y0021701D01*
X0029919Y0021543D01*
X0029913Y0021385D01*
X0029903Y0021227D01*
X0029889Y0021069D01*
X0029871Y0020912D01*
X0029850Y0020755D01*
X0029824Y0020599D01*
X0029794Y0020443D01*
X0029761Y0020288D01*
X0029723Y0020135D01*
X0029682Y0019982D01*
X0029637Y0019830D01*
X0029588Y0019679D01*
X0029535Y0019530D01*
X0029479Y0019382D01*
X0029419Y0019236D01*
X0029355Y0019091D01*
X0029287Y0018948D01*
X0029216Y0018806D01*
X0029142Y0018666D01*
X0029064Y0018529D01*
X0028982Y0018393D01*
X0028898Y0018259D01*
X0028809Y0018128D01*
X0028718Y0017999D01*
X0028623Y0017872D01*
X0028526Y0017747D01*
X0028425Y0017625D01*
X0028321Y0017506D01*
X0028214Y0017389D01*
X0028104Y0017275D01*
X0027991Y0017164D01*
X0027876Y0017055D01*
X0027758Y0016950D01*
X0027637Y0016848D01*
X0027514Y0016748D01*
X0027388Y0016652D01*
X0027260Y0016559D01*
X0027130Y0016469D01*
X0026997Y0016383D01*
X0026862Y0016299D01*
X0026726Y0016220D01*
X0026587Y0016143D01*
X0026446Y0016071D01*
X0026304Y0016001D01*
X0026160Y0015936D01*
X0026014Y0015874D01*
X0025867Y0015816D01*
X0025718Y0015761D01*
X0025568Y0015710D01*
X0025417Y0015663D01*
X0025265Y0015620D01*
X0025112Y0015581D01*
X0024957Y0015545D01*
X0024802Y0015514D01*
X0024646Y0015486D01*
X0024490Y0015462D01*
X0024333Y0015442D01*
X0024175Y0015426D01*
X0024018Y0015414D01*
X0023859Y0015406D01*
X0023701Y0015402D01*
X0023543Y0015402D01*
X0023385Y0015406D01*
X0023226Y0015414D01*
X0023069Y0015426D01*
X0022911Y0015442D01*
X0022754Y0015462D01*
X0022598Y0015486D01*
X0022442Y0015514D01*
X0022287Y0015545D01*
X0022132Y0015581D01*
X0021979Y0015620D01*
X0021827Y0015663D01*
X0021676Y0015710D01*
X0021526Y0015761D01*
X0021377Y0015816D01*
X0021230Y0015874D01*
X0021084Y0015936D01*
X0020940Y0016001D01*
X0020798Y0016071D01*
X0020657Y0016143D01*
X0020518Y0016220D01*
X0020382Y0016299D01*
X0020247Y0016383D01*
X0020114Y0016469D01*
X0019984Y0016559D01*
X0019856Y0016652D01*
X0019730Y0016748D01*
X0019607Y0016848D01*
X0019486Y0016950D01*
X0019368Y0017055D01*
X0019253Y0017164D01*
X0019140Y0017275D01*
X0019030Y0017389D01*
X0018923Y0017506D01*
X0018819Y0017625D01*
X0018718Y0017747D01*
X0018621Y0017872D01*
X0018526Y0017999D01*
X0018435Y0018128D01*
X0018346Y0018259D01*
X0018262Y0018393D01*
X0018180Y0018529D01*
X0018102Y0018666D01*
X0018028Y0018806D01*
X0017957Y0018948D01*
X0017889Y0019091D01*
X0017825Y0019236D01*
X0017765Y0019382D01*
X0017709Y0019530D01*
X0017656Y0019679D01*
X0017607Y0019830D01*
X0017562Y0019982D01*
X0017521Y0020135D01*
X0017483Y0020288D01*
X0017450Y0020443D01*
X0017420Y0020599D01*
X0017394Y0020755D01*
X0017373Y0020912D01*
X0017355Y0021069D01*
X0017341Y0021227D01*
X0017331Y0021385D01*
X0017325Y0021543D01*
X0017323Y0021701D01*
X0003937Y0021701D02*
X0003943Y0021225D01*
X0003960Y0020750D01*
X0003989Y0020275D01*
X0004029Y0019801D01*
X0004081Y0019328D01*
X0004144Y0018857D01*
X0004218Y0018387D01*
X0004304Y0017919D01*
X0004401Y0017453D01*
X0004509Y0016990D01*
X0004628Y0016530D01*
X0004759Y0016072D01*
X0004900Y0015618D01*
X0005053Y0015167D01*
X0005216Y0014721D01*
X0005390Y0014278D01*
X0005575Y0013840D01*
X0005770Y0013406D01*
X0005976Y0012977D01*
X0006192Y0012553D01*
X0006418Y0012134D01*
X0006654Y0011721D01*
X0006900Y0011314D01*
X0007156Y0010913D01*
X0007422Y0010519D01*
X0007697Y0010130D01*
X0007981Y0009749D01*
X0008274Y0009375D01*
X0008576Y0009007D01*
X0008888Y0008647D01*
X0009207Y0008295D01*
X0009535Y0007951D01*
X0009872Y0007614D01*
X0010216Y0007286D01*
X0010568Y0006967D01*
X0010928Y0006655D01*
X0011296Y0006353D01*
X0011670Y0006060D01*
X0012051Y0005776D01*
X0012440Y0005501D01*
X0012834Y0005235D01*
X0013235Y0004979D01*
X0013642Y0004733D01*
X0014055Y0004497D01*
X0014474Y0004271D01*
X0014898Y0004055D01*
X0015327Y0003849D01*
X0015761Y0003654D01*
X0016199Y0003469D01*
X0016642Y0003295D01*
X0017088Y0003132D01*
X0017539Y0002979D01*
X0017993Y0002838D01*
X0018451Y0002707D01*
X0018911Y0002588D01*
X0019374Y0002480D01*
X0019840Y0002383D01*
X0020308Y0002297D01*
X0020778Y0002223D01*
X0021249Y0002160D01*
X0021722Y0002108D01*
X0022196Y0002068D01*
X0022671Y0002039D01*
X0023146Y0002022D01*
X0023622Y0002016D01*
D11*
X0056457Y0214949D03*
X0056457Y0226563D03*
X0095827Y0226996D03*
X0095827Y0215382D03*
D12*
X0085832Y0212690D03*
X0076732Y0212690D03*
X0067632Y0212690D03*
D13*
X0076732Y0237091D03*
D14*
X0058937Y0190953D03*
X0035315Y0190953D03*
X0047126Y0172449D03*
D15*
X0094488Y0025638D03*
X0157480Y0025638D03*
X0220472Y0025638D03*
X0283465Y0025638D03*
X0354331Y0108315D03*
X0354331Y0187055D03*
D16*
X0354331Y0167370D03*
X0354331Y0147685D03*
X0354331Y0088630D03*
X0354331Y0068945D03*
X0263780Y0025638D03*
X0244094Y0025638D03*
X0200787Y0025638D03*
X0181102Y0025638D03*
X0137795Y0025638D03*
X0118110Y0025638D03*
X0074803Y0025638D03*
X0055118Y0025638D03*
D17*
X0051220Y0049496D03*
X0061220Y0049496D03*
X0071220Y0049496D03*
X0081220Y0049496D03*
X0091220Y0049496D03*
X0101220Y0049496D03*
X0111220Y0049496D03*
X0121220Y0049496D03*
X0131220Y0049496D03*
X0141614Y0049496D03*
X0151220Y0049496D03*
X0161220Y0049496D03*
X0171220Y0049496D03*
X0181220Y0049496D03*
X0191220Y0049496D03*
X0191220Y0154496D03*
X0181220Y0154496D03*
X0171220Y0154496D03*
X0161220Y0154496D03*
X0151220Y0154496D03*
X0141220Y0154496D03*
X0131220Y0154496D03*
X0121220Y0154496D03*
X0111220Y0154496D03*
X0101220Y0154496D03*
X0091220Y0154496D03*
X0081220Y0154496D03*
X0071220Y0154496D03*
X0061220Y0154496D03*
X0051220Y0154496D03*
D18*
X0023622Y0226425D03*
X0023622Y0021701D03*
X0358268Y0021701D03*
X0358268Y0226425D03*
D19*
X0112677Y0118041D02*
X0112677Y0112841D01*
X0102677Y0112841D02*
X0102677Y0118041D01*
X0092677Y0118041D02*
X0092677Y0112841D01*
X0082677Y0112841D02*
X0082677Y0118041D01*
X0072677Y0118041D02*
X0072677Y0112841D01*
X0062677Y0112841D02*
X0062677Y0118041D01*
X0052677Y0118041D02*
X0052677Y0112841D01*
X0052677Y0088041D02*
X0052677Y0082841D01*
X0062677Y0082841D02*
X0062677Y0088041D01*
X0072677Y0088041D02*
X0072677Y0082841D01*
X0082677Y0082841D02*
X0082677Y0088041D01*
X0092677Y0088041D02*
X0092677Y0082841D01*
X0102677Y0082841D02*
X0102677Y0088041D01*
X0112677Y0088041D02*
X0112677Y0082841D01*
D20*
X0271313Y0065030D02*
X0279113Y0065030D01*
X0319313Y0065030D02*
X0327113Y0065030D01*
X0327113Y0112230D02*
X0319313Y0112230D01*
X0279113Y0112230D02*
X0271313Y0112230D01*
X0271313Y0143770D02*
X0279113Y0143770D01*
X0319313Y0143770D02*
X0327113Y0143770D01*
X0327113Y0190970D02*
X0319313Y0190970D01*
X0279113Y0190970D02*
X0271313Y0190970D01*
D21*
X0272238Y0167370D02*
X0261588Y0167370D01*
X0261588Y0088630D02*
X0272238Y0088630D01*
D22*
X0295472Y0128000D03*
X0302953Y0128000D03*
X0302953Y0206740D03*
X0295472Y0206740D03*
D23*
X0318701Y0206740D03*
X0326969Y0206740D03*
X0326969Y0128000D03*
X0318701Y0128000D03*
D24*
X0231535Y0172244D02*
X0231535Y0178244D01*
X0221535Y0178244D02*
X0221535Y0172244D01*
X0211535Y0172244D02*
X0211535Y0178244D01*
X0201535Y0178244D02*
X0201535Y0172244D01*
X0308898Y0051512D02*
X0308898Y0045512D01*
X0318898Y0045512D02*
X0318898Y0051512D01*
X0328898Y0051512D02*
X0328898Y0045512D01*
D25*
X0188976Y0226425D03*
X0145669Y0226425D03*
D26*
X0125984Y0226425D03*
X0169291Y0226425D03*
D27*
X0074055Y0072882D03*
X0074055Y0065008D03*
X0044055Y0065008D03*
X0044055Y0072882D03*
M02*
