%
M48
M72
T01C0.0197
T02C0.0236
T03C0.0315
T04C0.0320
T05C0.0400
T06C0.0512
T07C0.0520
T08C0.0710
T09C0.1180
T10C0.1260
%
T01
X36220Y20674
X12992Y6894
X5807Y10831
X4724Y12406
X9843Y12406
X11417Y14375
X3740Y16146
T02
X28740Y12800
X28740Y20674
T03
X19122Y4950
X18122Y4950
X17122Y4950
X16122Y4950
X15122Y4950
X14161Y4950
X13122Y4950
X12122Y4950
X11122Y4950
X10122Y4950
X9122Y4950
X8122Y4950
X7122Y4950
X6122Y4950
X5122Y4950
X5122Y15450
X6122Y15450
X7122Y15450
X8122Y15450
X9122Y15450
X10122Y15450
X11122Y15450
X12122Y15450
X13122Y15450
X14122Y15450
X15122Y15450
X16122Y15450
X17122Y15450
X18122Y15450
X19122Y15450
T04
X11268Y8544
X10268Y8544
X9268Y8544
X8268Y8544
X7268Y8544
X6268Y8544
X5268Y8544
X4406Y7288
X4406Y6501
X7406Y6501
X7406Y7288
X7268Y11544
X8268Y11544
X9268Y11544
X10268Y11544
X11268Y11544
X6268Y11544
X5268Y11544
T05
X20154Y17524
X21154Y17524
X22154Y17524
X23154Y17524
X30890Y4851
X31890Y4851
X32890Y4851
T06
X35433Y6894
X35433Y8863
X35433Y10831
X35433Y14769
X35433Y16737
X35433Y18706
X18898Y22643
X16929Y22643
X14567Y22643
X12598Y22643
X11811Y2564
X13780Y2564
X15748Y2564
X18110Y2564
X20079Y2564
X22047Y2564
X24409Y2564
X26378Y2564
X28346Y2564
X9449Y2564
X7480Y2564
X5512Y2564
T07
X27521Y6503
X32321Y6503
X32321Y11223
X32321Y14377
X27521Y14377
X27521Y11223
X27521Y19097
X32321Y19097
T08
X26691Y8863
X26691Y16737
T09
X5894Y19095
X3531Y19095
X4713Y17245
T10
X35827Y2170
X35827Y22643
X2362Y22643
X2362Y2170
M30
