G75*
%MOIN*%
%OFA0B0*%
%FSLAX25Y25*%
%IPPOS*%
%LPD*%
%AMOC8*
5,1,8,0,0,1.08239X$1,22.5*
%
%ADD10C,0.00000*%
%ADD11C,0.17000*%
%ADD12R,0.09500X0.09500*%
%ADD13C,0.09500*%
%ADD14R,0.07000X0.07000*%
%ADD15C,0.05200*%
%ADD16C,0.07800*%
%ADD17C,0.10650*%
%ADD18R,0.03937X0.05512*%
%ADD19R,0.07087X0.06693*%
%ADD20C,0.06000*%
%ADD21R,0.08000X0.08000*%
%ADD22C,0.08000*%
%ADD23OC8,0.05200*%
%ADD24C,0.01600*%
%ADD25C,0.02400*%
%ADD26C,0.03169*%
%ADD27C,0.03562*%
D10*
X0023622Y0002016D02*
X0358268Y0002016D01*
X0351969Y0021701D02*
X0351971Y0021859D01*
X0351977Y0022017D01*
X0351987Y0022175D01*
X0352001Y0022333D01*
X0352019Y0022490D01*
X0352040Y0022647D01*
X0352066Y0022803D01*
X0352096Y0022959D01*
X0352129Y0023114D01*
X0352167Y0023267D01*
X0352208Y0023420D01*
X0352253Y0023572D01*
X0352302Y0023723D01*
X0352355Y0023872D01*
X0352411Y0024020D01*
X0352471Y0024166D01*
X0352535Y0024311D01*
X0352603Y0024454D01*
X0352674Y0024596D01*
X0352748Y0024736D01*
X0352826Y0024873D01*
X0352908Y0025009D01*
X0352992Y0025143D01*
X0353081Y0025274D01*
X0353172Y0025403D01*
X0353267Y0025530D01*
X0353364Y0025655D01*
X0353465Y0025777D01*
X0353569Y0025896D01*
X0353676Y0026013D01*
X0353786Y0026127D01*
X0353899Y0026238D01*
X0354014Y0026347D01*
X0354132Y0026452D01*
X0354253Y0026554D01*
X0354376Y0026654D01*
X0354502Y0026750D01*
X0354630Y0026843D01*
X0354760Y0026933D01*
X0354893Y0027019D01*
X0355028Y0027103D01*
X0355164Y0027182D01*
X0355303Y0027259D01*
X0355444Y0027331D01*
X0355586Y0027401D01*
X0355730Y0027466D01*
X0355876Y0027528D01*
X0356023Y0027586D01*
X0356172Y0027641D01*
X0356322Y0027692D01*
X0356473Y0027739D01*
X0356625Y0027782D01*
X0356778Y0027821D01*
X0356933Y0027857D01*
X0357088Y0027888D01*
X0357244Y0027916D01*
X0357400Y0027940D01*
X0357557Y0027960D01*
X0357715Y0027976D01*
X0357872Y0027988D01*
X0358031Y0027996D01*
X0358189Y0028000D01*
X0358347Y0028000D01*
X0358505Y0027996D01*
X0358664Y0027988D01*
X0358821Y0027976D01*
X0358979Y0027960D01*
X0359136Y0027940D01*
X0359292Y0027916D01*
X0359448Y0027888D01*
X0359603Y0027857D01*
X0359758Y0027821D01*
X0359911Y0027782D01*
X0360063Y0027739D01*
X0360214Y0027692D01*
X0360364Y0027641D01*
X0360513Y0027586D01*
X0360660Y0027528D01*
X0360806Y0027466D01*
X0360950Y0027401D01*
X0361092Y0027331D01*
X0361233Y0027259D01*
X0361372Y0027182D01*
X0361508Y0027103D01*
X0361643Y0027019D01*
X0361776Y0026933D01*
X0361906Y0026843D01*
X0362034Y0026750D01*
X0362160Y0026654D01*
X0362283Y0026554D01*
X0362404Y0026452D01*
X0362522Y0026347D01*
X0362637Y0026238D01*
X0362750Y0026127D01*
X0362860Y0026013D01*
X0362967Y0025896D01*
X0363071Y0025777D01*
X0363172Y0025655D01*
X0363269Y0025530D01*
X0363364Y0025403D01*
X0363455Y0025274D01*
X0363544Y0025143D01*
X0363628Y0025009D01*
X0363710Y0024873D01*
X0363788Y0024736D01*
X0363862Y0024596D01*
X0363933Y0024454D01*
X0364001Y0024311D01*
X0364065Y0024166D01*
X0364125Y0024020D01*
X0364181Y0023872D01*
X0364234Y0023723D01*
X0364283Y0023572D01*
X0364328Y0023420D01*
X0364369Y0023267D01*
X0364407Y0023114D01*
X0364440Y0022959D01*
X0364470Y0022803D01*
X0364496Y0022647D01*
X0364517Y0022490D01*
X0364535Y0022333D01*
X0364549Y0022175D01*
X0364559Y0022017D01*
X0364565Y0021859D01*
X0364567Y0021701D01*
X0364565Y0021543D01*
X0364559Y0021385D01*
X0364549Y0021227D01*
X0364535Y0021069D01*
X0364517Y0020912D01*
X0364496Y0020755D01*
X0364470Y0020599D01*
X0364440Y0020443D01*
X0364407Y0020288D01*
X0364369Y0020135D01*
X0364328Y0019982D01*
X0364283Y0019830D01*
X0364234Y0019679D01*
X0364181Y0019530D01*
X0364125Y0019382D01*
X0364065Y0019236D01*
X0364001Y0019091D01*
X0363933Y0018948D01*
X0363862Y0018806D01*
X0363788Y0018666D01*
X0363710Y0018529D01*
X0363628Y0018393D01*
X0363544Y0018259D01*
X0363455Y0018128D01*
X0363364Y0017999D01*
X0363269Y0017872D01*
X0363172Y0017747D01*
X0363071Y0017625D01*
X0362967Y0017506D01*
X0362860Y0017389D01*
X0362750Y0017275D01*
X0362637Y0017164D01*
X0362522Y0017055D01*
X0362404Y0016950D01*
X0362283Y0016848D01*
X0362160Y0016748D01*
X0362034Y0016652D01*
X0361906Y0016559D01*
X0361776Y0016469D01*
X0361643Y0016383D01*
X0361508Y0016299D01*
X0361372Y0016220D01*
X0361233Y0016143D01*
X0361092Y0016071D01*
X0360950Y0016001D01*
X0360806Y0015936D01*
X0360660Y0015874D01*
X0360513Y0015816D01*
X0360364Y0015761D01*
X0360214Y0015710D01*
X0360063Y0015663D01*
X0359911Y0015620D01*
X0359758Y0015581D01*
X0359603Y0015545D01*
X0359448Y0015514D01*
X0359292Y0015486D01*
X0359136Y0015462D01*
X0358979Y0015442D01*
X0358821Y0015426D01*
X0358664Y0015414D01*
X0358505Y0015406D01*
X0358347Y0015402D01*
X0358189Y0015402D01*
X0358031Y0015406D01*
X0357872Y0015414D01*
X0357715Y0015426D01*
X0357557Y0015442D01*
X0357400Y0015462D01*
X0357244Y0015486D01*
X0357088Y0015514D01*
X0356933Y0015545D01*
X0356778Y0015581D01*
X0356625Y0015620D01*
X0356473Y0015663D01*
X0356322Y0015710D01*
X0356172Y0015761D01*
X0356023Y0015816D01*
X0355876Y0015874D01*
X0355730Y0015936D01*
X0355586Y0016001D01*
X0355444Y0016071D01*
X0355303Y0016143D01*
X0355164Y0016220D01*
X0355028Y0016299D01*
X0354893Y0016383D01*
X0354760Y0016469D01*
X0354630Y0016559D01*
X0354502Y0016652D01*
X0354376Y0016748D01*
X0354253Y0016848D01*
X0354132Y0016950D01*
X0354014Y0017055D01*
X0353899Y0017164D01*
X0353786Y0017275D01*
X0353676Y0017389D01*
X0353569Y0017506D01*
X0353465Y0017625D01*
X0353364Y0017747D01*
X0353267Y0017872D01*
X0353172Y0017999D01*
X0353081Y0018128D01*
X0352992Y0018259D01*
X0352908Y0018393D01*
X0352826Y0018529D01*
X0352748Y0018666D01*
X0352674Y0018806D01*
X0352603Y0018948D01*
X0352535Y0019091D01*
X0352471Y0019236D01*
X0352411Y0019382D01*
X0352355Y0019530D01*
X0352302Y0019679D01*
X0352253Y0019830D01*
X0352208Y0019982D01*
X0352167Y0020135D01*
X0352129Y0020288D01*
X0352096Y0020443D01*
X0352066Y0020599D01*
X0352040Y0020755D01*
X0352019Y0020912D01*
X0352001Y0021069D01*
X0351987Y0021227D01*
X0351977Y0021385D01*
X0351971Y0021543D01*
X0351969Y0021701D01*
X0358268Y0002016D02*
X0358744Y0002022D01*
X0359219Y0002039D01*
X0359694Y0002068D01*
X0360168Y0002108D01*
X0360641Y0002160D01*
X0361112Y0002223D01*
X0361582Y0002297D01*
X0362050Y0002383D01*
X0362516Y0002480D01*
X0362979Y0002588D01*
X0363439Y0002707D01*
X0363897Y0002838D01*
X0364351Y0002979D01*
X0364802Y0003132D01*
X0365248Y0003295D01*
X0365691Y0003469D01*
X0366129Y0003654D01*
X0366563Y0003849D01*
X0366992Y0004055D01*
X0367416Y0004271D01*
X0367835Y0004497D01*
X0368248Y0004733D01*
X0368655Y0004979D01*
X0369056Y0005235D01*
X0369450Y0005501D01*
X0369839Y0005776D01*
X0370220Y0006060D01*
X0370594Y0006353D01*
X0370962Y0006655D01*
X0371322Y0006967D01*
X0371674Y0007286D01*
X0372018Y0007614D01*
X0372355Y0007951D01*
X0372683Y0008295D01*
X0373002Y0008647D01*
X0373314Y0009007D01*
X0373616Y0009375D01*
X0373909Y0009749D01*
X0374193Y0010130D01*
X0374468Y0010519D01*
X0374734Y0010913D01*
X0374990Y0011314D01*
X0375236Y0011721D01*
X0375472Y0012134D01*
X0375698Y0012553D01*
X0375914Y0012977D01*
X0376120Y0013406D01*
X0376315Y0013840D01*
X0376500Y0014278D01*
X0376674Y0014721D01*
X0376837Y0015167D01*
X0376990Y0015618D01*
X0377131Y0016072D01*
X0377262Y0016530D01*
X0377381Y0016990D01*
X0377489Y0017453D01*
X0377586Y0017919D01*
X0377672Y0018387D01*
X0377746Y0018857D01*
X0377809Y0019328D01*
X0377861Y0019801D01*
X0377901Y0020275D01*
X0377930Y0020750D01*
X0377947Y0021225D01*
X0377953Y0021701D01*
X0377953Y0226425D01*
X0351969Y0226425D02*
X0351971Y0226583D01*
X0351977Y0226741D01*
X0351987Y0226899D01*
X0352001Y0227057D01*
X0352019Y0227214D01*
X0352040Y0227371D01*
X0352066Y0227527D01*
X0352096Y0227683D01*
X0352129Y0227838D01*
X0352167Y0227991D01*
X0352208Y0228144D01*
X0352253Y0228296D01*
X0352302Y0228447D01*
X0352355Y0228596D01*
X0352411Y0228744D01*
X0352471Y0228890D01*
X0352535Y0229035D01*
X0352603Y0229178D01*
X0352674Y0229320D01*
X0352748Y0229460D01*
X0352826Y0229597D01*
X0352908Y0229733D01*
X0352992Y0229867D01*
X0353081Y0229998D01*
X0353172Y0230127D01*
X0353267Y0230254D01*
X0353364Y0230379D01*
X0353465Y0230501D01*
X0353569Y0230620D01*
X0353676Y0230737D01*
X0353786Y0230851D01*
X0353899Y0230962D01*
X0354014Y0231071D01*
X0354132Y0231176D01*
X0354253Y0231278D01*
X0354376Y0231378D01*
X0354502Y0231474D01*
X0354630Y0231567D01*
X0354760Y0231657D01*
X0354893Y0231743D01*
X0355028Y0231827D01*
X0355164Y0231906D01*
X0355303Y0231983D01*
X0355444Y0232055D01*
X0355586Y0232125D01*
X0355730Y0232190D01*
X0355876Y0232252D01*
X0356023Y0232310D01*
X0356172Y0232365D01*
X0356322Y0232416D01*
X0356473Y0232463D01*
X0356625Y0232506D01*
X0356778Y0232545D01*
X0356933Y0232581D01*
X0357088Y0232612D01*
X0357244Y0232640D01*
X0357400Y0232664D01*
X0357557Y0232684D01*
X0357715Y0232700D01*
X0357872Y0232712D01*
X0358031Y0232720D01*
X0358189Y0232724D01*
X0358347Y0232724D01*
X0358505Y0232720D01*
X0358664Y0232712D01*
X0358821Y0232700D01*
X0358979Y0232684D01*
X0359136Y0232664D01*
X0359292Y0232640D01*
X0359448Y0232612D01*
X0359603Y0232581D01*
X0359758Y0232545D01*
X0359911Y0232506D01*
X0360063Y0232463D01*
X0360214Y0232416D01*
X0360364Y0232365D01*
X0360513Y0232310D01*
X0360660Y0232252D01*
X0360806Y0232190D01*
X0360950Y0232125D01*
X0361092Y0232055D01*
X0361233Y0231983D01*
X0361372Y0231906D01*
X0361508Y0231827D01*
X0361643Y0231743D01*
X0361776Y0231657D01*
X0361906Y0231567D01*
X0362034Y0231474D01*
X0362160Y0231378D01*
X0362283Y0231278D01*
X0362404Y0231176D01*
X0362522Y0231071D01*
X0362637Y0230962D01*
X0362750Y0230851D01*
X0362860Y0230737D01*
X0362967Y0230620D01*
X0363071Y0230501D01*
X0363172Y0230379D01*
X0363269Y0230254D01*
X0363364Y0230127D01*
X0363455Y0229998D01*
X0363544Y0229867D01*
X0363628Y0229733D01*
X0363710Y0229597D01*
X0363788Y0229460D01*
X0363862Y0229320D01*
X0363933Y0229178D01*
X0364001Y0229035D01*
X0364065Y0228890D01*
X0364125Y0228744D01*
X0364181Y0228596D01*
X0364234Y0228447D01*
X0364283Y0228296D01*
X0364328Y0228144D01*
X0364369Y0227991D01*
X0364407Y0227838D01*
X0364440Y0227683D01*
X0364470Y0227527D01*
X0364496Y0227371D01*
X0364517Y0227214D01*
X0364535Y0227057D01*
X0364549Y0226899D01*
X0364559Y0226741D01*
X0364565Y0226583D01*
X0364567Y0226425D01*
X0364565Y0226267D01*
X0364559Y0226109D01*
X0364549Y0225951D01*
X0364535Y0225793D01*
X0364517Y0225636D01*
X0364496Y0225479D01*
X0364470Y0225323D01*
X0364440Y0225167D01*
X0364407Y0225012D01*
X0364369Y0224859D01*
X0364328Y0224706D01*
X0364283Y0224554D01*
X0364234Y0224403D01*
X0364181Y0224254D01*
X0364125Y0224106D01*
X0364065Y0223960D01*
X0364001Y0223815D01*
X0363933Y0223672D01*
X0363862Y0223530D01*
X0363788Y0223390D01*
X0363710Y0223253D01*
X0363628Y0223117D01*
X0363544Y0222983D01*
X0363455Y0222852D01*
X0363364Y0222723D01*
X0363269Y0222596D01*
X0363172Y0222471D01*
X0363071Y0222349D01*
X0362967Y0222230D01*
X0362860Y0222113D01*
X0362750Y0221999D01*
X0362637Y0221888D01*
X0362522Y0221779D01*
X0362404Y0221674D01*
X0362283Y0221572D01*
X0362160Y0221472D01*
X0362034Y0221376D01*
X0361906Y0221283D01*
X0361776Y0221193D01*
X0361643Y0221107D01*
X0361508Y0221023D01*
X0361372Y0220944D01*
X0361233Y0220867D01*
X0361092Y0220795D01*
X0360950Y0220725D01*
X0360806Y0220660D01*
X0360660Y0220598D01*
X0360513Y0220540D01*
X0360364Y0220485D01*
X0360214Y0220434D01*
X0360063Y0220387D01*
X0359911Y0220344D01*
X0359758Y0220305D01*
X0359603Y0220269D01*
X0359448Y0220238D01*
X0359292Y0220210D01*
X0359136Y0220186D01*
X0358979Y0220166D01*
X0358821Y0220150D01*
X0358664Y0220138D01*
X0358505Y0220130D01*
X0358347Y0220126D01*
X0358189Y0220126D01*
X0358031Y0220130D01*
X0357872Y0220138D01*
X0357715Y0220150D01*
X0357557Y0220166D01*
X0357400Y0220186D01*
X0357244Y0220210D01*
X0357088Y0220238D01*
X0356933Y0220269D01*
X0356778Y0220305D01*
X0356625Y0220344D01*
X0356473Y0220387D01*
X0356322Y0220434D01*
X0356172Y0220485D01*
X0356023Y0220540D01*
X0355876Y0220598D01*
X0355730Y0220660D01*
X0355586Y0220725D01*
X0355444Y0220795D01*
X0355303Y0220867D01*
X0355164Y0220944D01*
X0355028Y0221023D01*
X0354893Y0221107D01*
X0354760Y0221193D01*
X0354630Y0221283D01*
X0354502Y0221376D01*
X0354376Y0221472D01*
X0354253Y0221572D01*
X0354132Y0221674D01*
X0354014Y0221779D01*
X0353899Y0221888D01*
X0353786Y0221999D01*
X0353676Y0222113D01*
X0353569Y0222230D01*
X0353465Y0222349D01*
X0353364Y0222471D01*
X0353267Y0222596D01*
X0353172Y0222723D01*
X0353081Y0222852D01*
X0352992Y0222983D01*
X0352908Y0223117D01*
X0352826Y0223253D01*
X0352748Y0223390D01*
X0352674Y0223530D01*
X0352603Y0223672D01*
X0352535Y0223815D01*
X0352471Y0223960D01*
X0352411Y0224106D01*
X0352355Y0224254D01*
X0352302Y0224403D01*
X0352253Y0224554D01*
X0352208Y0224706D01*
X0352167Y0224859D01*
X0352129Y0225012D01*
X0352096Y0225167D01*
X0352066Y0225323D01*
X0352040Y0225479D01*
X0352019Y0225636D01*
X0352001Y0225793D01*
X0351987Y0225951D01*
X0351977Y0226109D01*
X0351971Y0226267D01*
X0351969Y0226425D01*
X0358268Y0246110D02*
X0358744Y0246104D01*
X0359219Y0246087D01*
X0359694Y0246058D01*
X0360168Y0246018D01*
X0360641Y0245966D01*
X0361112Y0245903D01*
X0361582Y0245829D01*
X0362050Y0245743D01*
X0362516Y0245646D01*
X0362979Y0245538D01*
X0363439Y0245419D01*
X0363897Y0245288D01*
X0364351Y0245147D01*
X0364802Y0244994D01*
X0365248Y0244831D01*
X0365691Y0244657D01*
X0366129Y0244472D01*
X0366563Y0244277D01*
X0366992Y0244071D01*
X0367416Y0243855D01*
X0367835Y0243629D01*
X0368248Y0243393D01*
X0368655Y0243147D01*
X0369056Y0242891D01*
X0369450Y0242625D01*
X0369839Y0242350D01*
X0370220Y0242066D01*
X0370594Y0241773D01*
X0370962Y0241471D01*
X0371322Y0241159D01*
X0371674Y0240840D01*
X0372018Y0240512D01*
X0372355Y0240175D01*
X0372683Y0239831D01*
X0373002Y0239479D01*
X0373314Y0239119D01*
X0373616Y0238751D01*
X0373909Y0238377D01*
X0374193Y0237996D01*
X0374468Y0237607D01*
X0374734Y0237213D01*
X0374990Y0236812D01*
X0375236Y0236405D01*
X0375472Y0235992D01*
X0375698Y0235573D01*
X0375914Y0235149D01*
X0376120Y0234720D01*
X0376315Y0234286D01*
X0376500Y0233848D01*
X0376674Y0233405D01*
X0376837Y0232959D01*
X0376990Y0232508D01*
X0377131Y0232054D01*
X0377262Y0231596D01*
X0377381Y0231136D01*
X0377489Y0230673D01*
X0377586Y0230207D01*
X0377672Y0229739D01*
X0377746Y0229269D01*
X0377809Y0228798D01*
X0377861Y0228325D01*
X0377901Y0227851D01*
X0377930Y0227376D01*
X0377947Y0226901D01*
X0377953Y0226425D01*
X0358268Y0246110D02*
X0023622Y0246110D01*
X0017323Y0226425D02*
X0017325Y0226583D01*
X0017331Y0226741D01*
X0017341Y0226899D01*
X0017355Y0227057D01*
X0017373Y0227214D01*
X0017394Y0227371D01*
X0017420Y0227527D01*
X0017450Y0227683D01*
X0017483Y0227838D01*
X0017521Y0227991D01*
X0017562Y0228144D01*
X0017607Y0228296D01*
X0017656Y0228447D01*
X0017709Y0228596D01*
X0017765Y0228744D01*
X0017825Y0228890D01*
X0017889Y0229035D01*
X0017957Y0229178D01*
X0018028Y0229320D01*
X0018102Y0229460D01*
X0018180Y0229597D01*
X0018262Y0229733D01*
X0018346Y0229867D01*
X0018435Y0229998D01*
X0018526Y0230127D01*
X0018621Y0230254D01*
X0018718Y0230379D01*
X0018819Y0230501D01*
X0018923Y0230620D01*
X0019030Y0230737D01*
X0019140Y0230851D01*
X0019253Y0230962D01*
X0019368Y0231071D01*
X0019486Y0231176D01*
X0019607Y0231278D01*
X0019730Y0231378D01*
X0019856Y0231474D01*
X0019984Y0231567D01*
X0020114Y0231657D01*
X0020247Y0231743D01*
X0020382Y0231827D01*
X0020518Y0231906D01*
X0020657Y0231983D01*
X0020798Y0232055D01*
X0020940Y0232125D01*
X0021084Y0232190D01*
X0021230Y0232252D01*
X0021377Y0232310D01*
X0021526Y0232365D01*
X0021676Y0232416D01*
X0021827Y0232463D01*
X0021979Y0232506D01*
X0022132Y0232545D01*
X0022287Y0232581D01*
X0022442Y0232612D01*
X0022598Y0232640D01*
X0022754Y0232664D01*
X0022911Y0232684D01*
X0023069Y0232700D01*
X0023226Y0232712D01*
X0023385Y0232720D01*
X0023543Y0232724D01*
X0023701Y0232724D01*
X0023859Y0232720D01*
X0024018Y0232712D01*
X0024175Y0232700D01*
X0024333Y0232684D01*
X0024490Y0232664D01*
X0024646Y0232640D01*
X0024802Y0232612D01*
X0024957Y0232581D01*
X0025112Y0232545D01*
X0025265Y0232506D01*
X0025417Y0232463D01*
X0025568Y0232416D01*
X0025718Y0232365D01*
X0025867Y0232310D01*
X0026014Y0232252D01*
X0026160Y0232190D01*
X0026304Y0232125D01*
X0026446Y0232055D01*
X0026587Y0231983D01*
X0026726Y0231906D01*
X0026862Y0231827D01*
X0026997Y0231743D01*
X0027130Y0231657D01*
X0027260Y0231567D01*
X0027388Y0231474D01*
X0027514Y0231378D01*
X0027637Y0231278D01*
X0027758Y0231176D01*
X0027876Y0231071D01*
X0027991Y0230962D01*
X0028104Y0230851D01*
X0028214Y0230737D01*
X0028321Y0230620D01*
X0028425Y0230501D01*
X0028526Y0230379D01*
X0028623Y0230254D01*
X0028718Y0230127D01*
X0028809Y0229998D01*
X0028898Y0229867D01*
X0028982Y0229733D01*
X0029064Y0229597D01*
X0029142Y0229460D01*
X0029216Y0229320D01*
X0029287Y0229178D01*
X0029355Y0229035D01*
X0029419Y0228890D01*
X0029479Y0228744D01*
X0029535Y0228596D01*
X0029588Y0228447D01*
X0029637Y0228296D01*
X0029682Y0228144D01*
X0029723Y0227991D01*
X0029761Y0227838D01*
X0029794Y0227683D01*
X0029824Y0227527D01*
X0029850Y0227371D01*
X0029871Y0227214D01*
X0029889Y0227057D01*
X0029903Y0226899D01*
X0029913Y0226741D01*
X0029919Y0226583D01*
X0029921Y0226425D01*
X0029919Y0226267D01*
X0029913Y0226109D01*
X0029903Y0225951D01*
X0029889Y0225793D01*
X0029871Y0225636D01*
X0029850Y0225479D01*
X0029824Y0225323D01*
X0029794Y0225167D01*
X0029761Y0225012D01*
X0029723Y0224859D01*
X0029682Y0224706D01*
X0029637Y0224554D01*
X0029588Y0224403D01*
X0029535Y0224254D01*
X0029479Y0224106D01*
X0029419Y0223960D01*
X0029355Y0223815D01*
X0029287Y0223672D01*
X0029216Y0223530D01*
X0029142Y0223390D01*
X0029064Y0223253D01*
X0028982Y0223117D01*
X0028898Y0222983D01*
X0028809Y0222852D01*
X0028718Y0222723D01*
X0028623Y0222596D01*
X0028526Y0222471D01*
X0028425Y0222349D01*
X0028321Y0222230D01*
X0028214Y0222113D01*
X0028104Y0221999D01*
X0027991Y0221888D01*
X0027876Y0221779D01*
X0027758Y0221674D01*
X0027637Y0221572D01*
X0027514Y0221472D01*
X0027388Y0221376D01*
X0027260Y0221283D01*
X0027130Y0221193D01*
X0026997Y0221107D01*
X0026862Y0221023D01*
X0026726Y0220944D01*
X0026587Y0220867D01*
X0026446Y0220795D01*
X0026304Y0220725D01*
X0026160Y0220660D01*
X0026014Y0220598D01*
X0025867Y0220540D01*
X0025718Y0220485D01*
X0025568Y0220434D01*
X0025417Y0220387D01*
X0025265Y0220344D01*
X0025112Y0220305D01*
X0024957Y0220269D01*
X0024802Y0220238D01*
X0024646Y0220210D01*
X0024490Y0220186D01*
X0024333Y0220166D01*
X0024175Y0220150D01*
X0024018Y0220138D01*
X0023859Y0220130D01*
X0023701Y0220126D01*
X0023543Y0220126D01*
X0023385Y0220130D01*
X0023226Y0220138D01*
X0023069Y0220150D01*
X0022911Y0220166D01*
X0022754Y0220186D01*
X0022598Y0220210D01*
X0022442Y0220238D01*
X0022287Y0220269D01*
X0022132Y0220305D01*
X0021979Y0220344D01*
X0021827Y0220387D01*
X0021676Y0220434D01*
X0021526Y0220485D01*
X0021377Y0220540D01*
X0021230Y0220598D01*
X0021084Y0220660D01*
X0020940Y0220725D01*
X0020798Y0220795D01*
X0020657Y0220867D01*
X0020518Y0220944D01*
X0020382Y0221023D01*
X0020247Y0221107D01*
X0020114Y0221193D01*
X0019984Y0221283D01*
X0019856Y0221376D01*
X0019730Y0221472D01*
X0019607Y0221572D01*
X0019486Y0221674D01*
X0019368Y0221779D01*
X0019253Y0221888D01*
X0019140Y0221999D01*
X0019030Y0222113D01*
X0018923Y0222230D01*
X0018819Y0222349D01*
X0018718Y0222471D01*
X0018621Y0222596D01*
X0018526Y0222723D01*
X0018435Y0222852D01*
X0018346Y0222983D01*
X0018262Y0223117D01*
X0018180Y0223253D01*
X0018102Y0223390D01*
X0018028Y0223530D01*
X0017957Y0223672D01*
X0017889Y0223815D01*
X0017825Y0223960D01*
X0017765Y0224106D01*
X0017709Y0224254D01*
X0017656Y0224403D01*
X0017607Y0224554D01*
X0017562Y0224706D01*
X0017521Y0224859D01*
X0017483Y0225012D01*
X0017450Y0225167D01*
X0017420Y0225323D01*
X0017394Y0225479D01*
X0017373Y0225636D01*
X0017355Y0225793D01*
X0017341Y0225951D01*
X0017331Y0226109D01*
X0017325Y0226267D01*
X0017323Y0226425D01*
X0003937Y0226425D02*
X0003943Y0226901D01*
X0003960Y0227376D01*
X0003989Y0227851D01*
X0004029Y0228325D01*
X0004081Y0228798D01*
X0004144Y0229269D01*
X0004218Y0229739D01*
X0004304Y0230207D01*
X0004401Y0230673D01*
X0004509Y0231136D01*
X0004628Y0231596D01*
X0004759Y0232054D01*
X0004900Y0232508D01*
X0005053Y0232959D01*
X0005216Y0233405D01*
X0005390Y0233848D01*
X0005575Y0234286D01*
X0005770Y0234720D01*
X0005976Y0235149D01*
X0006192Y0235573D01*
X0006418Y0235992D01*
X0006654Y0236405D01*
X0006900Y0236812D01*
X0007156Y0237213D01*
X0007422Y0237607D01*
X0007697Y0237996D01*
X0007981Y0238377D01*
X0008274Y0238751D01*
X0008576Y0239119D01*
X0008888Y0239479D01*
X0009207Y0239831D01*
X0009535Y0240175D01*
X0009872Y0240512D01*
X0010216Y0240840D01*
X0010568Y0241159D01*
X0010928Y0241471D01*
X0011296Y0241773D01*
X0011670Y0242066D01*
X0012051Y0242350D01*
X0012440Y0242625D01*
X0012834Y0242891D01*
X0013235Y0243147D01*
X0013642Y0243393D01*
X0014055Y0243629D01*
X0014474Y0243855D01*
X0014898Y0244071D01*
X0015327Y0244277D01*
X0015761Y0244472D01*
X0016199Y0244657D01*
X0016642Y0244831D01*
X0017088Y0244994D01*
X0017539Y0245147D01*
X0017993Y0245288D01*
X0018451Y0245419D01*
X0018911Y0245538D01*
X0019374Y0245646D01*
X0019840Y0245743D01*
X0020308Y0245829D01*
X0020778Y0245903D01*
X0021249Y0245966D01*
X0021722Y0246018D01*
X0022196Y0246058D01*
X0022671Y0246087D01*
X0023146Y0246104D01*
X0023622Y0246110D01*
X0003937Y0226425D02*
X0003937Y0021701D01*
X0017323Y0021701D02*
X0017325Y0021859D01*
X0017331Y0022017D01*
X0017341Y0022175D01*
X0017355Y0022333D01*
X0017373Y0022490D01*
X0017394Y0022647D01*
X0017420Y0022803D01*
X0017450Y0022959D01*
X0017483Y0023114D01*
X0017521Y0023267D01*
X0017562Y0023420D01*
X0017607Y0023572D01*
X0017656Y0023723D01*
X0017709Y0023872D01*
X0017765Y0024020D01*
X0017825Y0024166D01*
X0017889Y0024311D01*
X0017957Y0024454D01*
X0018028Y0024596D01*
X0018102Y0024736D01*
X0018180Y0024873D01*
X0018262Y0025009D01*
X0018346Y0025143D01*
X0018435Y0025274D01*
X0018526Y0025403D01*
X0018621Y0025530D01*
X0018718Y0025655D01*
X0018819Y0025777D01*
X0018923Y0025896D01*
X0019030Y0026013D01*
X0019140Y0026127D01*
X0019253Y0026238D01*
X0019368Y0026347D01*
X0019486Y0026452D01*
X0019607Y0026554D01*
X0019730Y0026654D01*
X0019856Y0026750D01*
X0019984Y0026843D01*
X0020114Y0026933D01*
X0020247Y0027019D01*
X0020382Y0027103D01*
X0020518Y0027182D01*
X0020657Y0027259D01*
X0020798Y0027331D01*
X0020940Y0027401D01*
X0021084Y0027466D01*
X0021230Y0027528D01*
X0021377Y0027586D01*
X0021526Y0027641D01*
X0021676Y0027692D01*
X0021827Y0027739D01*
X0021979Y0027782D01*
X0022132Y0027821D01*
X0022287Y0027857D01*
X0022442Y0027888D01*
X0022598Y0027916D01*
X0022754Y0027940D01*
X0022911Y0027960D01*
X0023069Y0027976D01*
X0023226Y0027988D01*
X0023385Y0027996D01*
X0023543Y0028000D01*
X0023701Y0028000D01*
X0023859Y0027996D01*
X0024018Y0027988D01*
X0024175Y0027976D01*
X0024333Y0027960D01*
X0024490Y0027940D01*
X0024646Y0027916D01*
X0024802Y0027888D01*
X0024957Y0027857D01*
X0025112Y0027821D01*
X0025265Y0027782D01*
X0025417Y0027739D01*
X0025568Y0027692D01*
X0025718Y0027641D01*
X0025867Y0027586D01*
X0026014Y0027528D01*
X0026160Y0027466D01*
X0026304Y0027401D01*
X0026446Y0027331D01*
X0026587Y0027259D01*
X0026726Y0027182D01*
X0026862Y0027103D01*
X0026997Y0027019D01*
X0027130Y0026933D01*
X0027260Y0026843D01*
X0027388Y0026750D01*
X0027514Y0026654D01*
X0027637Y0026554D01*
X0027758Y0026452D01*
X0027876Y0026347D01*
X0027991Y0026238D01*
X0028104Y0026127D01*
X0028214Y0026013D01*
X0028321Y0025896D01*
X0028425Y0025777D01*
X0028526Y0025655D01*
X0028623Y0025530D01*
X0028718Y0025403D01*
X0028809Y0025274D01*
X0028898Y0025143D01*
X0028982Y0025009D01*
X0029064Y0024873D01*
X0029142Y0024736D01*
X0029216Y0024596D01*
X0029287Y0024454D01*
X0029355Y0024311D01*
X0029419Y0024166D01*
X0029479Y0024020D01*
X0029535Y0023872D01*
X0029588Y0023723D01*
X0029637Y0023572D01*
X0029682Y0023420D01*
X0029723Y0023267D01*
X0029761Y0023114D01*
X0029794Y0022959D01*
X0029824Y0022803D01*
X0029850Y0022647D01*
X0029871Y0022490D01*
X0029889Y0022333D01*
X0029903Y0022175D01*
X0029913Y0022017D01*
X0029919Y0021859D01*
X0029921Y0021701D01*
X0029919Y0021543D01*
X0029913Y0021385D01*
X0029903Y0021227D01*
X0029889Y0021069D01*
X0029871Y0020912D01*
X0029850Y0020755D01*
X0029824Y0020599D01*
X0029794Y0020443D01*
X0029761Y0020288D01*
X0029723Y0020135D01*
X0029682Y0019982D01*
X0029637Y0019830D01*
X0029588Y0019679D01*
X0029535Y0019530D01*
X0029479Y0019382D01*
X0029419Y0019236D01*
X0029355Y0019091D01*
X0029287Y0018948D01*
X0029216Y0018806D01*
X0029142Y0018666D01*
X0029064Y0018529D01*
X0028982Y0018393D01*
X0028898Y0018259D01*
X0028809Y0018128D01*
X0028718Y0017999D01*
X0028623Y0017872D01*
X0028526Y0017747D01*
X0028425Y0017625D01*
X0028321Y0017506D01*
X0028214Y0017389D01*
X0028104Y0017275D01*
X0027991Y0017164D01*
X0027876Y0017055D01*
X0027758Y0016950D01*
X0027637Y0016848D01*
X0027514Y0016748D01*
X0027388Y0016652D01*
X0027260Y0016559D01*
X0027130Y0016469D01*
X0026997Y0016383D01*
X0026862Y0016299D01*
X0026726Y0016220D01*
X0026587Y0016143D01*
X0026446Y0016071D01*
X0026304Y0016001D01*
X0026160Y0015936D01*
X0026014Y0015874D01*
X0025867Y0015816D01*
X0025718Y0015761D01*
X0025568Y0015710D01*
X0025417Y0015663D01*
X0025265Y0015620D01*
X0025112Y0015581D01*
X0024957Y0015545D01*
X0024802Y0015514D01*
X0024646Y0015486D01*
X0024490Y0015462D01*
X0024333Y0015442D01*
X0024175Y0015426D01*
X0024018Y0015414D01*
X0023859Y0015406D01*
X0023701Y0015402D01*
X0023543Y0015402D01*
X0023385Y0015406D01*
X0023226Y0015414D01*
X0023069Y0015426D01*
X0022911Y0015442D01*
X0022754Y0015462D01*
X0022598Y0015486D01*
X0022442Y0015514D01*
X0022287Y0015545D01*
X0022132Y0015581D01*
X0021979Y0015620D01*
X0021827Y0015663D01*
X0021676Y0015710D01*
X0021526Y0015761D01*
X0021377Y0015816D01*
X0021230Y0015874D01*
X0021084Y0015936D01*
X0020940Y0016001D01*
X0020798Y0016071D01*
X0020657Y0016143D01*
X0020518Y0016220D01*
X0020382Y0016299D01*
X0020247Y0016383D01*
X0020114Y0016469D01*
X0019984Y0016559D01*
X0019856Y0016652D01*
X0019730Y0016748D01*
X0019607Y0016848D01*
X0019486Y0016950D01*
X0019368Y0017055D01*
X0019253Y0017164D01*
X0019140Y0017275D01*
X0019030Y0017389D01*
X0018923Y0017506D01*
X0018819Y0017625D01*
X0018718Y0017747D01*
X0018621Y0017872D01*
X0018526Y0017999D01*
X0018435Y0018128D01*
X0018346Y0018259D01*
X0018262Y0018393D01*
X0018180Y0018529D01*
X0018102Y0018666D01*
X0018028Y0018806D01*
X0017957Y0018948D01*
X0017889Y0019091D01*
X0017825Y0019236D01*
X0017765Y0019382D01*
X0017709Y0019530D01*
X0017656Y0019679D01*
X0017607Y0019830D01*
X0017562Y0019982D01*
X0017521Y0020135D01*
X0017483Y0020288D01*
X0017450Y0020443D01*
X0017420Y0020599D01*
X0017394Y0020755D01*
X0017373Y0020912D01*
X0017355Y0021069D01*
X0017341Y0021227D01*
X0017331Y0021385D01*
X0017325Y0021543D01*
X0017323Y0021701D01*
X0003937Y0021701D02*
X0003943Y0021225D01*
X0003960Y0020750D01*
X0003989Y0020275D01*
X0004029Y0019801D01*
X0004081Y0019328D01*
X0004144Y0018857D01*
X0004218Y0018387D01*
X0004304Y0017919D01*
X0004401Y0017453D01*
X0004509Y0016990D01*
X0004628Y0016530D01*
X0004759Y0016072D01*
X0004900Y0015618D01*
X0005053Y0015167D01*
X0005216Y0014721D01*
X0005390Y0014278D01*
X0005575Y0013840D01*
X0005770Y0013406D01*
X0005976Y0012977D01*
X0006192Y0012553D01*
X0006418Y0012134D01*
X0006654Y0011721D01*
X0006900Y0011314D01*
X0007156Y0010913D01*
X0007422Y0010519D01*
X0007697Y0010130D01*
X0007981Y0009749D01*
X0008274Y0009375D01*
X0008576Y0009007D01*
X0008888Y0008647D01*
X0009207Y0008295D01*
X0009535Y0007951D01*
X0009872Y0007614D01*
X0010216Y0007286D01*
X0010568Y0006967D01*
X0010928Y0006655D01*
X0011296Y0006353D01*
X0011670Y0006060D01*
X0012051Y0005776D01*
X0012440Y0005501D01*
X0012834Y0005235D01*
X0013235Y0004979D01*
X0013642Y0004733D01*
X0014055Y0004497D01*
X0014474Y0004271D01*
X0014898Y0004055D01*
X0015327Y0003849D01*
X0015761Y0003654D01*
X0016199Y0003469D01*
X0016642Y0003295D01*
X0017088Y0003132D01*
X0017539Y0002979D01*
X0017993Y0002838D01*
X0018451Y0002707D01*
X0018911Y0002588D01*
X0019374Y0002480D01*
X0019840Y0002383D01*
X0020308Y0002297D01*
X0020778Y0002223D01*
X0021249Y0002160D01*
X0021722Y0002108D01*
X0022196Y0002068D01*
X0022671Y0002039D01*
X0023146Y0002022D01*
X0023622Y0002016D01*
D11*
X0047126Y0172449D03*
X0058937Y0190953D03*
X0035315Y0190953D03*
D12*
X0094488Y0025638D03*
X0157480Y0025638D03*
X0220472Y0025638D03*
X0283465Y0025638D03*
X0354331Y0108315D03*
X0354331Y0187055D03*
D13*
X0354331Y0167370D03*
X0354331Y0147685D03*
X0354331Y0088630D03*
X0354331Y0068945D03*
X0263780Y0025638D03*
X0244094Y0025638D03*
X0200787Y0025638D03*
X0181102Y0025638D03*
X0137795Y0025638D03*
X0118110Y0025638D03*
X0074803Y0025638D03*
X0055118Y0025638D03*
D14*
X0051220Y0049496D03*
X0061220Y0049496D03*
X0071220Y0049496D03*
X0081220Y0049496D03*
X0091220Y0049496D03*
X0101220Y0049496D03*
X0111220Y0049496D03*
X0121220Y0049496D03*
X0131220Y0049496D03*
X0141614Y0049496D03*
X0151220Y0049496D03*
X0161220Y0049496D03*
X0171220Y0049496D03*
X0181220Y0049496D03*
X0191220Y0049496D03*
X0191220Y0154496D03*
X0181220Y0154496D03*
X0171220Y0154496D03*
X0161220Y0154496D03*
X0151220Y0154496D03*
X0141220Y0154496D03*
X0131220Y0154496D03*
X0121220Y0154496D03*
X0111220Y0154496D03*
X0101220Y0154496D03*
X0091220Y0154496D03*
X0081220Y0154496D03*
X0071220Y0154496D03*
X0061220Y0154496D03*
X0051220Y0154496D03*
D15*
X0052677Y0118041D02*
X0052677Y0112841D01*
X0062677Y0112841D02*
X0062677Y0118041D01*
X0072677Y0118041D02*
X0072677Y0112841D01*
X0082677Y0112841D02*
X0082677Y0118041D01*
X0092677Y0118041D02*
X0092677Y0112841D01*
X0102677Y0112841D02*
X0102677Y0118041D01*
X0112677Y0118041D02*
X0112677Y0112841D01*
X0112677Y0088041D02*
X0112677Y0082841D01*
X0102677Y0082841D02*
X0102677Y0088041D01*
X0092677Y0088041D02*
X0092677Y0082841D01*
X0082677Y0082841D02*
X0082677Y0088041D01*
X0072677Y0088041D02*
X0072677Y0082841D01*
X0062677Y0082841D02*
X0062677Y0088041D01*
X0052677Y0088041D02*
X0052677Y0082841D01*
D16*
X0271313Y0065030D02*
X0279113Y0065030D01*
X0319313Y0065030D02*
X0327113Y0065030D01*
X0327113Y0112230D02*
X0319313Y0112230D01*
X0279113Y0112230D02*
X0271313Y0112230D01*
X0271313Y0143770D02*
X0279113Y0143770D01*
X0319313Y0143770D02*
X0327113Y0143770D01*
X0327113Y0190970D02*
X0319313Y0190970D01*
X0279113Y0190970D02*
X0271313Y0190970D01*
D17*
X0272238Y0167370D02*
X0261588Y0167370D01*
X0261588Y0088630D02*
X0272238Y0088630D01*
D18*
X0299213Y0103984D03*
X0302953Y0112646D03*
X0295472Y0112646D03*
X0299213Y0182724D03*
X0302953Y0191386D03*
X0295472Y0191386D03*
D19*
X0291535Y0179181D03*
X0275394Y0179181D03*
X0275394Y0100441D03*
X0291535Y0100441D03*
D20*
X0308898Y0051512D02*
X0308898Y0045512D01*
X0318898Y0045512D02*
X0318898Y0051512D01*
X0328898Y0051512D02*
X0328898Y0045512D01*
X0231535Y0172244D02*
X0231535Y0178244D01*
X0221535Y0178244D02*
X0221535Y0172244D01*
X0211535Y0172244D02*
X0211535Y0178244D01*
X0201535Y0178244D02*
X0201535Y0172244D01*
D21*
X0188976Y0226425D03*
X0145669Y0226425D03*
D22*
X0125984Y0226425D03*
X0169291Y0226425D03*
D23*
X0074055Y0072882D03*
X0074055Y0065008D03*
X0044055Y0065008D03*
X0044055Y0072882D03*
D24*
X0008478Y0012185D02*
X0010975Y0009054D01*
X0014107Y0006557D01*
X0017715Y0004819D01*
X0021620Y0003928D01*
X0023622Y0003816D01*
X0358268Y0003816D01*
X0360270Y0003928D01*
X0364175Y0004819D01*
X0367783Y0006557D01*
X0367783Y0006557D01*
X0370914Y0009054D01*
X0373411Y0012185D01*
X0375149Y0015794D01*
X0376040Y0019698D01*
X0376153Y0021701D01*
X0376153Y0226425D01*
X0376040Y0228428D01*
X0375149Y0232332D01*
X0373411Y0235941D01*
X0370914Y0239072D01*
X0367783Y0241569D01*
X0364175Y0243307D01*
X0360270Y0244198D01*
X0358268Y0244310D01*
X0023622Y0244310D01*
X0021620Y0244198D01*
X0017715Y0243307D01*
X0014107Y0241569D01*
X0010975Y0239072D01*
X0008478Y0235941D01*
X0006741Y0232332D01*
X0005849Y0228428D01*
X0005737Y0226425D01*
X0005737Y0021701D01*
X0005849Y0019698D01*
X0006741Y0015794D01*
X0008478Y0012185D01*
X0008940Y0011607D02*
X0010398Y0011607D01*
X0010214Y0010008D02*
X0011640Y0010008D01*
X0011307Y0010274D02*
X0015222Y0007152D01*
X0019884Y0005322D01*
X0024877Y0004948D01*
X0024878Y0004948D01*
X0029760Y0006062D01*
X0034097Y0008566D01*
X0037503Y0012237D01*
X0039676Y0016749D01*
X0040422Y0021701D01*
X0039676Y0026653D01*
X0037503Y0031165D01*
X0037503Y0031165D01*
X0037503Y0031165D01*
X0034097Y0034836D01*
X0029760Y0037339D01*
X0024877Y0038454D01*
X0019884Y0038080D01*
X0015222Y0036250D01*
X0011307Y0033128D01*
X0011307Y0033128D01*
X0011307Y0033128D01*
X0008486Y0028990D01*
X0007010Y0024205D01*
X0007010Y0019197D01*
X0008486Y0014412D01*
X0008486Y0014412D01*
X0011307Y0010274D01*
X0011307Y0010274D01*
X0011307Y0010274D01*
X0011783Y0008410D02*
X0013644Y0008410D01*
X0013788Y0006811D02*
X0016089Y0006811D01*
X0015222Y0007152D02*
X0015222Y0007152D01*
X0016898Y0005213D02*
X0021341Y0005213D01*
X0019884Y0005322D02*
X0019884Y0005322D01*
X0026039Y0005213D02*
X0100132Y0005213D01*
X0101492Y0003853D02*
X0335516Y0003853D01*
X0336746Y0005083D01*
X0340683Y0009020D01*
X0340683Y0028705D01*
X0351264Y0039286D01*
X0370949Y0039286D01*
X0372179Y0040516D01*
X0376116Y0044453D01*
X0376116Y0203673D01*
X0374886Y0204903D01*
X0370949Y0208840D01*
X0364184Y0208840D01*
X0363839Y0209185D01*
X0362778Y0209624D01*
X0361631Y0209624D01*
X0360571Y0209185D01*
X0359760Y0208374D01*
X0359320Y0207314D01*
X0359320Y0206166D01*
X0359760Y0205106D01*
X0360571Y0204295D01*
X0361631Y0203856D01*
X0362778Y0203856D01*
X0363839Y0204295D01*
X0364184Y0204640D01*
X0369209Y0204640D01*
X0371916Y0201933D01*
X0371916Y0046193D01*
X0369209Y0043486D01*
X0349524Y0043486D01*
X0337713Y0031675D01*
X0336483Y0030445D01*
X0336483Y0010760D01*
X0333776Y0008053D01*
X0103232Y0008053D01*
X0096588Y0014697D01*
X0096588Y0019588D01*
X0099777Y0019588D01*
X0100538Y0020349D01*
X0100538Y0030926D01*
X0099777Y0031688D01*
X0089200Y0031688D01*
X0088438Y0030926D01*
X0088438Y0020349D01*
X0089200Y0019588D01*
X0092388Y0019588D01*
X0092388Y0012957D01*
X0093618Y0011727D01*
X0101492Y0003853D01*
X0102362Y0005953D02*
X0094488Y0013827D01*
X0094488Y0025638D01*
X0088438Y0025993D02*
X0080853Y0025993D01*
X0080853Y0026841D02*
X0079932Y0029065D01*
X0078230Y0030767D01*
X0076007Y0031688D01*
X0073600Y0031688D01*
X0071376Y0030767D01*
X0069674Y0029065D01*
X0068753Y0026841D01*
X0068753Y0024434D01*
X0069674Y0022211D01*
X0071376Y0020509D01*
X0073600Y0019588D01*
X0076007Y0019588D01*
X0078230Y0020509D01*
X0079932Y0022211D01*
X0080853Y0024434D01*
X0080853Y0026841D01*
X0080542Y0027592D02*
X0088438Y0027592D01*
X0088438Y0029190D02*
X0079806Y0029190D01*
X0078177Y0030789D02*
X0088438Y0030789D01*
X0088438Y0024395D02*
X0080837Y0024395D01*
X0080175Y0022796D02*
X0088438Y0022796D01*
X0088438Y0021198D02*
X0078919Y0021198D01*
X0076035Y0019599D02*
X0089188Y0019599D01*
X0092388Y0018001D02*
X0039864Y0018001D01*
X0039676Y0016749D02*
X0039676Y0016749D01*
X0039509Y0016402D02*
X0092388Y0016402D01*
X0092388Y0014804D02*
X0038739Y0014804D01*
X0037969Y0013205D02*
X0092388Y0013205D01*
X0093738Y0011607D02*
X0036918Y0011607D01*
X0037503Y0012237D02*
X0037503Y0012237D01*
X0035435Y0010008D02*
X0095337Y0010008D01*
X0096935Y0008410D02*
X0033826Y0008410D01*
X0034097Y0008566D02*
X0034097Y0008566D01*
X0031057Y0006811D02*
X0098534Y0006811D01*
X0102362Y0005953D02*
X0334646Y0005953D01*
X0338583Y0009890D01*
X0338583Y0029575D01*
X0350394Y0041386D01*
X0370079Y0041386D01*
X0374016Y0045323D01*
X0374016Y0202803D01*
X0370079Y0206740D01*
X0362205Y0206740D01*
X0359320Y0206625D02*
X0290483Y0206625D01*
X0290483Y0206127D02*
X0290483Y0207353D01*
X0290014Y0208485D01*
X0289147Y0209352D01*
X0288014Y0209821D01*
X0286789Y0209821D01*
X0285656Y0209352D01*
X0284790Y0208485D01*
X0284320Y0207353D01*
X0284320Y0206127D01*
X0284790Y0204995D01*
X0284902Y0204883D01*
X0284902Y0198959D01*
X0285282Y0198041D01*
X0285985Y0197337D01*
X0292204Y0191119D01*
X0292204Y0188091D01*
X0292965Y0187330D01*
X0297979Y0187330D01*
X0298741Y0188091D01*
X0298741Y0194680D01*
X0297979Y0195442D01*
X0294952Y0195442D01*
X0289902Y0200492D01*
X0289902Y0204883D01*
X0290014Y0204995D01*
X0290483Y0206127D01*
X0290027Y0205027D02*
X0359839Y0205027D01*
X0359697Y0208224D02*
X0290122Y0208224D01*
X0289902Y0203428D02*
X0370421Y0203428D01*
X0371916Y0201830D02*
X0289902Y0201830D01*
X0290163Y0200231D02*
X0371916Y0200231D01*
X0371916Y0198633D02*
X0291761Y0198633D01*
X0293360Y0197034D02*
X0371916Y0197034D01*
X0371916Y0195436D02*
X0329920Y0195436D01*
X0330058Y0195378D02*
X0328147Y0196170D01*
X0318278Y0196170D01*
X0316367Y0195378D01*
X0314904Y0193916D01*
X0314113Y0192004D01*
X0314113Y0189936D01*
X0314904Y0188025D01*
X0316367Y0186562D01*
X0318278Y0185770D01*
X0328147Y0185770D01*
X0330058Y0186562D01*
X0331521Y0188025D01*
X0332313Y0189936D01*
X0332313Y0192004D01*
X0331521Y0193916D01*
X0330058Y0195378D01*
X0331553Y0193837D02*
X0371916Y0193837D01*
X0371916Y0192239D02*
X0360381Y0192239D01*
X0360381Y0192344D02*
X0359619Y0193105D01*
X0349042Y0193105D01*
X0348281Y0192344D01*
X0348281Y0181767D01*
X0349042Y0181005D01*
X0359619Y0181005D01*
X0360381Y0181767D01*
X0360381Y0192344D01*
X0360381Y0190640D02*
X0371916Y0190640D01*
X0371916Y0189042D02*
X0360381Y0189042D01*
X0360381Y0187443D02*
X0371916Y0187443D01*
X0371916Y0185845D02*
X0360381Y0185845D01*
X0360381Y0184246D02*
X0371916Y0184246D01*
X0371916Y0182648D02*
X0360381Y0182648D01*
X0359663Y0181049D02*
X0371916Y0181049D01*
X0371916Y0179451D02*
X0302481Y0179451D01*
X0302481Y0179430D02*
X0301720Y0178669D01*
X0296706Y0178669D01*
X0296379Y0178995D01*
X0296379Y0175296D01*
X0295617Y0174535D01*
X0294035Y0174535D01*
X0294035Y0159596D01*
X0293655Y0158677D01*
X0292952Y0157974D01*
X0282607Y0147629D01*
X0283521Y0146716D01*
X0284313Y0144804D01*
X0284313Y0142736D01*
X0283521Y0140825D01*
X0282058Y0139362D01*
X0280147Y0138570D01*
X0270278Y0138570D01*
X0268367Y0139362D01*
X0266904Y0140825D01*
X0266113Y0142736D01*
X0266113Y0144804D01*
X0266904Y0146716D01*
X0268367Y0148178D01*
X0270278Y0148970D01*
X0276877Y0148970D01*
X0289035Y0161128D01*
X0289035Y0174535D01*
X0287454Y0174535D01*
X0286692Y0175296D01*
X0286692Y0183066D01*
X0287454Y0183828D01*
X0292646Y0183828D01*
X0292959Y0184141D01*
X0293663Y0184844D01*
X0294581Y0185224D01*
X0295944Y0185224D01*
X0295944Y0186019D01*
X0296706Y0186780D01*
X0301720Y0186780D01*
X0302481Y0186019D01*
X0302481Y0179430D01*
X0302481Y0181049D02*
X0348998Y0181049D01*
X0348281Y0182648D02*
X0302481Y0182648D01*
X0302481Y0184246D02*
X0348281Y0184246D01*
X0348281Y0185845D02*
X0328327Y0185845D01*
X0330939Y0187443D02*
X0348281Y0187443D01*
X0348281Y0189042D02*
X0331942Y0189042D01*
X0332313Y0190640D02*
X0348281Y0190640D01*
X0348281Y0192239D02*
X0332216Y0192239D01*
X0318098Y0185845D02*
X0302481Y0185845D01*
X0302768Y0186830D02*
X0302768Y0191201D01*
X0303137Y0191201D01*
X0303137Y0186830D01*
X0305158Y0186830D01*
X0305616Y0186953D01*
X0306026Y0187190D01*
X0306362Y0187525D01*
X0306599Y0187935D01*
X0306721Y0188393D01*
X0306721Y0191202D01*
X0303137Y0191202D01*
X0303137Y0191570D01*
X0306721Y0191570D01*
X0306721Y0194379D01*
X0306599Y0194837D01*
X0306362Y0195247D01*
X0306026Y0195582D01*
X0305616Y0195819D01*
X0305158Y0195942D01*
X0303137Y0195942D01*
X0303137Y0191570D01*
X0302768Y0191570D01*
X0302768Y0191202D01*
X0299184Y0191202D01*
X0299184Y0188393D01*
X0299307Y0187935D01*
X0299544Y0187525D01*
X0299879Y0187190D01*
X0300289Y0186953D01*
X0300747Y0186830D01*
X0302768Y0186830D01*
X0302768Y0187443D02*
X0303137Y0187443D01*
X0303137Y0189042D02*
X0302768Y0189042D01*
X0302768Y0190640D02*
X0303137Y0190640D01*
X0302768Y0191570D02*
X0299184Y0191570D01*
X0299184Y0194379D01*
X0299307Y0194837D01*
X0299544Y0195247D01*
X0299879Y0195582D01*
X0300289Y0195819D01*
X0300747Y0195942D01*
X0302768Y0195942D01*
X0302768Y0191570D01*
X0302768Y0192239D02*
X0303137Y0192239D01*
X0303137Y0193837D02*
X0302768Y0193837D01*
X0302768Y0195436D02*
X0303137Y0195436D01*
X0306173Y0195436D02*
X0316505Y0195436D01*
X0314872Y0193837D02*
X0306721Y0193837D01*
X0306721Y0192239D02*
X0314210Y0192239D01*
X0314113Y0190640D02*
X0306721Y0190640D01*
X0306721Y0189042D02*
X0314483Y0189042D01*
X0315486Y0187443D02*
X0306280Y0187443D01*
X0299626Y0187443D02*
X0298093Y0187443D01*
X0298741Y0189042D02*
X0299184Y0189042D01*
X0299184Y0190640D02*
X0298741Y0190640D01*
X0298741Y0192239D02*
X0299184Y0192239D01*
X0299184Y0193837D02*
X0298741Y0193837D01*
X0297986Y0195436D02*
X0299733Y0195436D01*
X0292204Y0190640D02*
X0284313Y0190640D01*
X0284313Y0189936D02*
X0284313Y0192004D01*
X0283521Y0193916D01*
X0282058Y0195378D01*
X0280147Y0196170D01*
X0270278Y0196170D01*
X0268367Y0195378D01*
X0266904Y0193916D01*
X0266113Y0192004D01*
X0266113Y0189936D01*
X0266904Y0188025D01*
X0268367Y0186562D01*
X0270278Y0185770D01*
X0272713Y0185770D01*
X0272713Y0183828D01*
X0271312Y0183828D01*
X0270550Y0183066D01*
X0270550Y0175296D01*
X0271312Y0174535D01*
X0279475Y0174535D01*
X0280237Y0175296D01*
X0280237Y0183066D01*
X0279475Y0183828D01*
X0277713Y0183828D01*
X0277713Y0185770D01*
X0280147Y0185770D01*
X0282058Y0186562D01*
X0283521Y0188025D01*
X0284313Y0189936D01*
X0283942Y0189042D02*
X0292204Y0189042D01*
X0292852Y0187443D02*
X0282939Y0187443D01*
X0280327Y0185845D02*
X0295944Y0185845D01*
X0293065Y0184246D02*
X0277713Y0184246D01*
X0280237Y0182648D02*
X0286692Y0182648D01*
X0286692Y0181049D02*
X0280237Y0181049D01*
X0280237Y0179451D02*
X0286692Y0179451D01*
X0286692Y0177852D02*
X0280237Y0177852D01*
X0280237Y0176253D02*
X0286692Y0176253D01*
X0287333Y0174655D02*
X0279596Y0174655D01*
X0277519Y0171458D02*
X0289035Y0171458D01*
X0289035Y0173056D02*
X0275821Y0173056D01*
X0275990Y0172986D02*
X0273555Y0173995D01*
X0260270Y0173995D01*
X0257835Y0172986D01*
X0255971Y0171123D01*
X0254963Y0168688D01*
X0254963Y0166052D01*
X0255971Y0163617D01*
X0257835Y0161754D01*
X0260270Y0160745D01*
X0273555Y0160745D01*
X0275990Y0161754D01*
X0277854Y0163617D01*
X0278863Y0166052D01*
X0278863Y0168688D01*
X0277854Y0171123D01*
X0275990Y0172986D01*
X0278377Y0169859D02*
X0289035Y0169859D01*
X0289035Y0168261D02*
X0278863Y0168261D01*
X0278863Y0166662D02*
X0289035Y0166662D01*
X0289035Y0165064D02*
X0278453Y0165064D01*
X0277702Y0163465D02*
X0289035Y0163465D01*
X0289035Y0161867D02*
X0276104Y0161867D01*
X0283380Y0155473D02*
X0219419Y0155473D01*
X0221018Y0157071D02*
X0284978Y0157071D01*
X0286577Y0158670D02*
X0222616Y0158670D01*
X0223635Y0159689D02*
X0223635Y0168460D01*
X0223971Y0168599D01*
X0225181Y0169808D01*
X0225835Y0171389D01*
X0225835Y0179099D01*
X0225181Y0180680D01*
X0223971Y0181889D01*
X0222391Y0182544D01*
X0220680Y0182544D01*
X0219100Y0181889D01*
X0217890Y0180680D01*
X0217235Y0179099D01*
X0217235Y0171389D01*
X0217890Y0169808D01*
X0219100Y0168599D01*
X0219435Y0168460D01*
X0219435Y0161429D01*
X0199918Y0141911D01*
X0152673Y0141911D01*
X0129051Y0118289D01*
X0127821Y0117059D01*
X0127821Y0070924D01*
X0127476Y0070579D01*
X0127037Y0069519D01*
X0127037Y0068371D01*
X0127476Y0067311D01*
X0128287Y0066500D01*
X0129348Y0066061D01*
X0130495Y0066061D01*
X0131555Y0066500D01*
X0132366Y0067311D01*
X0132805Y0068371D01*
X0132805Y0069519D01*
X0132366Y0070579D01*
X0132021Y0070924D01*
X0132021Y0115319D01*
X0154413Y0137711D01*
X0201657Y0137711D01*
X0223635Y0159689D01*
X0223635Y0160268D02*
X0288175Y0160268D01*
X0292049Y0157071D02*
X0371916Y0157071D01*
X0371916Y0155473D02*
X0290451Y0155473D01*
X0288852Y0153874D02*
X0371916Y0153874D01*
X0371916Y0152276D02*
X0358296Y0152276D01*
X0357758Y0152814D02*
X0355534Y0153735D01*
X0353127Y0153735D01*
X0350904Y0152814D01*
X0349202Y0151112D01*
X0348281Y0148888D01*
X0348281Y0146482D01*
X0349202Y0144258D01*
X0350904Y0142556D01*
X0353127Y0141635D01*
X0355534Y0141635D01*
X0357758Y0142556D01*
X0359460Y0144258D01*
X0360381Y0146482D01*
X0360381Y0148888D01*
X0359460Y0151112D01*
X0357758Y0152814D01*
X0359640Y0150677D02*
X0371916Y0150677D01*
X0371916Y0149079D02*
X0360302Y0149079D01*
X0360381Y0147480D02*
X0371916Y0147480D01*
X0371916Y0145882D02*
X0360132Y0145882D01*
X0359470Y0144283D02*
X0371916Y0144283D01*
X0371916Y0142685D02*
X0357886Y0142685D01*
X0350775Y0142685D02*
X0332291Y0142685D01*
X0332313Y0142736D02*
X0332313Y0144804D01*
X0331521Y0146716D01*
X0330058Y0148178D01*
X0328147Y0148970D01*
X0318278Y0148970D01*
X0316367Y0148178D01*
X0314904Y0146716D01*
X0314113Y0144804D01*
X0314113Y0142736D01*
X0314904Y0140825D01*
X0316367Y0139362D01*
X0318278Y0138570D01*
X0328147Y0138570D01*
X0330058Y0139362D01*
X0331521Y0140825D01*
X0332313Y0142736D01*
X0332313Y0144283D02*
X0349191Y0144283D01*
X0348529Y0145882D02*
X0331866Y0145882D01*
X0330756Y0147480D02*
X0348281Y0147480D01*
X0348360Y0149079D02*
X0284057Y0149079D01*
X0282756Y0147480D02*
X0315669Y0147480D01*
X0314559Y0145882D02*
X0283866Y0145882D01*
X0284313Y0144283D02*
X0314113Y0144283D01*
X0314134Y0142685D02*
X0284291Y0142685D01*
X0283629Y0141086D02*
X0314796Y0141086D01*
X0316241Y0139488D02*
X0282184Y0139488D01*
X0285656Y0130612D02*
X0284790Y0129745D01*
X0284320Y0128613D01*
X0284320Y0127387D01*
X0284790Y0126255D01*
X0284902Y0126143D01*
X0284902Y0120219D01*
X0285282Y0119300D01*
X0285985Y0118597D01*
X0292204Y0112379D01*
X0292204Y0109351D01*
X0292965Y0108590D01*
X0297979Y0108590D01*
X0298741Y0109351D01*
X0298741Y0115940D01*
X0297979Y0116702D01*
X0294952Y0116702D01*
X0289902Y0121752D01*
X0289902Y0126143D01*
X0290014Y0126255D01*
X0290483Y0127387D01*
X0290483Y0128613D01*
X0290014Y0129745D01*
X0289147Y0130612D01*
X0288014Y0131081D01*
X0286789Y0131081D01*
X0285656Y0130612D01*
X0284941Y0129897D02*
X0146599Y0129897D01*
X0148197Y0131495D02*
X0371916Y0131495D01*
X0371916Y0129897D02*
X0289862Y0129897D01*
X0290483Y0128298D02*
X0371916Y0128298D01*
X0371916Y0126700D02*
X0290198Y0126700D01*
X0289902Y0125101D02*
X0371916Y0125101D01*
X0371916Y0123503D02*
X0289902Y0123503D01*
X0289902Y0121904D02*
X0371916Y0121904D01*
X0371916Y0120306D02*
X0291348Y0120306D01*
X0292947Y0118707D02*
X0371916Y0118707D01*
X0371916Y0117109D02*
X0328923Y0117109D01*
X0328147Y0117430D02*
X0330058Y0116638D01*
X0331521Y0115175D01*
X0332313Y0113264D01*
X0332313Y0111196D01*
X0331521Y0109284D01*
X0330058Y0107822D01*
X0328147Y0107030D01*
X0318278Y0107030D01*
X0316367Y0107822D01*
X0314904Y0109284D01*
X0314113Y0111196D01*
X0314113Y0113264D01*
X0314904Y0115175D01*
X0316367Y0116638D01*
X0318278Y0117430D01*
X0328147Y0117430D01*
X0331186Y0115510D02*
X0371916Y0115510D01*
X0371916Y0113912D02*
X0360073Y0113912D01*
X0360381Y0113603D02*
X0359619Y0114365D01*
X0349042Y0114365D01*
X0348281Y0113603D01*
X0348281Y0103026D01*
X0349042Y0102265D01*
X0359619Y0102265D01*
X0360381Y0103026D01*
X0360381Y0113603D01*
X0360381Y0112313D02*
X0371916Y0112313D01*
X0371916Y0110715D02*
X0360381Y0110715D01*
X0360381Y0109116D02*
X0371916Y0109116D01*
X0371916Y0107517D02*
X0360381Y0107517D01*
X0360381Y0105919D02*
X0371916Y0105919D01*
X0371916Y0104320D02*
X0360381Y0104320D01*
X0360076Y0102722D02*
X0371916Y0102722D01*
X0371916Y0101123D02*
X0302481Y0101123D01*
X0302481Y0100690D02*
X0302481Y0107279D01*
X0301720Y0108040D01*
X0296706Y0108040D01*
X0295944Y0107279D01*
X0295944Y0106484D01*
X0294581Y0106484D01*
X0293663Y0106104D01*
X0292959Y0105400D01*
X0292646Y0105087D01*
X0287454Y0105087D01*
X0286692Y0104326D01*
X0286692Y0096556D01*
X0287454Y0095794D01*
X0289035Y0095794D01*
X0289035Y0082388D01*
X0276877Y0070230D01*
X0270278Y0070230D01*
X0268367Y0069438D01*
X0266904Y0067975D01*
X0266113Y0066064D01*
X0266113Y0063996D01*
X0266904Y0062084D01*
X0268367Y0060622D01*
X0268866Y0060415D01*
X0145981Y0060415D01*
X0140862Y0055297D01*
X0139862Y0054296D01*
X0137576Y0054296D01*
X0136814Y0053535D01*
X0136814Y0046242D01*
X0136520Y0046242D01*
X0136520Y0049496D01*
X0131221Y0049496D01*
X0131221Y0049496D01*
X0136520Y0049496D01*
X0136520Y0053233D01*
X0136398Y0053691D01*
X0136161Y0054101D01*
X0135826Y0054436D01*
X0135415Y0054673D01*
X0134957Y0054796D01*
X0131221Y0054796D01*
X0131221Y0049496D01*
X0131220Y0049496D01*
X0131220Y0054796D01*
X0127483Y0054796D01*
X0127026Y0054673D01*
X0126615Y0054436D01*
X0126280Y0054101D01*
X0126043Y0053691D01*
X0126005Y0053550D01*
X0125259Y0054296D01*
X0123754Y0054296D01*
X0123754Y0119650D01*
X0149689Y0145585D01*
X0197720Y0145585D01*
X0198950Y0146815D01*
X0213635Y0161500D01*
X0213635Y0168460D01*
X0213971Y0168599D01*
X0215181Y0169808D01*
X0215835Y0171389D01*
X0215835Y0179099D01*
X0215181Y0180680D01*
X0213971Y0181889D01*
X0212391Y0182544D01*
X0210680Y0182544D01*
X0209100Y0181889D01*
X0207890Y0180680D01*
X0207235Y0179099D01*
X0207235Y0171389D01*
X0207890Y0169808D01*
X0209100Y0168599D01*
X0209435Y0168460D01*
X0209435Y0163240D01*
X0195981Y0149785D01*
X0195348Y0149785D01*
X0196020Y0150458D01*
X0196020Y0158535D01*
X0195259Y0159296D01*
X0187182Y0159296D01*
X0186420Y0158535D01*
X0186420Y0150458D01*
X0187093Y0149785D01*
X0185348Y0149785D01*
X0186020Y0150458D01*
X0186020Y0158535D01*
X0185259Y0159296D01*
X0177182Y0159296D01*
X0176420Y0158535D01*
X0176420Y0150458D01*
X0177093Y0149785D01*
X0175348Y0149785D01*
X0176020Y0150458D01*
X0176020Y0158535D01*
X0175259Y0159296D01*
X0167182Y0159296D01*
X0166420Y0158535D01*
X0166420Y0150458D01*
X0167093Y0149785D01*
X0165348Y0149785D01*
X0166020Y0150458D01*
X0166020Y0158535D01*
X0165259Y0159296D01*
X0157182Y0159296D01*
X0156420Y0158535D01*
X0156420Y0150458D01*
X0157093Y0149785D01*
X0155348Y0149785D01*
X0156020Y0150458D01*
X0156020Y0158535D01*
X0155259Y0159296D01*
X0147182Y0159296D01*
X0146420Y0158535D01*
X0146420Y0150458D01*
X0147182Y0149696D01*
X0147860Y0149696D01*
X0120784Y0122620D01*
X0119685Y0121521D01*
X0118980Y0122226D01*
X0116273Y0124933D01*
X0115043Y0126163D01*
X0100404Y0126163D01*
X0100059Y0126508D01*
X0098999Y0126947D01*
X0097851Y0126947D01*
X0096791Y0126508D01*
X0095980Y0125697D01*
X0095541Y0124637D01*
X0095541Y0123489D01*
X0095980Y0122429D01*
X0096791Y0121618D01*
X0097851Y0121179D01*
X0098999Y0121179D01*
X0100059Y0121618D01*
X0100404Y0121963D01*
X0113303Y0121963D01*
X0113325Y0121941D01*
X0111901Y0121941D01*
X0110468Y0121347D01*
X0109371Y0120250D01*
X0108777Y0118817D01*
X0108777Y0112065D01*
X0109371Y0110632D01*
X0110468Y0109535D01*
X0111901Y0108941D01*
X0113453Y0108941D01*
X0114886Y0109535D01*
X0115983Y0110632D01*
X0116010Y0110697D01*
X0116010Y0090185D01*
X0115983Y0090250D01*
X0114886Y0091347D01*
X0113453Y0091941D01*
X0111901Y0091941D01*
X0110468Y0091347D01*
X0109371Y0090250D01*
X0108777Y0088817D01*
X0108777Y0082065D01*
X0109371Y0080632D01*
X0110468Y0079535D01*
X0111901Y0078941D01*
X0113453Y0078941D01*
X0114886Y0079535D01*
X0115983Y0080632D01*
X0116577Y0082065D01*
X0116577Y0084127D01*
X0117021Y0084571D01*
X0119554Y0087103D01*
X0119554Y0054296D01*
X0117182Y0054296D01*
X0116420Y0053535D01*
X0116420Y0046242D01*
X0116020Y0046242D01*
X0116020Y0053535D01*
X0115259Y0054296D01*
X0107182Y0054296D01*
X0106420Y0053535D01*
X0106420Y0046242D01*
X0106020Y0046242D01*
X0106020Y0053535D01*
X0105259Y0054296D01*
X0097182Y0054296D01*
X0096420Y0053535D01*
X0096420Y0046242D01*
X0096020Y0046242D01*
X0096020Y0053535D01*
X0095259Y0054296D01*
X0087182Y0054296D01*
X0086420Y0053535D01*
X0086420Y0046242D01*
X0086020Y0046242D01*
X0086020Y0053535D01*
X0085259Y0054296D01*
X0077182Y0054296D01*
X0076420Y0053535D01*
X0076420Y0046242D01*
X0076020Y0046242D01*
X0076020Y0053535D01*
X0075259Y0054296D01*
X0067182Y0054296D01*
X0066436Y0053550D01*
X0066398Y0053691D01*
X0066161Y0054101D01*
X0065826Y0054436D01*
X0065415Y0054673D01*
X0064957Y0054796D01*
X0061221Y0054796D01*
X0061221Y0049496D01*
X0061220Y0049496D01*
X0061220Y0054796D01*
X0057483Y0054796D01*
X0057026Y0054673D01*
X0056615Y0054436D01*
X0056280Y0054101D01*
X0056043Y0053691D01*
X0056005Y0053550D01*
X0055259Y0054296D01*
X0047376Y0054296D01*
X0048114Y0055034D01*
X0075673Y0055034D01*
X0076903Y0056264D01*
X0080840Y0060201D01*
X0080840Y0079381D01*
X0081901Y0078941D01*
X0083453Y0078941D01*
X0084886Y0079535D01*
X0085983Y0080632D01*
X0086577Y0082065D01*
X0086577Y0088817D01*
X0085983Y0090250D01*
X0084886Y0091347D01*
X0083453Y0091941D01*
X0081901Y0091941D01*
X0080840Y0091501D01*
X0080840Y0101311D01*
X0079610Y0102541D01*
X0073616Y0108535D01*
X0073707Y0108549D01*
X0074366Y0108763D01*
X0074983Y0109078D01*
X0075544Y0109485D01*
X0076033Y0109975D01*
X0076440Y0110535D01*
X0076755Y0111152D01*
X0076969Y0111811D01*
X0077077Y0112495D01*
X0077077Y0115441D01*
X0077077Y0118387D01*
X0076969Y0119071D01*
X0076755Y0119730D01*
X0076440Y0120347D01*
X0076033Y0120907D01*
X0075544Y0121397D01*
X0074983Y0121804D01*
X0074366Y0122119D01*
X0073707Y0122333D01*
X0073023Y0122441D01*
X0072677Y0122441D01*
X0072331Y0122441D01*
X0071647Y0122333D01*
X0070988Y0122119D01*
X0070371Y0121804D01*
X0069811Y0121397D01*
X0069321Y0120907D01*
X0068914Y0120347D01*
X0068600Y0119730D01*
X0068386Y0119071D01*
X0068277Y0118387D01*
X0068277Y0115441D01*
X0072677Y0115441D01*
X0072677Y0115441D01*
X0072677Y0122441D01*
X0072677Y0115441D01*
X0072677Y0115441D01*
X0068277Y0115441D01*
X0068277Y0113874D01*
X0066577Y0115574D01*
X0066577Y0118817D01*
X0065983Y0120250D01*
X0064886Y0121347D01*
X0063453Y0121941D01*
X0061901Y0121941D01*
X0060468Y0121347D01*
X0059371Y0120250D01*
X0058777Y0118817D01*
X0058777Y0112065D01*
X0059238Y0110954D01*
X0058645Y0111199D01*
X0057497Y0111199D01*
X0056437Y0110760D01*
X0056092Y0110415D01*
X0055767Y0110415D01*
X0055983Y0110632D01*
X0056577Y0112065D01*
X0056577Y0118817D01*
X0055983Y0120250D01*
X0054886Y0121347D01*
X0053453Y0121941D01*
X0051901Y0121941D01*
X0050468Y0121347D01*
X0049371Y0120250D01*
X0048777Y0118817D01*
X0048777Y0112065D01*
X0049371Y0110632D01*
X0049588Y0110415D01*
X0028429Y0110415D01*
X0025722Y0113122D01*
X0025722Y0158626D01*
X0026460Y0159365D01*
X0035423Y0159365D01*
X0035768Y0159019D01*
X0036828Y0158580D01*
X0037975Y0158580D01*
X0039035Y0159019D01*
X0039847Y0159831D01*
X0040286Y0160891D01*
X0040286Y0162038D01*
X0039847Y0163098D01*
X0039035Y0163910D01*
X0037975Y0164349D01*
X0036828Y0164349D01*
X0035768Y0163910D01*
X0035423Y0163565D01*
X0024721Y0163565D01*
X0022752Y0161596D01*
X0021522Y0160366D01*
X0021522Y0111382D01*
X0025459Y0107445D01*
X0026426Y0106478D01*
X0016618Y0106478D01*
X0009974Y0113122D01*
X0009974Y0197996D01*
X0012681Y0200703D01*
X0031994Y0200703D01*
X0031367Y0200484D01*
X0030325Y0199982D01*
X0029345Y0199366D01*
X0028441Y0198645D01*
X0027623Y0197827D01*
X0026901Y0196922D01*
X0026286Y0195943D01*
X0025784Y0194901D01*
X0025402Y0193809D01*
X0025144Y0192681D01*
X0025040Y0191753D01*
X0034515Y0191753D01*
X0034515Y0190153D01*
X0025040Y0190153D01*
X0025144Y0189225D01*
X0025402Y0188097D01*
X0025784Y0187005D01*
X0026286Y0185963D01*
X0026901Y0184983D01*
X0027623Y0184079D01*
X0028441Y0183261D01*
X0029345Y0182539D01*
X0030325Y0181924D01*
X0031367Y0181422D01*
X0032459Y0181040D01*
X0033587Y0180782D01*
X0034515Y0180678D01*
X0034515Y0190153D01*
X0036115Y0190153D01*
X0036115Y0191753D01*
X0045590Y0191753D01*
X0045485Y0192681D01*
X0045228Y0193809D01*
X0044846Y0194901D01*
X0044344Y0195943D01*
X0043728Y0196922D01*
X0043007Y0197827D01*
X0042189Y0198645D01*
X0041285Y0199366D01*
X0040305Y0199982D01*
X0039263Y0200484D01*
X0038636Y0200703D01*
X0050311Y0200703D01*
X0052570Y0198445D01*
X0050629Y0196504D01*
X0049137Y0192902D01*
X0049137Y0189003D01*
X0050629Y0185402D01*
X0053386Y0182645D01*
X0056988Y0181153D01*
X0060886Y0181153D01*
X0064488Y0182645D01*
X0067245Y0185402D01*
X0068737Y0189003D01*
X0068737Y0192902D01*
X0067245Y0196504D01*
X0064488Y0199261D01*
X0060886Y0200753D01*
X0056988Y0200753D01*
X0056432Y0200522D01*
X0052051Y0204903D01*
X0010941Y0204903D01*
X0009711Y0203673D01*
X0005774Y0199736D01*
X0005774Y0111382D01*
X0007004Y0110152D01*
X0014878Y0102278D01*
X0061729Y0102278D01*
X0070341Y0093666D01*
X0070341Y0091220D01*
X0069371Y0090250D01*
X0068777Y0088817D01*
X0068777Y0082065D01*
X0068903Y0081762D01*
X0062122Y0074982D01*
X0047471Y0074982D01*
X0045671Y0076782D01*
X0042440Y0076782D01*
X0040155Y0074497D01*
X0040155Y0071266D01*
X0042123Y0069298D01*
X0039655Y0066830D01*
X0039655Y0065008D01*
X0044055Y0065008D01*
X0044055Y0065008D01*
X0039655Y0065008D01*
X0039655Y0063185D01*
X0042233Y0060608D01*
X0044055Y0060608D01*
X0044055Y0065008D01*
X0048455Y0065008D01*
X0048455Y0066830D01*
X0045987Y0069298D01*
X0047471Y0070782D01*
X0063862Y0070782D01*
X0072021Y0078941D01*
X0073453Y0078941D01*
X0074886Y0079535D01*
X0075983Y0080632D01*
X0076577Y0082065D01*
X0076577Y0088817D01*
X0075983Y0090250D01*
X0074886Y0091347D01*
X0074541Y0091490D01*
X0074541Y0095405D01*
X0073311Y0096635D01*
X0063468Y0106478D01*
X0060313Y0106478D01*
X0060516Y0106681D01*
X0060955Y0107741D01*
X0060955Y0108889D01*
X0060733Y0109425D01*
X0061901Y0108941D01*
X0063453Y0108941D01*
X0064886Y0109535D01*
X0065781Y0110430D01*
X0076640Y0099571D01*
X0076640Y0075812D01*
X0075671Y0076782D01*
X0072440Y0076782D01*
X0070155Y0074497D01*
X0070155Y0071266D01*
X0072440Y0068982D01*
X0075671Y0068982D01*
X0076640Y0069952D01*
X0076640Y0067938D01*
X0075671Y0068908D01*
X0072440Y0068908D01*
X0070155Y0066623D01*
X0070155Y0063392D01*
X0072440Y0061108D01*
X0075671Y0061108D01*
X0076640Y0062078D01*
X0076640Y0061941D01*
X0073933Y0059234D01*
X0046374Y0059234D01*
X0042437Y0055297D01*
X0041207Y0054067D01*
X0041207Y0046815D01*
X0044536Y0043486D01*
X0044177Y0043486D01*
X0037533Y0050130D01*
X0037533Y0075949D01*
X0044925Y0083341D01*
X0048777Y0083341D01*
X0048777Y0082065D01*
X0049371Y0080632D01*
X0050468Y0079535D01*
X0051901Y0078941D01*
X0053453Y0078941D01*
X0054886Y0079535D01*
X0055983Y0080632D01*
X0056577Y0082065D01*
X0056577Y0088817D01*
X0055983Y0090250D01*
X0055767Y0090467D01*
X0058185Y0090467D01*
X0059087Y0089565D01*
X0058777Y0088817D01*
X0058777Y0082065D01*
X0059371Y0080632D01*
X0060468Y0079535D01*
X0061901Y0078941D01*
X0063453Y0078941D01*
X0064886Y0079535D01*
X0065983Y0080632D01*
X0066577Y0082065D01*
X0066577Y0088817D01*
X0065983Y0090250D01*
X0064886Y0091347D01*
X0063453Y0091941D01*
X0062651Y0091941D01*
X0059925Y0094667D01*
X0042437Y0094667D01*
X0041207Y0093437D01*
X0029396Y0081626D01*
X0029396Y0044453D01*
X0030626Y0043223D01*
X0038500Y0035349D01*
X0174098Y0035349D01*
X0175328Y0036579D01*
X0183320Y0044571D01*
X0183320Y0044696D01*
X0185259Y0044696D01*
X0186020Y0045458D01*
X0186020Y0053535D01*
X0185259Y0054296D01*
X0177182Y0054296D01*
X0176420Y0053535D01*
X0176420Y0045458D01*
X0177182Y0044696D01*
X0177506Y0044696D01*
X0172358Y0039549D01*
X0170424Y0039549D01*
X0172090Y0041215D01*
X0173320Y0042445D01*
X0173320Y0044696D01*
X0175259Y0044696D01*
X0176020Y0045458D01*
X0176020Y0053535D01*
X0175259Y0054296D01*
X0167182Y0054296D01*
X0166420Y0053535D01*
X0166420Y0045458D01*
X0167182Y0044696D01*
X0169120Y0044696D01*
X0169120Y0044185D01*
X0168421Y0043486D01*
X0152353Y0043486D01*
X0153320Y0044453D01*
X0153320Y0044696D01*
X0155259Y0044696D01*
X0156020Y0045458D01*
X0156020Y0053535D01*
X0155259Y0054296D01*
X0147182Y0054296D01*
X0146420Y0053535D01*
X0146420Y0046242D01*
X0146414Y0046242D01*
X0146414Y0053535D01*
X0145727Y0054222D01*
X0147720Y0056215D01*
X0307909Y0056215D01*
X0307774Y0056194D01*
X0307055Y0055960D01*
X0306382Y0055617D01*
X0305771Y0055173D01*
X0305236Y0054639D01*
X0304792Y0054028D01*
X0304449Y0053354D01*
X0304216Y0052636D01*
X0304098Y0051890D01*
X0304098Y0048712D01*
X0308698Y0048712D01*
X0308698Y0048312D01*
X0309098Y0048312D01*
X0309098Y0048712D01*
X0313698Y0048712D01*
X0313698Y0051890D01*
X0313579Y0052636D01*
X0313346Y0053354D01*
X0313003Y0054028D01*
X0312559Y0054639D01*
X0312025Y0055173D01*
X0311413Y0055617D01*
X0310740Y0055960D01*
X0310022Y0056194D01*
X0309887Y0056215D01*
X0325902Y0056215D01*
X0326798Y0055319D01*
X0326798Y0055296D01*
X0326462Y0055157D01*
X0325252Y0053948D01*
X0324598Y0052367D01*
X0324598Y0044656D01*
X0325252Y0043076D01*
X0326462Y0041866D01*
X0328042Y0041212D01*
X0329753Y0041212D01*
X0331333Y0041866D01*
X0332543Y0043076D01*
X0333198Y0044656D01*
X0333198Y0052367D01*
X0332543Y0053948D01*
X0331333Y0055157D01*
X0330998Y0055296D01*
X0330998Y0057059D01*
X0328872Y0059185D01*
X0328203Y0059853D01*
X0330058Y0060622D01*
X0331521Y0062084D01*
X0332313Y0063996D01*
X0332313Y0066064D01*
X0331521Y0067975D01*
X0330058Y0069438D01*
X0328147Y0070230D01*
X0318278Y0070230D01*
X0316367Y0069438D01*
X0314904Y0067975D01*
X0314113Y0066064D01*
X0314113Y0063996D01*
X0314904Y0062084D01*
X0316367Y0060622D01*
X0316866Y0060415D01*
X0281559Y0060415D01*
X0282058Y0060622D01*
X0283521Y0062084D01*
X0284313Y0063996D01*
X0284313Y0066064D01*
X0283521Y0067975D01*
X0282607Y0068889D01*
X0292952Y0079233D01*
X0293655Y0079937D01*
X0294035Y0080855D01*
X0294035Y0095794D01*
X0295617Y0095794D01*
X0296379Y0096556D01*
X0296379Y0100255D01*
X0296706Y0099928D01*
X0301720Y0099928D01*
X0302481Y0100690D01*
X0302481Y0102722D02*
X0348585Y0102722D01*
X0348281Y0104320D02*
X0302481Y0104320D01*
X0302481Y0105919D02*
X0348281Y0105919D01*
X0348281Y0107517D02*
X0329324Y0107517D01*
X0331353Y0109116D02*
X0348281Y0109116D01*
X0348281Y0110715D02*
X0332113Y0110715D01*
X0332313Y0112313D02*
X0348281Y0112313D01*
X0348589Y0113912D02*
X0332044Y0113912D01*
X0317502Y0117109D02*
X0305505Y0117109D01*
X0305616Y0117079D02*
X0305158Y0117202D01*
X0303137Y0117202D01*
X0303137Y0112830D01*
X0302768Y0112830D01*
X0302768Y0112461D01*
X0299184Y0112461D01*
X0299184Y0109653D01*
X0299307Y0109195D01*
X0299544Y0108785D01*
X0299879Y0108449D01*
X0300289Y0108212D01*
X0300747Y0108090D01*
X0302768Y0108090D01*
X0302768Y0112461D01*
X0303137Y0112461D01*
X0303137Y0108090D01*
X0305158Y0108090D01*
X0305616Y0108212D01*
X0306026Y0108449D01*
X0306362Y0108785D01*
X0306599Y0109195D01*
X0306721Y0109653D01*
X0306721Y0112461D01*
X0303137Y0112461D01*
X0303137Y0112830D01*
X0306721Y0112830D01*
X0306721Y0115639D01*
X0306599Y0116096D01*
X0306362Y0116507D01*
X0306026Y0116842D01*
X0305616Y0117079D01*
X0306721Y0115510D02*
X0315239Y0115510D01*
X0314381Y0113912D02*
X0306721Y0113912D01*
X0306721Y0112313D02*
X0314113Y0112313D01*
X0314312Y0110715D02*
X0306721Y0110715D01*
X0306553Y0109116D02*
X0315073Y0109116D01*
X0317101Y0107517D02*
X0302242Y0107517D01*
X0302768Y0109116D02*
X0303137Y0109116D01*
X0303137Y0110715D02*
X0302768Y0110715D01*
X0302768Y0112313D02*
X0303137Y0112313D01*
X0302768Y0112830D02*
X0299184Y0112830D01*
X0299184Y0115639D01*
X0299307Y0116096D01*
X0299544Y0116507D01*
X0299879Y0116842D01*
X0300289Y0117079D01*
X0300747Y0117202D01*
X0302768Y0117202D01*
X0302768Y0112830D01*
X0302768Y0113912D02*
X0303137Y0113912D01*
X0303137Y0115510D02*
X0302768Y0115510D01*
X0302768Y0117109D02*
X0303137Y0117109D01*
X0300400Y0117109D02*
X0294545Y0117109D01*
X0298741Y0115510D02*
X0299184Y0115510D01*
X0299184Y0113912D02*
X0298741Y0113912D01*
X0298741Y0112313D02*
X0299184Y0112313D01*
X0299184Y0110715D02*
X0298741Y0110715D01*
X0298506Y0109116D02*
X0299353Y0109116D01*
X0296183Y0107517D02*
X0281324Y0107517D01*
X0282058Y0107822D02*
X0283521Y0109284D01*
X0284313Y0111196D01*
X0284313Y0113264D01*
X0283521Y0115175D01*
X0282058Y0116638D01*
X0280147Y0117430D01*
X0270278Y0117430D01*
X0268367Y0116638D01*
X0266904Y0115175D01*
X0266113Y0113264D01*
X0266113Y0111196D01*
X0266904Y0109284D01*
X0268367Y0107822D01*
X0270278Y0107030D01*
X0272713Y0107030D01*
X0272713Y0105087D01*
X0271312Y0105087D01*
X0270550Y0104326D01*
X0270550Y0096556D01*
X0271312Y0095794D01*
X0279475Y0095794D01*
X0280237Y0096556D01*
X0280237Y0104326D01*
X0279475Y0105087D01*
X0277713Y0105087D01*
X0277713Y0107030D01*
X0280147Y0107030D01*
X0282058Y0107822D01*
X0283353Y0109116D02*
X0292439Y0109116D01*
X0292204Y0110715D02*
X0284113Y0110715D01*
X0284313Y0112313D02*
X0292204Y0112313D01*
X0290671Y0113912D02*
X0284044Y0113912D01*
X0283186Y0115510D02*
X0289073Y0115510D01*
X0287474Y0117109D02*
X0280923Y0117109D01*
X0284902Y0120306D02*
X0137008Y0120306D01*
X0138606Y0121904D02*
X0284902Y0121904D01*
X0284902Y0123503D02*
X0140205Y0123503D01*
X0141803Y0125101D02*
X0284902Y0125101D01*
X0284605Y0126700D02*
X0143402Y0126700D01*
X0145000Y0128298D02*
X0284320Y0128298D01*
X0285875Y0118707D02*
X0135409Y0118707D01*
X0133811Y0117109D02*
X0269502Y0117109D01*
X0267239Y0115510D02*
X0132212Y0115510D01*
X0132021Y0113912D02*
X0266381Y0113912D01*
X0266113Y0112313D02*
X0132021Y0112313D01*
X0132021Y0110715D02*
X0266312Y0110715D01*
X0267073Y0109116D02*
X0132021Y0109116D01*
X0132021Y0107517D02*
X0269101Y0107517D01*
X0270550Y0104320D02*
X0132021Y0104320D01*
X0132021Y0102722D02*
X0270550Y0102722D01*
X0270550Y0101123D02*
X0132021Y0101123D01*
X0132021Y0099525D02*
X0270550Y0099525D01*
X0270550Y0097926D02*
X0132021Y0097926D01*
X0132021Y0096328D02*
X0270778Y0096328D01*
X0273555Y0095255D02*
X0275990Y0094246D01*
X0277854Y0092383D01*
X0278863Y0089948D01*
X0278863Y0087312D01*
X0277854Y0084877D01*
X0275990Y0083014D01*
X0273555Y0082005D01*
X0260270Y0082005D01*
X0257835Y0083014D01*
X0255971Y0084877D01*
X0254963Y0087312D01*
X0254963Y0089948D01*
X0255971Y0092383D01*
X0257835Y0094246D01*
X0260270Y0095255D01*
X0273555Y0095255D01*
X0274824Y0094729D02*
X0289035Y0094729D01*
X0289035Y0093131D02*
X0277106Y0093131D01*
X0278206Y0091532D02*
X0289035Y0091532D01*
X0289035Y0089934D02*
X0278863Y0089934D01*
X0278863Y0088335D02*
X0289035Y0088335D01*
X0289035Y0086737D02*
X0278624Y0086737D01*
X0277962Y0085138D02*
X0289035Y0085138D01*
X0289035Y0083540D02*
X0276517Y0083540D01*
X0283793Y0077146D02*
X0132021Y0077146D01*
X0132021Y0078744D02*
X0285391Y0078744D01*
X0286990Y0080343D02*
X0132021Y0080343D01*
X0132021Y0081941D02*
X0288588Y0081941D01*
X0292463Y0078744D02*
X0371916Y0078744D01*
X0371916Y0077146D02*
X0290864Y0077146D01*
X0289265Y0075547D02*
X0371916Y0075547D01*
X0371916Y0073949D02*
X0357883Y0073949D01*
X0357758Y0074074D02*
X0355534Y0074995D01*
X0353127Y0074995D01*
X0350904Y0074074D01*
X0349202Y0072372D01*
X0348281Y0070148D01*
X0348281Y0067741D01*
X0349202Y0065518D01*
X0350904Y0063816D01*
X0353127Y0062895D01*
X0355534Y0062895D01*
X0357758Y0063816D01*
X0359460Y0065518D01*
X0360381Y0067741D01*
X0360381Y0070148D01*
X0359460Y0072372D01*
X0357758Y0074074D01*
X0359469Y0072350D02*
X0371916Y0072350D01*
X0371916Y0070752D02*
X0360131Y0070752D01*
X0360381Y0069153D02*
X0371916Y0069153D01*
X0371916Y0067555D02*
X0360303Y0067555D01*
X0359641Y0065956D02*
X0371916Y0065956D01*
X0371916Y0064358D02*
X0358300Y0064358D01*
X0350362Y0064358D02*
X0332313Y0064358D01*
X0332313Y0065956D02*
X0349020Y0065956D01*
X0348358Y0067555D02*
X0331695Y0067555D01*
X0330343Y0069153D02*
X0348281Y0069153D01*
X0348531Y0070752D02*
X0284470Y0070752D01*
X0286068Y0072350D02*
X0349193Y0072350D01*
X0350779Y0073949D02*
X0287667Y0073949D01*
X0282194Y0075547D02*
X0132021Y0075547D01*
X0132021Y0073949D02*
X0280596Y0073949D01*
X0278997Y0072350D02*
X0132021Y0072350D01*
X0132193Y0070752D02*
X0277399Y0070752D01*
X0282871Y0069153D02*
X0316082Y0069153D01*
X0314730Y0067555D02*
X0283695Y0067555D01*
X0284313Y0065956D02*
X0314113Y0065956D01*
X0314113Y0064358D02*
X0284313Y0064358D01*
X0283800Y0062759D02*
X0314625Y0062759D01*
X0315828Y0061161D02*
X0282597Y0061161D01*
X0267828Y0061161D02*
X0123754Y0061161D01*
X0123754Y0062759D02*
X0266625Y0062759D01*
X0266113Y0064358D02*
X0123754Y0064358D01*
X0123754Y0065956D02*
X0266113Y0065956D01*
X0266730Y0067555D02*
X0132467Y0067555D01*
X0132805Y0069153D02*
X0268082Y0069153D01*
X0257309Y0083540D02*
X0132021Y0083540D01*
X0132021Y0085138D02*
X0255863Y0085138D01*
X0255201Y0086737D02*
X0132021Y0086737D01*
X0132021Y0088335D02*
X0254963Y0088335D01*
X0254963Y0089934D02*
X0132021Y0089934D01*
X0132021Y0091532D02*
X0255619Y0091532D01*
X0256719Y0093131D02*
X0132021Y0093131D01*
X0132021Y0094729D02*
X0259001Y0094729D01*
X0272713Y0105919D02*
X0132021Y0105919D01*
X0127821Y0105919D02*
X0123754Y0105919D01*
X0123754Y0107517D02*
X0127821Y0107517D01*
X0127821Y0109116D02*
X0123754Y0109116D01*
X0123754Y0110715D02*
X0127821Y0110715D01*
X0127821Y0112313D02*
X0123754Y0112313D01*
X0123754Y0113912D02*
X0127821Y0113912D01*
X0127821Y0115510D02*
X0123754Y0115510D01*
X0123754Y0117109D02*
X0127871Y0117109D01*
X0129051Y0118289D02*
X0129051Y0118289D01*
X0129470Y0118707D02*
X0123754Y0118707D01*
X0124409Y0120306D02*
X0131068Y0120306D01*
X0132667Y0121904D02*
X0126008Y0121904D01*
X0127606Y0123503D02*
X0134265Y0123503D01*
X0135864Y0125101D02*
X0129205Y0125101D01*
X0130803Y0126700D02*
X0137462Y0126700D01*
X0139061Y0128298D02*
X0132402Y0128298D01*
X0134000Y0129897D02*
X0140659Y0129897D01*
X0142258Y0131495D02*
X0135599Y0131495D01*
X0137197Y0133094D02*
X0143856Y0133094D01*
X0145455Y0134692D02*
X0138796Y0134692D01*
X0140394Y0136291D02*
X0147053Y0136291D01*
X0148652Y0137889D02*
X0141993Y0137889D01*
X0143591Y0139488D02*
X0150250Y0139488D01*
X0151849Y0141086D02*
X0145190Y0141086D01*
X0146788Y0142685D02*
X0200691Y0142685D01*
X0202290Y0144283D02*
X0148387Y0144283D01*
X0148819Y0147685D02*
X0121654Y0120520D01*
X0121654Y0049929D01*
X0121220Y0049496D01*
X0116420Y0049971D02*
X0116020Y0049971D01*
X0116020Y0048373D02*
X0116420Y0048373D01*
X0116420Y0046774D02*
X0116020Y0046774D01*
X0116020Y0051570D02*
X0116420Y0051570D01*
X0116420Y0053168D02*
X0116020Y0053168D01*
X0119554Y0054767D02*
X0065067Y0054767D01*
X0061221Y0054767D02*
X0061220Y0054767D01*
X0061220Y0053168D02*
X0061221Y0053168D01*
X0061220Y0051570D02*
X0061221Y0051570D01*
X0061220Y0049971D02*
X0061221Y0049971D01*
X0057374Y0054767D02*
X0047847Y0054767D01*
X0047244Y0057134D02*
X0043307Y0053197D01*
X0043307Y0047685D01*
X0046850Y0044142D01*
X0150039Y0044142D01*
X0151220Y0045323D01*
X0151220Y0049496D01*
X0146420Y0049971D02*
X0146414Y0049971D01*
X0146414Y0048373D02*
X0146420Y0048373D01*
X0146414Y0046774D02*
X0146420Y0046774D01*
X0141732Y0049614D02*
X0141614Y0049496D01*
X0141732Y0049614D02*
X0141732Y0053197D01*
X0146850Y0058315D01*
X0326772Y0058315D01*
X0328898Y0056189D01*
X0328898Y0048512D01*
X0333198Y0048373D02*
X0371916Y0048373D01*
X0371916Y0049971D02*
X0333198Y0049971D01*
X0333198Y0051570D02*
X0371916Y0051570D01*
X0371916Y0053168D02*
X0332866Y0053168D01*
X0331724Y0054767D02*
X0371916Y0054767D01*
X0371916Y0056365D02*
X0330998Y0056365D01*
X0330093Y0057964D02*
X0371916Y0057964D01*
X0371916Y0059562D02*
X0328494Y0059562D01*
X0330597Y0061161D02*
X0371916Y0061161D01*
X0371916Y0062759D02*
X0331800Y0062759D01*
X0326071Y0054767D02*
X0321724Y0054767D01*
X0321333Y0055157D02*
X0319753Y0055812D01*
X0318042Y0055812D01*
X0316462Y0055157D01*
X0315252Y0053948D01*
X0314598Y0052367D01*
X0314598Y0044656D01*
X0315252Y0043076D01*
X0316462Y0041866D01*
X0318042Y0041212D01*
X0319753Y0041212D01*
X0321333Y0041866D01*
X0322543Y0043076D01*
X0323198Y0044656D01*
X0323198Y0052367D01*
X0322543Y0053948D01*
X0321333Y0055157D01*
X0322866Y0053168D02*
X0324929Y0053168D01*
X0324598Y0051570D02*
X0323198Y0051570D01*
X0323198Y0049971D02*
X0324598Y0049971D01*
X0324598Y0048373D02*
X0323198Y0048373D01*
X0323198Y0046774D02*
X0324598Y0046774D01*
X0324598Y0045176D02*
X0323198Y0045176D01*
X0322751Y0043577D02*
X0325045Y0043577D01*
X0326350Y0041979D02*
X0321445Y0041979D01*
X0316350Y0041979D02*
X0312153Y0041979D01*
X0312025Y0041851D02*
X0312559Y0042385D01*
X0313003Y0042996D01*
X0313346Y0043669D01*
X0313579Y0044388D01*
X0313698Y0045134D01*
X0313698Y0048312D01*
X0309098Y0048312D01*
X0309098Y0040712D01*
X0309275Y0040712D01*
X0310022Y0040830D01*
X0310740Y0041063D01*
X0311413Y0041406D01*
X0312025Y0041851D01*
X0313299Y0043577D02*
X0315045Y0043577D01*
X0314598Y0045176D02*
X0313698Y0045176D01*
X0313698Y0046774D02*
X0314598Y0046774D01*
X0314598Y0048373D02*
X0309098Y0048373D01*
X0308698Y0048373D02*
X0200707Y0048373D01*
X0199109Y0049971D02*
X0304098Y0049971D01*
X0304098Y0051570D02*
X0197510Y0051570D01*
X0197484Y0051596D02*
X0196020Y0051596D01*
X0196020Y0053535D01*
X0195259Y0054296D01*
X0187182Y0054296D01*
X0186420Y0053535D01*
X0186420Y0045458D01*
X0187182Y0044696D01*
X0195259Y0044696D01*
X0196020Y0045458D01*
X0196020Y0047120D01*
X0207792Y0035349D01*
X0270784Y0035349D01*
X0277415Y0028718D01*
X0277415Y0020349D01*
X0278176Y0019588D01*
X0288753Y0019588D01*
X0289515Y0020349D01*
X0289515Y0030926D01*
X0288753Y0031688D01*
X0280384Y0031688D01*
X0273754Y0038319D01*
X0272523Y0039549D01*
X0209531Y0039549D01*
X0198714Y0050366D01*
X0197484Y0051596D01*
X0196020Y0053168D02*
X0304389Y0053168D01*
X0305364Y0054767D02*
X0146272Y0054767D01*
X0146414Y0053168D02*
X0146420Y0053168D01*
X0146414Y0051570D02*
X0146420Y0051570D01*
X0141931Y0056365D02*
X0123754Y0056365D01*
X0123754Y0054767D02*
X0127374Y0054767D01*
X0131220Y0054767D02*
X0131221Y0054767D01*
X0131220Y0053168D02*
X0131221Y0053168D01*
X0131220Y0051570D02*
X0131221Y0051570D01*
X0131220Y0049971D02*
X0131221Y0049971D01*
X0136520Y0049971D02*
X0136814Y0049971D01*
X0136814Y0048373D02*
X0136520Y0048373D01*
X0136520Y0046774D02*
X0136814Y0046774D01*
X0136814Y0051570D02*
X0136520Y0051570D01*
X0136520Y0053168D02*
X0136814Y0053168D01*
X0135067Y0054767D02*
X0140332Y0054767D01*
X0143529Y0057964D02*
X0123754Y0057964D01*
X0123754Y0059562D02*
X0145128Y0059562D01*
X0156020Y0053168D02*
X0156420Y0053168D01*
X0156420Y0053535D02*
X0157182Y0054296D01*
X0165259Y0054296D01*
X0166020Y0053535D01*
X0166020Y0045458D01*
X0165259Y0044696D01*
X0157182Y0044696D01*
X0156420Y0045458D01*
X0156420Y0053535D01*
X0156420Y0051570D02*
X0156020Y0051570D01*
X0156020Y0049971D02*
X0156420Y0049971D01*
X0156420Y0048373D02*
X0156020Y0048373D01*
X0156020Y0046774D02*
X0156420Y0046774D01*
X0156702Y0045176D02*
X0155738Y0045176D01*
X0152445Y0043577D02*
X0168513Y0043577D01*
X0169291Y0041386D02*
X0171220Y0043315D01*
X0171220Y0049496D01*
X0176020Y0049971D02*
X0176420Y0049971D01*
X0176420Y0048373D02*
X0176020Y0048373D01*
X0176020Y0046774D02*
X0176420Y0046774D01*
X0176702Y0045176D02*
X0175738Y0045176D01*
X0176387Y0043577D02*
X0173320Y0043577D01*
X0172854Y0041979D02*
X0174788Y0041979D01*
X0173190Y0040380D02*
X0171255Y0040380D01*
X0169291Y0041386D02*
X0043307Y0041386D01*
X0035433Y0049260D01*
X0035433Y0076819D01*
X0044055Y0085441D01*
X0052677Y0085441D01*
X0056577Y0085138D02*
X0058777Y0085138D01*
X0058777Y0083540D02*
X0056577Y0083540D01*
X0056526Y0081941D02*
X0058828Y0081941D01*
X0059660Y0080343D02*
X0055694Y0080343D01*
X0049660Y0080343D02*
X0041927Y0080343D01*
X0043525Y0081941D02*
X0048828Y0081941D01*
X0040328Y0078744D02*
X0065885Y0078744D01*
X0065694Y0080343D02*
X0067483Y0080343D01*
X0066526Y0081941D02*
X0068828Y0081941D01*
X0068777Y0083540D02*
X0066577Y0083540D01*
X0066577Y0085138D02*
X0068777Y0085138D01*
X0068777Y0086737D02*
X0066577Y0086737D01*
X0066577Y0088335D02*
X0068777Y0088335D01*
X0069240Y0089934D02*
X0066114Y0089934D01*
X0064439Y0091532D02*
X0070341Y0091532D01*
X0070341Y0093131D02*
X0061461Y0093131D01*
X0059055Y0092567D02*
X0062992Y0088630D01*
X0062992Y0085756D01*
X0062677Y0085441D01*
X0058777Y0086737D02*
X0056577Y0086737D01*
X0056577Y0088335D02*
X0058777Y0088335D01*
X0058718Y0089934D02*
X0056114Y0089934D01*
X0059055Y0092567D02*
X0043307Y0092567D01*
X0031496Y0080756D01*
X0031496Y0045323D01*
X0039370Y0037449D01*
X0173228Y0037449D01*
X0181220Y0045441D01*
X0181220Y0049496D01*
X0186020Y0049971D02*
X0186420Y0049971D01*
X0186420Y0048373D02*
X0186020Y0048373D01*
X0186020Y0046774D02*
X0186420Y0046774D01*
X0186702Y0045176D02*
X0185738Y0045176D01*
X0182326Y0043577D02*
X0199563Y0043577D01*
X0197965Y0045176D02*
X0195738Y0045176D01*
X0196020Y0046774D02*
X0196366Y0046774D01*
X0196614Y0049496D02*
X0191220Y0049496D01*
X0186420Y0051570D02*
X0186020Y0051570D01*
X0186020Y0053168D02*
X0186420Y0053168D01*
X0196614Y0049496D02*
X0208661Y0037449D01*
X0271654Y0037449D01*
X0283465Y0025638D01*
X0277415Y0025993D02*
X0269830Y0025993D01*
X0269830Y0026841D02*
X0268908Y0029065D01*
X0267207Y0030767D01*
X0264983Y0031688D01*
X0262576Y0031688D01*
X0260352Y0030767D01*
X0258651Y0029065D01*
X0257730Y0026841D01*
X0257730Y0024434D01*
X0258651Y0022211D01*
X0260352Y0020509D01*
X0262576Y0019588D01*
X0264983Y0019588D01*
X0267207Y0020509D01*
X0268908Y0022211D01*
X0269830Y0024434D01*
X0269830Y0026841D01*
X0269519Y0027592D02*
X0277415Y0027592D01*
X0276942Y0029190D02*
X0268783Y0029190D01*
X0267153Y0030789D02*
X0275344Y0030789D01*
X0273745Y0032387D02*
X0036368Y0032387D01*
X0037684Y0030789D02*
X0051072Y0030789D01*
X0050790Y0030573D02*
X0050183Y0029966D01*
X0049660Y0029285D01*
X0049231Y0028541D01*
X0048902Y0027748D01*
X0048680Y0026918D01*
X0048575Y0026117D01*
X0054638Y0026117D01*
X0054638Y0025158D01*
X0048575Y0025158D01*
X0048680Y0024357D01*
X0048902Y0023528D01*
X0049231Y0022735D01*
X0049660Y0021991D01*
X0050183Y0021310D01*
X0050790Y0020703D01*
X0051471Y0020180D01*
X0052215Y0019751D01*
X0053008Y0019422D01*
X0053838Y0019200D01*
X0054639Y0019094D01*
X0054639Y0025158D01*
X0055598Y0025158D01*
X0055598Y0026117D01*
X0061661Y0026117D01*
X0061556Y0026918D01*
X0061334Y0027748D01*
X0061005Y0028541D01*
X0060576Y0029285D01*
X0060053Y0029966D01*
X0059446Y0030573D01*
X0058765Y0031096D01*
X0058021Y0031525D01*
X0057228Y0031853D01*
X0056399Y0032076D01*
X0055598Y0032181D01*
X0055598Y0026117D01*
X0054639Y0026117D01*
X0054639Y0032181D01*
X0053838Y0032076D01*
X0053008Y0031853D01*
X0052215Y0031525D01*
X0051471Y0031096D01*
X0050790Y0030573D01*
X0049606Y0029190D02*
X0038454Y0029190D01*
X0039223Y0027592D02*
X0048861Y0027592D01*
X0048675Y0024395D02*
X0040016Y0024395D01*
X0039775Y0025993D02*
X0054638Y0025993D01*
X0055598Y0025993D02*
X0068753Y0025993D01*
X0068769Y0024395D02*
X0061561Y0024395D01*
X0061556Y0024357D02*
X0061661Y0025158D01*
X0055598Y0025158D01*
X0055598Y0019094D01*
X0056399Y0019200D01*
X0057228Y0019422D01*
X0058021Y0019751D01*
X0058765Y0020180D01*
X0059446Y0020703D01*
X0060053Y0021310D01*
X0060576Y0021991D01*
X0061005Y0022735D01*
X0061334Y0023528D01*
X0061556Y0024357D01*
X0061031Y0022796D02*
X0069432Y0022796D01*
X0070687Y0021198D02*
X0059941Y0021198D01*
X0057656Y0019599D02*
X0073572Y0019599D01*
X0069064Y0027592D02*
X0061376Y0027592D01*
X0060630Y0029190D02*
X0069800Y0029190D01*
X0071430Y0030789D02*
X0059165Y0030789D01*
X0055598Y0030789D02*
X0054639Y0030789D01*
X0054639Y0029190D02*
X0055598Y0029190D01*
X0055598Y0027592D02*
X0054639Y0027592D01*
X0054639Y0024395D02*
X0055598Y0024395D01*
X0055598Y0022796D02*
X0054639Y0022796D01*
X0054639Y0021198D02*
X0055598Y0021198D01*
X0055598Y0019599D02*
X0054639Y0019599D01*
X0052580Y0019599D02*
X0040105Y0019599D01*
X0040346Y0021198D02*
X0050295Y0021198D01*
X0049205Y0022796D02*
X0040257Y0022796D01*
X0039676Y0026653D02*
X0039676Y0026653D01*
X0034885Y0033986D02*
X0272147Y0033986D01*
X0274889Y0037183D02*
X0343221Y0037183D01*
X0341623Y0035584D02*
X0276488Y0035584D01*
X0278086Y0033986D02*
X0340024Y0033986D01*
X0338425Y0032387D02*
X0279685Y0032387D01*
X0273291Y0038782D02*
X0344820Y0038782D01*
X0346418Y0040380D02*
X0208700Y0040380D01*
X0207102Y0041979D02*
X0305643Y0041979D01*
X0305771Y0041851D02*
X0306382Y0041406D01*
X0307055Y0041063D01*
X0307774Y0040830D01*
X0308520Y0040712D01*
X0308698Y0040712D01*
X0308698Y0048312D01*
X0304098Y0048312D01*
X0304098Y0045134D01*
X0304216Y0044388D01*
X0304449Y0043669D01*
X0304792Y0042996D01*
X0305236Y0042385D01*
X0305771Y0041851D01*
X0304496Y0043577D02*
X0205503Y0043577D01*
X0203905Y0045176D02*
X0304098Y0045176D01*
X0304098Y0046774D02*
X0202306Y0046774D01*
X0201162Y0041979D02*
X0180728Y0041979D01*
X0179129Y0040380D02*
X0202760Y0040380D01*
X0204359Y0038782D02*
X0177531Y0038782D01*
X0175932Y0037183D02*
X0205957Y0037183D01*
X0207556Y0035584D02*
X0174334Y0035584D01*
X0177456Y0031096D02*
X0176774Y0030573D01*
X0176167Y0029966D01*
X0175645Y0029285D01*
X0175215Y0028541D01*
X0174887Y0027748D01*
X0174664Y0026918D01*
X0174559Y0026117D01*
X0180623Y0026117D01*
X0180623Y0025158D01*
X0181582Y0025158D01*
X0181582Y0019094D01*
X0182383Y0019200D01*
X0183212Y0019422D01*
X0184006Y0019751D01*
X0184749Y0020180D01*
X0185430Y0020703D01*
X0186037Y0021310D01*
X0186560Y0021991D01*
X0186989Y0022735D01*
X0187318Y0023528D01*
X0187540Y0024357D01*
X0187646Y0025158D01*
X0181582Y0025158D01*
X0181582Y0026117D01*
X0187646Y0026117D01*
X0187540Y0026918D01*
X0187318Y0027748D01*
X0186989Y0028541D01*
X0186560Y0029285D01*
X0186037Y0029966D01*
X0185430Y0030573D01*
X0184749Y0031096D01*
X0184006Y0031525D01*
X0183212Y0031853D01*
X0182383Y0032076D01*
X0181582Y0032181D01*
X0181582Y0026117D01*
X0180623Y0026117D01*
X0180623Y0032181D01*
X0179822Y0032076D01*
X0178992Y0031853D01*
X0178199Y0031525D01*
X0177456Y0031096D01*
X0177056Y0030789D02*
X0163530Y0030789D01*
X0163530Y0030926D02*
X0162769Y0031688D01*
X0152192Y0031688D01*
X0151430Y0030926D01*
X0151430Y0020349D01*
X0152192Y0019588D01*
X0162769Y0019588D01*
X0163530Y0020349D01*
X0163530Y0030926D01*
X0163530Y0029190D02*
X0175590Y0029190D01*
X0174845Y0027592D02*
X0163530Y0027592D01*
X0163530Y0025993D02*
X0180623Y0025993D01*
X0180623Y0025158D02*
X0174559Y0025158D01*
X0174664Y0024357D01*
X0174887Y0023528D01*
X0175215Y0022735D01*
X0175645Y0021991D01*
X0176167Y0021310D01*
X0176774Y0020703D01*
X0177456Y0020180D01*
X0178199Y0019751D01*
X0178992Y0019422D01*
X0179822Y0019200D01*
X0180623Y0019094D01*
X0180623Y0025158D01*
X0180623Y0024395D02*
X0181582Y0024395D01*
X0181582Y0025993D02*
X0194737Y0025993D01*
X0194737Y0026841D02*
X0194737Y0024434D01*
X0195658Y0022211D01*
X0197360Y0020509D01*
X0199584Y0019588D01*
X0201991Y0019588D01*
X0204214Y0020509D01*
X0205916Y0022211D01*
X0206837Y0024434D01*
X0206837Y0026841D01*
X0205916Y0029065D01*
X0204214Y0030767D01*
X0201991Y0031688D01*
X0199584Y0031688D01*
X0197360Y0030767D01*
X0195658Y0029065D01*
X0194737Y0026841D01*
X0195048Y0027592D02*
X0187360Y0027592D01*
X0186615Y0029190D02*
X0195784Y0029190D01*
X0197414Y0030789D02*
X0185149Y0030789D01*
X0181582Y0030789D02*
X0180623Y0030789D01*
X0180623Y0029190D02*
X0181582Y0029190D01*
X0181582Y0027592D02*
X0180623Y0027592D01*
X0180623Y0022796D02*
X0181582Y0022796D01*
X0181582Y0021198D02*
X0180623Y0021198D01*
X0180623Y0019599D02*
X0181582Y0019599D01*
X0183640Y0019599D02*
X0199556Y0019599D01*
X0202019Y0019599D02*
X0215172Y0019599D01*
X0215184Y0019588D02*
X0225761Y0019588D01*
X0226522Y0020349D01*
X0226522Y0030926D01*
X0225761Y0031688D01*
X0215184Y0031688D01*
X0214422Y0030926D01*
X0214422Y0020349D01*
X0215184Y0019588D01*
X0214422Y0021198D02*
X0204903Y0021198D01*
X0206159Y0022796D02*
X0214422Y0022796D01*
X0214422Y0024395D02*
X0206821Y0024395D01*
X0206837Y0025993D02*
X0214422Y0025993D01*
X0214422Y0027592D02*
X0206526Y0027592D01*
X0205791Y0029190D02*
X0214422Y0029190D01*
X0214422Y0030789D02*
X0204161Y0030789D01*
X0194754Y0024395D02*
X0187545Y0024395D01*
X0187015Y0022796D02*
X0195416Y0022796D01*
X0196671Y0021198D02*
X0185926Y0021198D01*
X0178564Y0019599D02*
X0162780Y0019599D01*
X0163530Y0021198D02*
X0176279Y0021198D01*
X0175190Y0022796D02*
X0163530Y0022796D01*
X0163530Y0024395D02*
X0174659Y0024395D01*
X0152180Y0019599D02*
X0139027Y0019599D01*
X0138999Y0019588D02*
X0141222Y0020509D01*
X0142924Y0022211D01*
X0143845Y0024434D01*
X0143845Y0026841D01*
X0142924Y0029065D01*
X0141222Y0030767D01*
X0138999Y0031688D01*
X0136592Y0031688D01*
X0134368Y0030767D01*
X0132666Y0029065D01*
X0131745Y0026841D01*
X0131745Y0024434D01*
X0132666Y0022211D01*
X0134368Y0020509D01*
X0136592Y0019588D01*
X0138999Y0019588D01*
X0136564Y0019599D02*
X0120648Y0019599D01*
X0121013Y0019751D02*
X0121757Y0020180D01*
X0122438Y0020703D01*
X0123045Y0021310D01*
X0123568Y0021991D01*
X0123997Y0022735D01*
X0124326Y0023528D01*
X0124548Y0024357D01*
X0124654Y0025158D01*
X0118590Y0025158D01*
X0118590Y0026117D01*
X0124654Y0026117D01*
X0124548Y0026918D01*
X0124326Y0027748D01*
X0123997Y0028541D01*
X0123568Y0029285D01*
X0123045Y0029966D01*
X0122438Y0030573D01*
X0121757Y0031096D01*
X0121013Y0031525D01*
X0120220Y0031853D01*
X0119391Y0032076D01*
X0118590Y0032181D01*
X0118590Y0026117D01*
X0117631Y0026117D01*
X0117631Y0025158D01*
X0118590Y0025158D01*
X0118590Y0019094D01*
X0119391Y0019200D01*
X0120220Y0019422D01*
X0121013Y0019751D01*
X0122933Y0021198D02*
X0133679Y0021198D01*
X0132424Y0022796D02*
X0124023Y0022796D01*
X0124553Y0024395D02*
X0131762Y0024395D01*
X0131745Y0025993D02*
X0118590Y0025993D01*
X0117631Y0025993D02*
X0100538Y0025993D01*
X0100538Y0024395D02*
X0111667Y0024395D01*
X0111672Y0024357D02*
X0111895Y0023528D01*
X0112223Y0022735D01*
X0112652Y0021991D01*
X0113175Y0021310D01*
X0113782Y0020703D01*
X0114463Y0020180D01*
X0115207Y0019751D01*
X0116000Y0019422D01*
X0116830Y0019200D01*
X0117631Y0019094D01*
X0117631Y0025158D01*
X0111567Y0025158D01*
X0111672Y0024357D01*
X0112198Y0022796D02*
X0100538Y0022796D01*
X0100538Y0021198D02*
X0113287Y0021198D01*
X0115572Y0019599D02*
X0099788Y0019599D01*
X0096588Y0018001D02*
X0336483Y0018001D01*
X0336483Y0019599D02*
X0288765Y0019599D01*
X0289515Y0021198D02*
X0336483Y0021198D01*
X0336483Y0022796D02*
X0289515Y0022796D01*
X0289515Y0024395D02*
X0336483Y0024395D01*
X0336483Y0025993D02*
X0289515Y0025993D01*
X0289515Y0027592D02*
X0336483Y0027592D01*
X0336483Y0029190D02*
X0289515Y0029190D01*
X0289515Y0030789D02*
X0336827Y0030789D01*
X0341168Y0029190D02*
X0343268Y0029190D01*
X0343131Y0028990D02*
X0343131Y0028990D01*
X0341655Y0024205D01*
X0341655Y0019197D01*
X0343131Y0014412D01*
X0343131Y0014412D01*
X0345952Y0010274D01*
X0345952Y0010274D01*
X0345952Y0010274D01*
X0349868Y0007152D01*
X0354529Y0005322D01*
X0354529Y0005322D01*
X0359523Y0004948D01*
X0359523Y0004948D01*
X0364405Y0006062D01*
X0368742Y0008566D01*
X0372149Y0012237D01*
X0374321Y0016749D01*
X0374321Y0016749D01*
X0375068Y0021701D01*
X0374321Y0026653D01*
X0372149Y0031165D01*
X0368742Y0034836D01*
X0364405Y0037339D01*
X0359523Y0038454D01*
X0354529Y0038080D01*
X0349868Y0036250D01*
X0349868Y0036250D01*
X0345952Y0033128D01*
X0345952Y0033128D01*
X0343131Y0028990D01*
X0342700Y0027592D02*
X0340683Y0027592D01*
X0340683Y0025993D02*
X0342207Y0025993D01*
X0341714Y0024395D02*
X0340683Y0024395D01*
X0340683Y0022796D02*
X0341655Y0022796D01*
X0341655Y0021198D02*
X0340683Y0021198D01*
X0340683Y0019599D02*
X0341655Y0019599D01*
X0342024Y0018001D02*
X0340683Y0018001D01*
X0340683Y0016402D02*
X0342517Y0016402D01*
X0343010Y0014804D02*
X0340683Y0014804D01*
X0340683Y0013205D02*
X0343954Y0013205D01*
X0345044Y0011607D02*
X0340683Y0011607D01*
X0340683Y0010008D02*
X0346285Y0010008D01*
X0348290Y0008410D02*
X0340073Y0008410D01*
X0338474Y0006811D02*
X0350735Y0006811D01*
X0349868Y0007152D02*
X0349868Y0007152D01*
X0355987Y0005213D02*
X0336876Y0005213D01*
X0334133Y0008410D02*
X0102875Y0008410D01*
X0101276Y0010008D02*
X0335731Y0010008D01*
X0336483Y0011607D02*
X0099678Y0011607D01*
X0098079Y0013205D02*
X0336483Y0013205D01*
X0336483Y0014804D02*
X0096588Y0014804D01*
X0096588Y0016402D02*
X0336483Y0016402D01*
X0342767Y0030789D02*
X0344358Y0030789D01*
X0344365Y0032387D02*
X0345448Y0032387D01*
X0345964Y0033986D02*
X0347029Y0033986D01*
X0347562Y0035584D02*
X0349033Y0035584D01*
X0349161Y0037183D02*
X0352245Y0037183D01*
X0350759Y0038782D02*
X0376153Y0038782D01*
X0376153Y0040380D02*
X0372043Y0040380D01*
X0373641Y0041979D02*
X0376153Y0041979D01*
X0376153Y0043577D02*
X0375240Y0043577D01*
X0376116Y0045176D02*
X0376153Y0045176D01*
X0376116Y0046774D02*
X0376153Y0046774D01*
X0376116Y0048373D02*
X0376153Y0048373D01*
X0376116Y0049971D02*
X0376153Y0049971D01*
X0376116Y0051570D02*
X0376153Y0051570D01*
X0376116Y0053168D02*
X0376153Y0053168D01*
X0376116Y0054767D02*
X0376153Y0054767D01*
X0376116Y0056365D02*
X0376153Y0056365D01*
X0376116Y0057964D02*
X0376153Y0057964D01*
X0376116Y0059562D02*
X0376153Y0059562D01*
X0376116Y0061161D02*
X0376153Y0061161D01*
X0376116Y0062759D02*
X0376153Y0062759D01*
X0376116Y0064358D02*
X0376153Y0064358D01*
X0376116Y0065956D02*
X0376153Y0065956D01*
X0376116Y0067555D02*
X0376153Y0067555D01*
X0376116Y0069153D02*
X0376153Y0069153D01*
X0376116Y0070752D02*
X0376153Y0070752D01*
X0376116Y0072350D02*
X0376153Y0072350D01*
X0376116Y0073949D02*
X0376153Y0073949D01*
X0376116Y0075547D02*
X0376153Y0075547D01*
X0376116Y0077146D02*
X0376153Y0077146D01*
X0376116Y0078744D02*
X0376153Y0078744D01*
X0376116Y0080343D02*
X0376153Y0080343D01*
X0376116Y0081941D02*
X0376153Y0081941D01*
X0376116Y0083540D02*
X0376153Y0083540D01*
X0376116Y0085138D02*
X0376153Y0085138D01*
X0376116Y0086737D02*
X0376153Y0086737D01*
X0376116Y0088335D02*
X0376153Y0088335D01*
X0376116Y0089934D02*
X0376153Y0089934D01*
X0376116Y0091532D02*
X0376153Y0091532D01*
X0376116Y0093131D02*
X0376153Y0093131D01*
X0376116Y0094729D02*
X0376153Y0094729D01*
X0376116Y0096328D02*
X0376153Y0096328D01*
X0376116Y0097926D02*
X0376153Y0097926D01*
X0376116Y0099525D02*
X0376153Y0099525D01*
X0376116Y0101123D02*
X0376153Y0101123D01*
X0376116Y0102722D02*
X0376153Y0102722D01*
X0376116Y0104320D02*
X0376153Y0104320D01*
X0376116Y0105919D02*
X0376153Y0105919D01*
X0376116Y0107517D02*
X0376153Y0107517D01*
X0376116Y0109116D02*
X0376153Y0109116D01*
X0376116Y0110715D02*
X0376153Y0110715D01*
X0376116Y0112313D02*
X0376153Y0112313D01*
X0376116Y0113912D02*
X0376153Y0113912D01*
X0376116Y0115510D02*
X0376153Y0115510D01*
X0376116Y0117109D02*
X0376153Y0117109D01*
X0376116Y0118707D02*
X0376153Y0118707D01*
X0376116Y0120306D02*
X0376153Y0120306D01*
X0376116Y0121904D02*
X0376153Y0121904D01*
X0376116Y0123503D02*
X0376153Y0123503D01*
X0376116Y0125101D02*
X0376153Y0125101D01*
X0376116Y0126700D02*
X0376153Y0126700D01*
X0376116Y0128298D02*
X0376153Y0128298D01*
X0376116Y0129897D02*
X0376153Y0129897D01*
X0376116Y0131495D02*
X0376153Y0131495D01*
X0376116Y0133094D02*
X0376153Y0133094D01*
X0376116Y0134692D02*
X0376153Y0134692D01*
X0376116Y0136291D02*
X0376153Y0136291D01*
X0376116Y0137889D02*
X0376153Y0137889D01*
X0376116Y0139488D02*
X0376153Y0139488D01*
X0376116Y0141086D02*
X0376153Y0141086D01*
X0376116Y0142685D02*
X0376153Y0142685D01*
X0376116Y0144283D02*
X0376153Y0144283D01*
X0376116Y0145882D02*
X0376153Y0145882D01*
X0376116Y0147480D02*
X0376153Y0147480D01*
X0376116Y0149079D02*
X0376153Y0149079D01*
X0376116Y0150677D02*
X0376153Y0150677D01*
X0376116Y0152276D02*
X0376153Y0152276D01*
X0376116Y0153874D02*
X0376153Y0153874D01*
X0376116Y0155473D02*
X0376153Y0155473D01*
X0376116Y0157071D02*
X0376153Y0157071D01*
X0376116Y0158670D02*
X0376153Y0158670D01*
X0376116Y0160268D02*
X0376153Y0160268D01*
X0376116Y0161867D02*
X0376153Y0161867D01*
X0376116Y0163465D02*
X0376153Y0163465D01*
X0376116Y0165064D02*
X0376153Y0165064D01*
X0376116Y0166662D02*
X0376153Y0166662D01*
X0376116Y0168261D02*
X0376153Y0168261D01*
X0376116Y0169859D02*
X0376153Y0169859D01*
X0376116Y0171458D02*
X0376153Y0171458D01*
X0376116Y0173056D02*
X0376153Y0173056D01*
X0376116Y0174655D02*
X0376153Y0174655D01*
X0376116Y0176253D02*
X0376153Y0176253D01*
X0376116Y0177852D02*
X0376153Y0177852D01*
X0376116Y0179451D02*
X0376153Y0179451D01*
X0376116Y0181049D02*
X0376153Y0181049D01*
X0376116Y0182648D02*
X0376153Y0182648D01*
X0376116Y0184246D02*
X0376153Y0184246D01*
X0376116Y0185845D02*
X0376153Y0185845D01*
X0376116Y0187443D02*
X0376153Y0187443D01*
X0376116Y0189042D02*
X0376153Y0189042D01*
X0376116Y0190640D02*
X0376153Y0190640D01*
X0376116Y0192239D02*
X0376153Y0192239D01*
X0376116Y0193837D02*
X0376153Y0193837D01*
X0376116Y0195436D02*
X0376153Y0195436D01*
X0376116Y0197034D02*
X0376153Y0197034D01*
X0376116Y0198633D02*
X0376153Y0198633D01*
X0376116Y0200231D02*
X0376153Y0200231D01*
X0376116Y0201830D02*
X0376153Y0201830D01*
X0376116Y0203428D02*
X0376153Y0203428D01*
X0376153Y0205027D02*
X0374762Y0205027D01*
X0376153Y0206625D02*
X0373164Y0206625D01*
X0371565Y0208224D02*
X0376153Y0208224D01*
X0376153Y0209822D02*
X0360181Y0209822D01*
X0359523Y0209672D02*
X0364405Y0210787D01*
X0364405Y0210787D01*
X0368742Y0213290D01*
X0368742Y0213290D01*
X0372149Y0216961D01*
X0372149Y0216961D01*
X0374321Y0221473D01*
X0374321Y0221473D01*
X0375068Y0226425D01*
X0374321Y0231377D01*
X0372149Y0235889D01*
X0368742Y0239560D01*
X0364405Y0242064D01*
X0359523Y0243178D01*
X0354529Y0242804D01*
X0349868Y0240974D01*
X0345952Y0237852D01*
X0343131Y0233714D01*
X0341655Y0228929D01*
X0341655Y0223921D01*
X0343131Y0219136D01*
X0345952Y0214998D01*
X0345952Y0214998D01*
X0345952Y0214998D01*
X0349868Y0211876D01*
X0354529Y0210046D01*
X0354529Y0210046D01*
X0359523Y0209672D01*
X0359523Y0209672D01*
X0357521Y0209822D02*
X0147769Y0209822D01*
X0147769Y0208224D02*
X0284681Y0208224D01*
X0284320Y0206625D02*
X0147769Y0206625D01*
X0147769Y0205027D02*
X0284776Y0205027D01*
X0284902Y0203428D02*
X0147769Y0203428D01*
X0147769Y0201830D02*
X0284902Y0201830D01*
X0284902Y0200231D02*
X0147769Y0200231D01*
X0147769Y0198633D02*
X0285037Y0198633D01*
X0286289Y0197034D02*
X0147769Y0197034D01*
X0147769Y0195436D02*
X0268505Y0195436D01*
X0266872Y0193837D02*
X0147769Y0193837D01*
X0147769Y0192239D02*
X0266210Y0192239D01*
X0266113Y0190640D02*
X0147769Y0190640D01*
X0147769Y0189042D02*
X0266483Y0189042D01*
X0267486Y0187443D02*
X0147769Y0187443D01*
X0147769Y0185845D02*
X0270098Y0185845D01*
X0272713Y0184246D02*
X0147769Y0184246D01*
X0147769Y0182648D02*
X0229605Y0182648D01*
X0229693Y0182692D02*
X0229020Y0182349D01*
X0228408Y0181905D01*
X0227874Y0181371D01*
X0227430Y0180760D01*
X0227087Y0180087D01*
X0226854Y0179368D01*
X0226735Y0178622D01*
X0226735Y0175444D01*
X0231335Y0175444D01*
X0231335Y0175044D01*
X0226735Y0175044D01*
X0226735Y0171866D01*
X0226854Y0171120D01*
X0227087Y0170402D01*
X0227430Y0169728D01*
X0227874Y0169117D01*
X0228408Y0168583D01*
X0229020Y0168139D01*
X0229693Y0167796D01*
X0230411Y0167562D01*
X0231158Y0167444D01*
X0231335Y0167444D01*
X0231335Y0175044D01*
X0231735Y0175044D01*
X0231735Y0167444D01*
X0231913Y0167444D01*
X0232659Y0167562D01*
X0233378Y0167796D01*
X0234051Y0168139D01*
X0234662Y0168583D01*
X0235197Y0169117D01*
X0235641Y0169728D01*
X0235984Y0170402D01*
X0236217Y0171120D01*
X0236335Y0171866D01*
X0236335Y0175044D01*
X0231736Y0175044D01*
X0231736Y0175444D01*
X0236335Y0175444D01*
X0236335Y0178622D01*
X0236217Y0179368D01*
X0235984Y0180087D01*
X0235641Y0180760D01*
X0235197Y0181371D01*
X0234662Y0181905D01*
X0234051Y0182349D01*
X0233378Y0182692D01*
X0232659Y0182926D01*
X0231913Y0183044D01*
X0231735Y0183044D01*
X0231735Y0175444D01*
X0231335Y0175444D01*
X0231335Y0183044D01*
X0231158Y0183044D01*
X0230411Y0182926D01*
X0229693Y0182692D01*
X0231335Y0182648D02*
X0231735Y0182648D01*
X0231735Y0181049D02*
X0231335Y0181049D01*
X0231335Y0179451D02*
X0231735Y0179451D01*
X0231735Y0177852D02*
X0231335Y0177852D01*
X0231335Y0176253D02*
X0231735Y0176253D01*
X0231735Y0174655D02*
X0231335Y0174655D01*
X0231335Y0173056D02*
X0231735Y0173056D01*
X0231735Y0171458D02*
X0231335Y0171458D01*
X0231335Y0169859D02*
X0231735Y0169859D01*
X0231735Y0168261D02*
X0231335Y0168261D01*
X0228852Y0168261D02*
X0223635Y0168261D01*
X0223635Y0166662D02*
X0254963Y0166662D01*
X0254963Y0168261D02*
X0234219Y0168261D01*
X0235708Y0169859D02*
X0255448Y0169859D01*
X0256306Y0171458D02*
X0236271Y0171458D01*
X0236335Y0173056D02*
X0258004Y0173056D01*
X0255372Y0165064D02*
X0223635Y0165064D01*
X0223635Y0163465D02*
X0256123Y0163465D01*
X0257722Y0161867D02*
X0223635Y0161867D01*
X0221535Y0160559D02*
X0200787Y0139811D01*
X0153543Y0139811D01*
X0129921Y0116189D01*
X0129921Y0068945D01*
X0127037Y0069153D02*
X0123754Y0069153D01*
X0123754Y0067555D02*
X0127375Y0067555D01*
X0127649Y0070752D02*
X0123754Y0070752D01*
X0123754Y0072350D02*
X0127821Y0072350D01*
X0127821Y0073949D02*
X0123754Y0073949D01*
X0123754Y0075547D02*
X0127821Y0075547D01*
X0127821Y0077146D02*
X0123754Y0077146D01*
X0123754Y0078744D02*
X0127821Y0078744D01*
X0127821Y0080343D02*
X0123754Y0080343D01*
X0123754Y0081941D02*
X0127821Y0081941D01*
X0127821Y0083540D02*
X0123754Y0083540D01*
X0123754Y0085138D02*
X0127821Y0085138D01*
X0127821Y0086737D02*
X0123754Y0086737D01*
X0123754Y0088335D02*
X0127821Y0088335D01*
X0127821Y0089934D02*
X0123754Y0089934D01*
X0123754Y0091532D02*
X0127821Y0091532D01*
X0127821Y0093131D02*
X0123754Y0093131D01*
X0123754Y0094729D02*
X0127821Y0094729D01*
X0127821Y0096328D02*
X0123754Y0096328D01*
X0123754Y0097926D02*
X0127821Y0097926D01*
X0127821Y0099525D02*
X0123754Y0099525D01*
X0123754Y0101123D02*
X0127821Y0101123D01*
X0127821Y0102722D02*
X0123754Y0102722D01*
X0123754Y0104320D02*
X0127821Y0104320D01*
X0116010Y0104320D02*
X0077830Y0104320D01*
X0076232Y0105919D02*
X0116010Y0105919D01*
X0116010Y0107517D02*
X0074633Y0107517D01*
X0075036Y0109116D02*
X0081479Y0109116D01*
X0081901Y0108941D02*
X0080468Y0109535D01*
X0079371Y0110632D01*
X0078777Y0112065D01*
X0078777Y0118817D01*
X0079371Y0120250D01*
X0080468Y0121347D01*
X0080577Y0121392D01*
X0080577Y0140681D01*
X0081807Y0141911D01*
X0085744Y0145848D01*
X0112194Y0145848D01*
X0112539Y0146193D01*
X0113600Y0146632D01*
X0114747Y0146632D01*
X0115807Y0146193D01*
X0116618Y0145382D01*
X0117057Y0144322D01*
X0117057Y0143174D01*
X0116618Y0142114D01*
X0115807Y0141303D01*
X0114747Y0140864D01*
X0113600Y0140864D01*
X0112539Y0141303D01*
X0112194Y0141648D01*
X0087484Y0141648D01*
X0084777Y0138941D01*
X0084777Y0121392D01*
X0084886Y0121347D01*
X0085983Y0120250D01*
X0086577Y0118817D01*
X0086577Y0112065D01*
X0085983Y0110632D01*
X0084886Y0109535D01*
X0083453Y0108941D01*
X0081901Y0108941D01*
X0083876Y0109116D02*
X0091479Y0109116D01*
X0091901Y0108941D02*
X0093453Y0108941D01*
X0094886Y0109535D01*
X0095983Y0110632D01*
X0096577Y0112065D01*
X0096577Y0118817D01*
X0095983Y0120250D01*
X0094886Y0121347D01*
X0093453Y0121941D01*
X0091901Y0121941D01*
X0090468Y0121347D01*
X0089371Y0120250D01*
X0088777Y0118817D01*
X0088777Y0112065D01*
X0089371Y0110632D01*
X0090468Y0109535D01*
X0091901Y0108941D01*
X0093876Y0109116D02*
X0101479Y0109116D01*
X0101901Y0108941D02*
X0100468Y0109535D01*
X0099371Y0110632D01*
X0098777Y0112065D01*
X0098777Y0118817D01*
X0099371Y0120250D01*
X0100468Y0121347D01*
X0101901Y0121941D01*
X0103453Y0121941D01*
X0104886Y0121347D01*
X0105983Y0120250D01*
X0106577Y0118817D01*
X0106577Y0112065D01*
X0105983Y0110632D01*
X0104886Y0109535D01*
X0103453Y0108941D01*
X0101901Y0108941D01*
X0103876Y0109116D02*
X0111479Y0109116D01*
X0113876Y0109116D02*
X0116010Y0109116D01*
X0109337Y0110715D02*
X0106018Y0110715D01*
X0106577Y0112313D02*
X0108777Y0112313D01*
X0108777Y0113912D02*
X0106577Y0113912D01*
X0106577Y0115510D02*
X0108777Y0115510D01*
X0108777Y0117109D02*
X0106577Y0117109D01*
X0106577Y0118707D02*
X0108777Y0118707D01*
X0109426Y0120306D02*
X0105928Y0120306D01*
X0103542Y0121904D02*
X0111812Y0121904D01*
X0114173Y0124063D02*
X0118110Y0120126D01*
X0118110Y0088630D01*
X0114921Y0085441D01*
X0112677Y0085441D01*
X0108777Y0085138D02*
X0106577Y0085138D01*
X0106577Y0083540D02*
X0108777Y0083540D01*
X0108828Y0081941D02*
X0106526Y0081941D01*
X0106577Y0082065D02*
X0106577Y0088817D01*
X0105983Y0090250D01*
X0104886Y0091347D01*
X0103453Y0091941D01*
X0101901Y0091941D01*
X0100468Y0091347D01*
X0099371Y0090250D01*
X0098777Y0088817D01*
X0098777Y0082065D01*
X0099371Y0080632D01*
X0100468Y0079535D01*
X0101901Y0078941D01*
X0103453Y0078941D01*
X0104886Y0079535D01*
X0105983Y0080632D01*
X0106577Y0082065D01*
X0105694Y0080343D02*
X0109660Y0080343D01*
X0115694Y0080343D02*
X0119554Y0080343D01*
X0119554Y0081941D02*
X0116526Y0081941D01*
X0116577Y0083540D02*
X0119554Y0083540D01*
X0119554Y0085138D02*
X0117588Y0085138D01*
X0119187Y0086737D02*
X0119554Y0086737D01*
X0116010Y0091532D02*
X0114439Y0091532D01*
X0116010Y0093131D02*
X0080840Y0093131D01*
X0080840Y0094729D02*
X0116010Y0094729D01*
X0116010Y0096328D02*
X0080840Y0096328D01*
X0080840Y0097926D02*
X0116010Y0097926D01*
X0116010Y0099525D02*
X0080840Y0099525D01*
X0080840Y0101123D02*
X0116010Y0101123D01*
X0116010Y0102722D02*
X0079429Y0102722D01*
X0078740Y0100441D02*
X0078740Y0061071D01*
X0074803Y0057134D01*
X0047244Y0057134D01*
X0045104Y0057964D02*
X0037533Y0057964D01*
X0037533Y0059562D02*
X0074262Y0059562D01*
X0075723Y0061161D02*
X0075860Y0061161D01*
X0072387Y0061161D02*
X0046430Y0061161D01*
X0045878Y0060608D02*
X0048455Y0063185D01*
X0048455Y0065008D01*
X0044055Y0065008D01*
X0044055Y0065008D01*
X0044055Y0065008D01*
X0044055Y0060608D01*
X0045878Y0060608D01*
X0044055Y0061161D02*
X0044055Y0061161D01*
X0044055Y0062759D02*
X0044055Y0062759D01*
X0044055Y0064358D02*
X0044055Y0064358D01*
X0041680Y0061161D02*
X0037533Y0061161D01*
X0037533Y0062759D02*
X0040081Y0062759D01*
X0039655Y0064358D02*
X0037533Y0064358D01*
X0037533Y0065956D02*
X0039655Y0065956D01*
X0040379Y0067555D02*
X0037533Y0067555D01*
X0037533Y0069153D02*
X0041978Y0069153D01*
X0040670Y0070752D02*
X0037533Y0070752D01*
X0037533Y0072350D02*
X0040155Y0072350D01*
X0040155Y0073949D02*
X0037533Y0073949D01*
X0037533Y0075547D02*
X0041205Y0075547D01*
X0038730Y0077146D02*
X0064286Y0077146D01*
X0062688Y0075547D02*
X0046905Y0075547D01*
X0044055Y0072882D02*
X0062992Y0072882D01*
X0072677Y0082567D01*
X0072677Y0085441D01*
X0072441Y0085677D01*
X0072441Y0094535D01*
X0062598Y0104378D01*
X0015748Y0104378D01*
X0007874Y0112252D01*
X0007874Y0198866D01*
X0011811Y0202803D01*
X0051181Y0202803D01*
X0058937Y0195047D01*
X0058937Y0190953D01*
X0049783Y0187443D02*
X0044999Y0187443D01*
X0044846Y0187005D02*
X0045228Y0188097D01*
X0045485Y0189225D01*
X0045590Y0190153D01*
X0036115Y0190153D01*
X0036115Y0180678D01*
X0037043Y0180782D01*
X0038171Y0181040D01*
X0039263Y0181422D01*
X0040305Y0181924D01*
X0041285Y0182539D01*
X0042189Y0183261D01*
X0043007Y0184079D01*
X0043728Y0184983D01*
X0044344Y0185963D01*
X0044846Y0187005D01*
X0044270Y0185845D02*
X0050445Y0185845D01*
X0051784Y0184246D02*
X0043141Y0184246D01*
X0044270Y0182362D02*
X0043178Y0181980D01*
X0042136Y0181478D01*
X0041156Y0180862D01*
X0040252Y0180141D01*
X0039434Y0179323D01*
X0038712Y0178419D01*
X0038097Y0177439D01*
X0037595Y0176397D01*
X0037213Y0175305D01*
X0036956Y0174177D01*
X0036851Y0173249D01*
X0046326Y0173249D01*
X0046326Y0182724D01*
X0045398Y0182619D01*
X0044270Y0182362D01*
X0045649Y0182648D02*
X0041420Y0182648D01*
X0041453Y0181049D02*
X0038197Y0181049D01*
X0036115Y0181049D02*
X0034515Y0181049D01*
X0034515Y0182648D02*
X0036115Y0182648D01*
X0036115Y0184246D02*
X0034515Y0184246D01*
X0034515Y0185845D02*
X0036115Y0185845D01*
X0036115Y0187443D02*
X0034515Y0187443D01*
X0034515Y0189042D02*
X0036115Y0189042D01*
X0036115Y0190640D02*
X0049137Y0190640D01*
X0049137Y0189042D02*
X0045444Y0189042D01*
X0045535Y0192239D02*
X0049137Y0192239D01*
X0049524Y0193837D02*
X0045218Y0193837D01*
X0044588Y0195436D02*
X0050186Y0195436D01*
X0051159Y0197034D02*
X0043639Y0197034D01*
X0042201Y0198633D02*
X0052382Y0198633D01*
X0050783Y0200231D02*
X0039787Y0200231D01*
X0030843Y0200231D02*
X0012209Y0200231D01*
X0010610Y0198633D02*
X0028428Y0198633D01*
X0026991Y0197034D02*
X0009974Y0197034D01*
X0009974Y0195436D02*
X0026042Y0195436D01*
X0025412Y0193837D02*
X0009974Y0193837D01*
X0009974Y0192239D02*
X0025095Y0192239D01*
X0025186Y0189042D02*
X0009974Y0189042D01*
X0009974Y0190640D02*
X0034515Y0190640D01*
X0027489Y0184246D02*
X0009974Y0184246D01*
X0009974Y0182648D02*
X0029209Y0182648D01*
X0032432Y0181049D02*
X0009974Y0181049D01*
X0009974Y0179451D02*
X0039561Y0179451D01*
X0038356Y0177852D02*
X0009974Y0177852D01*
X0009974Y0176253D02*
X0037545Y0176253D01*
X0037065Y0174655D02*
X0009974Y0174655D01*
X0009974Y0173056D02*
X0046326Y0173056D01*
X0046326Y0173249D02*
X0046326Y0171649D01*
X0036851Y0171649D01*
X0036956Y0170721D01*
X0037213Y0169593D01*
X0037595Y0168501D01*
X0038097Y0167459D01*
X0038712Y0166479D01*
X0039434Y0165575D01*
X0040252Y0164757D01*
X0041156Y0164035D01*
X0042136Y0163420D01*
X0043178Y0162918D01*
X0043608Y0162767D01*
X0042437Y0161596D01*
X0041207Y0160366D01*
X0041207Y0127130D01*
X0044360Y0123977D01*
X0044360Y0123489D01*
X0044799Y0122429D01*
X0045610Y0121618D01*
X0046670Y0121179D01*
X0047818Y0121179D01*
X0048878Y0121618D01*
X0049689Y0122429D01*
X0050128Y0123489D01*
X0050128Y0124637D01*
X0049689Y0125697D01*
X0048878Y0126508D01*
X0047818Y0126947D01*
X0047330Y0126947D01*
X0045407Y0128870D01*
X0045407Y0158626D01*
X0046145Y0159365D01*
X0056543Y0159365D01*
X0056280Y0159101D01*
X0056043Y0158691D01*
X0056005Y0158550D01*
X0055259Y0159296D01*
X0047182Y0159296D01*
X0046420Y0158535D01*
X0046420Y0150458D01*
X0047182Y0149696D01*
X0055259Y0149696D01*
X0056005Y0150442D01*
X0056043Y0150301D01*
X0056280Y0149891D01*
X0056615Y0149556D01*
X0057026Y0149319D01*
X0057483Y0149196D01*
X0061220Y0149196D01*
X0061220Y0154496D01*
X0061221Y0154496D01*
X0061221Y0149196D01*
X0064957Y0149196D01*
X0065415Y0149319D01*
X0065826Y0149556D01*
X0066161Y0149891D01*
X0066398Y0150301D01*
X0066436Y0150442D01*
X0067182Y0149696D01*
X0075259Y0149696D01*
X0076020Y0150458D01*
X0076020Y0158535D01*
X0075259Y0159296D01*
X0067182Y0159296D01*
X0066436Y0158550D01*
X0066398Y0158691D01*
X0066161Y0159101D01*
X0065898Y0159365D01*
X0142602Y0159365D01*
X0143832Y0160595D01*
X0147769Y0164532D01*
X0147769Y0221125D01*
X0150208Y0221125D01*
X0150969Y0221887D01*
X0150969Y0230964D01*
X0150208Y0231725D01*
X0141131Y0231725D01*
X0140369Y0230964D01*
X0140369Y0221887D01*
X0141131Y0221125D01*
X0143569Y0221125D01*
X0143569Y0166271D01*
X0140862Y0163565D01*
X0052346Y0163565D01*
X0053096Y0164035D01*
X0054000Y0164757D01*
X0054818Y0165575D01*
X0055539Y0166479D01*
X0056155Y0167459D01*
X0056657Y0168501D01*
X0057039Y0169593D01*
X0057296Y0170721D01*
X0057401Y0171649D01*
X0047926Y0171649D01*
X0047926Y0173249D01*
X0046326Y0173249D01*
X0046326Y0174655D02*
X0047926Y0174655D01*
X0047926Y0173249D02*
X0047926Y0182724D01*
X0048854Y0182619D01*
X0049982Y0182362D01*
X0051074Y0181980D01*
X0052116Y0181478D01*
X0053096Y0180862D01*
X0054000Y0180141D01*
X0054818Y0179323D01*
X0055539Y0178419D01*
X0056155Y0177439D01*
X0056657Y0176397D01*
X0057039Y0175305D01*
X0057296Y0174177D01*
X0057401Y0173249D01*
X0047926Y0173249D01*
X0047926Y0173056D02*
X0143569Y0173056D01*
X0143569Y0171458D02*
X0057379Y0171458D01*
X0057100Y0169859D02*
X0143569Y0169859D01*
X0143569Y0168261D02*
X0056541Y0168261D01*
X0055655Y0166662D02*
X0143569Y0166662D01*
X0142362Y0165064D02*
X0054307Y0165064D01*
X0055885Y0158670D02*
X0056038Y0158670D01*
X0061220Y0153874D02*
X0061221Y0153874D01*
X0061220Y0152276D02*
X0061221Y0152276D01*
X0061220Y0150677D02*
X0061221Y0150677D01*
X0066403Y0158670D02*
X0066556Y0158670D01*
X0075885Y0158670D02*
X0076556Y0158670D01*
X0076420Y0158535D02*
X0077182Y0159296D01*
X0085259Y0159296D01*
X0086020Y0158535D01*
X0086020Y0150458D01*
X0085259Y0149696D01*
X0077182Y0149696D01*
X0076420Y0150458D01*
X0076420Y0158535D01*
X0076420Y0157071D02*
X0076020Y0157071D01*
X0076020Y0155473D02*
X0076420Y0155473D01*
X0076420Y0153874D02*
X0076020Y0153874D01*
X0076020Y0152276D02*
X0076420Y0152276D01*
X0076420Y0150677D02*
X0076020Y0150677D01*
X0086020Y0150677D02*
X0086420Y0150677D01*
X0086420Y0150458D02*
X0087182Y0149696D01*
X0095259Y0149696D01*
X0096020Y0150458D01*
X0096020Y0158535D01*
X0095259Y0159296D01*
X0087182Y0159296D01*
X0086420Y0158535D01*
X0086420Y0150458D01*
X0086420Y0152276D02*
X0086020Y0152276D01*
X0086020Y0153874D02*
X0086420Y0153874D01*
X0086420Y0155473D02*
X0086020Y0155473D01*
X0086020Y0157071D02*
X0086420Y0157071D01*
X0086556Y0158670D02*
X0085885Y0158670D01*
X0095885Y0158670D02*
X0096556Y0158670D01*
X0096420Y0158535D02*
X0097182Y0159296D01*
X0105259Y0159296D01*
X0106020Y0158535D01*
X0106020Y0150458D01*
X0105259Y0149696D01*
X0097182Y0149696D01*
X0096420Y0150458D01*
X0096420Y0158535D01*
X0096420Y0157071D02*
X0096020Y0157071D01*
X0096020Y0155473D02*
X0096420Y0155473D01*
X0096420Y0153874D02*
X0096020Y0153874D01*
X0096020Y0152276D02*
X0096420Y0152276D01*
X0096420Y0150677D02*
X0096020Y0150677D01*
X0106020Y0150677D02*
X0106420Y0150677D01*
X0106420Y0150458D02*
X0107182Y0149696D01*
X0115259Y0149696D01*
X0116020Y0150458D01*
X0116020Y0158535D01*
X0115259Y0159296D01*
X0107182Y0159296D01*
X0106420Y0158535D01*
X0106420Y0150458D01*
X0106420Y0152276D02*
X0106020Y0152276D01*
X0106020Y0153874D02*
X0106420Y0153874D01*
X0106420Y0155473D02*
X0106020Y0155473D01*
X0106020Y0157071D02*
X0106420Y0157071D01*
X0106556Y0158670D02*
X0105885Y0158670D01*
X0115885Y0158670D02*
X0116556Y0158670D01*
X0116420Y0158535D02*
X0117182Y0159296D01*
X0125259Y0159296D01*
X0126020Y0158535D01*
X0126020Y0150458D01*
X0125259Y0149696D01*
X0117182Y0149696D01*
X0116420Y0150458D01*
X0116420Y0158535D01*
X0116420Y0157071D02*
X0116020Y0157071D01*
X0116020Y0155473D02*
X0116420Y0155473D01*
X0116420Y0153874D02*
X0116020Y0153874D01*
X0116020Y0152276D02*
X0116420Y0152276D01*
X0116420Y0150677D02*
X0116020Y0150677D01*
X0116118Y0145882D02*
X0144046Y0145882D01*
X0145644Y0147480D02*
X0045407Y0147480D01*
X0045407Y0145882D02*
X0112228Y0145882D01*
X0114173Y0143748D02*
X0086614Y0143748D01*
X0082677Y0139811D01*
X0082677Y0115441D01*
X0078777Y0115510D02*
X0077077Y0115510D01*
X0077077Y0115441D02*
X0072677Y0115441D01*
X0072677Y0115441D01*
X0077077Y0115441D01*
X0077077Y0113912D02*
X0078777Y0113912D01*
X0078777Y0112313D02*
X0077048Y0112313D01*
X0076532Y0110715D02*
X0079337Y0110715D01*
X0086018Y0110715D02*
X0089337Y0110715D01*
X0088777Y0112313D02*
X0086577Y0112313D01*
X0086577Y0113912D02*
X0088777Y0113912D01*
X0088777Y0115510D02*
X0086577Y0115510D01*
X0086577Y0117109D02*
X0088777Y0117109D01*
X0088777Y0118707D02*
X0086577Y0118707D01*
X0085928Y0120306D02*
X0089426Y0120306D01*
X0091812Y0121904D02*
X0084777Y0121904D01*
X0084777Y0123503D02*
X0095541Y0123503D01*
X0095733Y0125101D02*
X0084777Y0125101D01*
X0084777Y0126700D02*
X0097254Y0126700D01*
X0099597Y0126700D02*
X0124864Y0126700D01*
X0126462Y0128298D02*
X0084777Y0128298D01*
X0084777Y0129897D02*
X0128061Y0129897D01*
X0129659Y0131495D02*
X0084777Y0131495D01*
X0084777Y0133094D02*
X0131258Y0133094D01*
X0132856Y0134692D02*
X0084777Y0134692D01*
X0084777Y0136291D02*
X0134455Y0136291D01*
X0136053Y0137889D02*
X0084777Y0137889D01*
X0085324Y0139488D02*
X0137652Y0139488D01*
X0139250Y0141086D02*
X0115284Y0141086D01*
X0113062Y0141086D02*
X0086922Y0141086D01*
X0082581Y0142685D02*
X0045407Y0142685D01*
X0045407Y0144283D02*
X0084180Y0144283D01*
X0080983Y0141086D02*
X0045407Y0141086D01*
X0045407Y0139488D02*
X0080577Y0139488D01*
X0080577Y0137889D02*
X0045407Y0137889D01*
X0045407Y0136291D02*
X0080577Y0136291D01*
X0080577Y0134692D02*
X0045407Y0134692D01*
X0045407Y0133094D02*
X0080577Y0133094D01*
X0080577Y0131495D02*
X0045407Y0131495D01*
X0045407Y0129897D02*
X0080577Y0129897D01*
X0080577Y0128298D02*
X0045979Y0128298D01*
X0043307Y0128000D02*
X0047244Y0124063D01*
X0048416Y0126700D02*
X0080577Y0126700D01*
X0080577Y0125101D02*
X0049936Y0125101D01*
X0050128Y0123503D02*
X0080577Y0123503D01*
X0080577Y0121904D02*
X0074787Y0121904D01*
X0072677Y0121904D02*
X0072677Y0121904D01*
X0072677Y0120306D02*
X0072677Y0120306D01*
X0072677Y0118707D02*
X0072677Y0118707D01*
X0072677Y0117109D02*
X0072677Y0117109D01*
X0072677Y0115510D02*
X0072677Y0115510D01*
X0077077Y0117109D02*
X0078777Y0117109D01*
X0078777Y0118707D02*
X0077027Y0118707D01*
X0076461Y0120306D02*
X0079426Y0120306D01*
X0070567Y0121904D02*
X0063542Y0121904D01*
X0061812Y0121904D02*
X0053542Y0121904D01*
X0051812Y0121904D02*
X0049164Y0121904D01*
X0049426Y0120306D02*
X0025722Y0120306D01*
X0025722Y0121904D02*
X0045324Y0121904D01*
X0044360Y0123503D02*
X0025722Y0123503D01*
X0025722Y0125101D02*
X0043236Y0125101D01*
X0041638Y0126700D02*
X0025722Y0126700D01*
X0025722Y0128298D02*
X0041207Y0128298D01*
X0041207Y0129897D02*
X0025722Y0129897D01*
X0025722Y0131495D02*
X0041207Y0131495D01*
X0041207Y0133094D02*
X0025722Y0133094D01*
X0025722Y0134692D02*
X0041207Y0134692D01*
X0041207Y0136291D02*
X0025722Y0136291D01*
X0025722Y0137889D02*
X0041207Y0137889D01*
X0041207Y0139488D02*
X0025722Y0139488D01*
X0025722Y0141086D02*
X0041207Y0141086D01*
X0041207Y0142685D02*
X0025722Y0142685D01*
X0025722Y0144283D02*
X0041207Y0144283D01*
X0041207Y0145882D02*
X0025722Y0145882D01*
X0025722Y0147480D02*
X0041207Y0147480D01*
X0041207Y0149079D02*
X0025722Y0149079D01*
X0025722Y0150677D02*
X0041207Y0150677D01*
X0041207Y0152276D02*
X0025722Y0152276D01*
X0025722Y0153874D02*
X0041207Y0153874D01*
X0041207Y0155473D02*
X0025722Y0155473D01*
X0025722Y0157071D02*
X0041207Y0157071D01*
X0041207Y0158670D02*
X0038191Y0158670D01*
X0036612Y0158670D02*
X0025766Y0158670D01*
X0023622Y0159496D02*
X0023622Y0112252D01*
X0027559Y0108315D01*
X0058071Y0108315D01*
X0060861Y0109116D02*
X0061479Y0109116D01*
X0060862Y0107517D02*
X0068694Y0107517D01*
X0070292Y0105919D02*
X0064027Y0105919D01*
X0065626Y0104320D02*
X0071891Y0104320D01*
X0073489Y0102722D02*
X0067224Y0102722D01*
X0068823Y0101123D02*
X0075088Y0101123D01*
X0076640Y0099525D02*
X0070421Y0099525D01*
X0072020Y0097926D02*
X0076640Y0097926D01*
X0076640Y0096328D02*
X0073618Y0096328D01*
X0074541Y0094729D02*
X0076640Y0094729D01*
X0076640Y0093131D02*
X0074541Y0093131D01*
X0074541Y0091532D02*
X0076640Y0091532D01*
X0076640Y0089934D02*
X0076114Y0089934D01*
X0076577Y0088335D02*
X0076640Y0088335D01*
X0076640Y0086737D02*
X0076577Y0086737D01*
X0076577Y0085138D02*
X0076640Y0085138D01*
X0076640Y0083540D02*
X0076577Y0083540D01*
X0076526Y0081941D02*
X0076640Y0081941D01*
X0076640Y0080343D02*
X0075694Y0080343D01*
X0076640Y0078744D02*
X0071824Y0078744D01*
X0070226Y0077146D02*
X0076640Y0077146D01*
X0080840Y0077146D02*
X0119554Y0077146D01*
X0119554Y0078744D02*
X0080840Y0078744D01*
X0080840Y0075547D02*
X0119554Y0075547D01*
X0119554Y0073949D02*
X0080840Y0073949D01*
X0080840Y0072350D02*
X0119554Y0072350D01*
X0119554Y0070752D02*
X0080840Y0070752D01*
X0080840Y0069153D02*
X0119554Y0069153D01*
X0119554Y0067555D02*
X0080840Y0067555D01*
X0080840Y0065956D02*
X0119554Y0065956D01*
X0119554Y0064358D02*
X0080840Y0064358D01*
X0080840Y0062759D02*
X0119554Y0062759D01*
X0119554Y0061161D02*
X0080840Y0061161D01*
X0080201Y0059562D02*
X0119554Y0059562D01*
X0119554Y0057964D02*
X0078603Y0057964D01*
X0077004Y0056365D02*
X0119554Y0056365D01*
X0106420Y0053168D02*
X0106020Y0053168D01*
X0106020Y0051570D02*
X0106420Y0051570D01*
X0106420Y0049971D02*
X0106020Y0049971D01*
X0106020Y0048373D02*
X0106420Y0048373D01*
X0106420Y0046774D02*
X0106020Y0046774D01*
X0096420Y0046774D02*
X0096020Y0046774D01*
X0096020Y0048373D02*
X0096420Y0048373D01*
X0096420Y0049971D02*
X0096020Y0049971D01*
X0096020Y0051570D02*
X0096420Y0051570D01*
X0096420Y0053168D02*
X0096020Y0053168D01*
X0086420Y0053168D02*
X0086020Y0053168D01*
X0086020Y0051570D02*
X0086420Y0051570D01*
X0086420Y0049971D02*
X0086020Y0049971D01*
X0086020Y0048373D02*
X0086420Y0048373D01*
X0086420Y0046774D02*
X0086020Y0046774D01*
X0076420Y0046774D02*
X0076020Y0046774D01*
X0076020Y0048373D02*
X0076420Y0048373D01*
X0076420Y0049971D02*
X0076020Y0049971D01*
X0076020Y0051570D02*
X0076420Y0051570D01*
X0076420Y0053168D02*
X0076020Y0053168D01*
X0070788Y0062759D02*
X0048029Y0062759D01*
X0048455Y0064358D02*
X0070155Y0064358D01*
X0070155Y0065956D02*
X0048455Y0065956D01*
X0047731Y0067555D02*
X0071087Y0067555D01*
X0072268Y0069153D02*
X0046132Y0069153D01*
X0047440Y0070752D02*
X0070670Y0070752D01*
X0070155Y0072350D02*
X0065430Y0072350D01*
X0067029Y0073949D02*
X0070155Y0073949D01*
X0071205Y0075547D02*
X0068627Y0075547D01*
X0075842Y0069153D02*
X0076640Y0069153D01*
X0090468Y0079535D02*
X0091901Y0078941D01*
X0093453Y0078941D01*
X0094886Y0079535D01*
X0095983Y0080632D01*
X0096577Y0082065D01*
X0096577Y0088817D01*
X0095983Y0090250D01*
X0094886Y0091347D01*
X0093453Y0091941D01*
X0091901Y0091941D01*
X0090468Y0091347D01*
X0089371Y0090250D01*
X0088777Y0088817D01*
X0088777Y0082065D01*
X0089371Y0080632D01*
X0090468Y0079535D01*
X0089660Y0080343D02*
X0085694Y0080343D01*
X0086526Y0081941D02*
X0088828Y0081941D01*
X0088777Y0083540D02*
X0086577Y0083540D01*
X0086577Y0085138D02*
X0088777Y0085138D01*
X0088777Y0086737D02*
X0086577Y0086737D01*
X0086577Y0088335D02*
X0088777Y0088335D01*
X0089240Y0089934D02*
X0086114Y0089934D01*
X0084439Y0091532D02*
X0090915Y0091532D01*
X0094439Y0091532D02*
X0100915Y0091532D01*
X0099240Y0089934D02*
X0096114Y0089934D01*
X0096577Y0088335D02*
X0098777Y0088335D01*
X0098777Y0086737D02*
X0096577Y0086737D01*
X0096577Y0085138D02*
X0098777Y0085138D01*
X0098777Y0083540D02*
X0096577Y0083540D01*
X0096526Y0081941D02*
X0098828Y0081941D01*
X0099660Y0080343D02*
X0095694Y0080343D01*
X0106577Y0086737D02*
X0108777Y0086737D01*
X0108777Y0088335D02*
X0106577Y0088335D01*
X0106114Y0089934D02*
X0109240Y0089934D01*
X0110915Y0091532D02*
X0104439Y0091532D01*
X0080915Y0091532D02*
X0080840Y0091532D01*
X0069277Y0094729D02*
X0005737Y0094729D01*
X0005737Y0093131D02*
X0040901Y0093131D01*
X0039303Y0091532D02*
X0005737Y0091532D01*
X0005737Y0089934D02*
X0037704Y0089934D01*
X0036106Y0088335D02*
X0005737Y0088335D01*
X0005737Y0086737D02*
X0034507Y0086737D01*
X0032909Y0085138D02*
X0005737Y0085138D01*
X0005737Y0083540D02*
X0031310Y0083540D01*
X0029712Y0081941D02*
X0005737Y0081941D01*
X0005737Y0080343D02*
X0029396Y0080343D01*
X0029396Y0078744D02*
X0005737Y0078744D01*
X0005737Y0077146D02*
X0029396Y0077146D01*
X0029396Y0075547D02*
X0005737Y0075547D01*
X0005737Y0073949D02*
X0029396Y0073949D01*
X0029396Y0072350D02*
X0005737Y0072350D01*
X0005737Y0070752D02*
X0029396Y0070752D01*
X0029396Y0069153D02*
X0005737Y0069153D01*
X0005737Y0067555D02*
X0029396Y0067555D01*
X0029396Y0065956D02*
X0005737Y0065956D01*
X0005737Y0064358D02*
X0029396Y0064358D01*
X0029396Y0062759D02*
X0005737Y0062759D01*
X0005737Y0061161D02*
X0029396Y0061161D01*
X0029396Y0059562D02*
X0005737Y0059562D01*
X0005737Y0057964D02*
X0029396Y0057964D01*
X0029396Y0056365D02*
X0005737Y0056365D01*
X0005737Y0054767D02*
X0029396Y0054767D01*
X0029396Y0053168D02*
X0005737Y0053168D01*
X0005737Y0051570D02*
X0029396Y0051570D01*
X0029396Y0049971D02*
X0005737Y0049971D01*
X0005737Y0048373D02*
X0029396Y0048373D01*
X0029396Y0046774D02*
X0005737Y0046774D01*
X0005737Y0045176D02*
X0029396Y0045176D01*
X0030272Y0043577D02*
X0005737Y0043577D01*
X0005737Y0041979D02*
X0031871Y0041979D01*
X0033469Y0040380D02*
X0005737Y0040380D01*
X0005737Y0038782D02*
X0035068Y0038782D01*
X0036666Y0037183D02*
X0030031Y0037183D01*
X0032799Y0035584D02*
X0038265Y0035584D01*
X0044086Y0043577D02*
X0044445Y0043577D01*
X0042847Y0045176D02*
X0042487Y0045176D01*
X0041248Y0046774D02*
X0040889Y0046774D01*
X0041207Y0048373D02*
X0039290Y0048373D01*
X0037692Y0049971D02*
X0041207Y0049971D01*
X0041207Y0051570D02*
X0037533Y0051570D01*
X0037533Y0053168D02*
X0041207Y0053168D01*
X0041907Y0054767D02*
X0037533Y0054767D01*
X0037533Y0056365D02*
X0043506Y0056365D01*
X0017599Y0037183D02*
X0005737Y0037183D01*
X0005737Y0035584D02*
X0014388Y0035584D01*
X0015222Y0036250D02*
X0015222Y0036250D01*
X0012383Y0033986D02*
X0005737Y0033986D01*
X0005737Y0032387D02*
X0010802Y0032387D01*
X0009712Y0030789D02*
X0005737Y0030789D01*
X0005737Y0029190D02*
X0008622Y0029190D01*
X0008486Y0028990D02*
X0008486Y0028990D01*
X0008055Y0027592D02*
X0005737Y0027592D01*
X0005737Y0025993D02*
X0007561Y0025993D01*
X0007068Y0024395D02*
X0005737Y0024395D01*
X0005737Y0022796D02*
X0007010Y0022796D01*
X0007010Y0021198D02*
X0005765Y0021198D01*
X0005872Y0019599D02*
X0007010Y0019599D01*
X0007379Y0018001D02*
X0006237Y0018001D01*
X0006602Y0016402D02*
X0007872Y0016402D01*
X0008365Y0014804D02*
X0007217Y0014804D01*
X0007987Y0013205D02*
X0009308Y0013205D01*
X0029760Y0006062D02*
X0029760Y0006062D01*
X0100538Y0027592D02*
X0111853Y0027592D01*
X0111895Y0027748D02*
X0111672Y0026918D01*
X0111567Y0026117D01*
X0117631Y0026117D01*
X0117631Y0032181D01*
X0116830Y0032076D01*
X0116000Y0031853D01*
X0115207Y0031525D01*
X0114463Y0031096D01*
X0113782Y0030573D01*
X0113175Y0029966D01*
X0112652Y0029285D01*
X0112223Y0028541D01*
X0111895Y0027748D01*
X0112598Y0029190D02*
X0100538Y0029190D01*
X0100538Y0030789D02*
X0114064Y0030789D01*
X0117631Y0030789D02*
X0118590Y0030789D01*
X0118590Y0029190D02*
X0117631Y0029190D01*
X0117631Y0027592D02*
X0118590Y0027592D01*
X0122157Y0030789D02*
X0134422Y0030789D01*
X0132792Y0029190D02*
X0123622Y0029190D01*
X0124368Y0027592D02*
X0132056Y0027592D01*
X0141169Y0030789D02*
X0151430Y0030789D01*
X0151430Y0029190D02*
X0142799Y0029190D01*
X0143534Y0027592D02*
X0151430Y0027592D01*
X0151430Y0025993D02*
X0143845Y0025993D01*
X0143829Y0024395D02*
X0151430Y0024395D01*
X0151430Y0022796D02*
X0143167Y0022796D01*
X0141911Y0021198D02*
X0151430Y0021198D01*
X0118590Y0021198D02*
X0117631Y0021198D01*
X0117631Y0022796D02*
X0118590Y0022796D01*
X0118590Y0024395D02*
X0117631Y0024395D01*
X0117631Y0019599D02*
X0118590Y0019599D01*
X0165738Y0045176D02*
X0166702Y0045176D01*
X0166420Y0046774D02*
X0166020Y0046774D01*
X0166020Y0048373D02*
X0166420Y0048373D01*
X0166420Y0049971D02*
X0166020Y0049971D01*
X0166020Y0051570D02*
X0166420Y0051570D01*
X0166420Y0053168D02*
X0166020Y0053168D01*
X0176020Y0053168D02*
X0176420Y0053168D01*
X0176420Y0051570D02*
X0176020Y0051570D01*
X0226522Y0030789D02*
X0240721Y0030789D01*
X0240667Y0030767D02*
X0238966Y0029065D01*
X0238044Y0026841D01*
X0238044Y0024434D01*
X0238966Y0022211D01*
X0240667Y0020509D01*
X0242891Y0019588D01*
X0245298Y0019588D01*
X0247522Y0020509D01*
X0249223Y0022211D01*
X0250144Y0024434D01*
X0250144Y0026841D01*
X0249223Y0029065D01*
X0247522Y0030767D01*
X0245298Y0031688D01*
X0242891Y0031688D01*
X0240667Y0030767D01*
X0239091Y0029190D02*
X0226522Y0029190D01*
X0226522Y0027592D02*
X0238355Y0027592D01*
X0238044Y0025993D02*
X0226522Y0025993D01*
X0226522Y0024395D02*
X0238061Y0024395D01*
X0238723Y0022796D02*
X0226522Y0022796D01*
X0226522Y0021198D02*
X0239978Y0021198D01*
X0242863Y0019599D02*
X0225772Y0019599D01*
X0245326Y0019599D02*
X0262548Y0019599D01*
X0265011Y0019599D02*
X0278165Y0019599D01*
X0277415Y0021198D02*
X0267896Y0021198D01*
X0269151Y0022796D02*
X0277415Y0022796D01*
X0277415Y0024395D02*
X0269813Y0024395D01*
X0259663Y0021198D02*
X0248211Y0021198D01*
X0249466Y0022796D02*
X0258408Y0022796D01*
X0257746Y0024395D02*
X0250128Y0024395D01*
X0250144Y0025993D02*
X0257730Y0025993D01*
X0258040Y0027592D02*
X0249834Y0027592D01*
X0249098Y0029190D02*
X0258776Y0029190D01*
X0260406Y0030789D02*
X0247468Y0030789D01*
X0308698Y0041979D02*
X0309098Y0041979D01*
X0309098Y0043577D02*
X0308698Y0043577D01*
X0308698Y0045176D02*
X0309098Y0045176D01*
X0309098Y0046774D02*
X0308698Y0046774D01*
X0313698Y0049971D02*
X0314598Y0049971D01*
X0314598Y0051570D02*
X0313698Y0051570D01*
X0313406Y0053168D02*
X0314929Y0053168D01*
X0316071Y0054767D02*
X0312431Y0054767D01*
X0333198Y0046774D02*
X0371916Y0046774D01*
X0370899Y0045176D02*
X0333198Y0045176D01*
X0332751Y0043577D02*
X0369300Y0043577D01*
X0364405Y0037339D02*
X0364405Y0037339D01*
X0364676Y0037183D02*
X0376153Y0037183D01*
X0376153Y0035584D02*
X0367445Y0035584D01*
X0368742Y0034836D02*
X0368742Y0034836D01*
X0369531Y0033986D02*
X0376153Y0033986D01*
X0376153Y0032387D02*
X0371014Y0032387D01*
X0372149Y0031165D02*
X0372149Y0031165D01*
X0372329Y0030789D02*
X0376153Y0030789D01*
X0376153Y0029190D02*
X0373099Y0029190D01*
X0373869Y0027592D02*
X0376153Y0027592D01*
X0376153Y0025993D02*
X0374421Y0025993D01*
X0374321Y0026653D02*
X0374321Y0026653D01*
X0374662Y0024395D02*
X0376153Y0024395D01*
X0376153Y0022796D02*
X0374903Y0022796D01*
X0374992Y0021198D02*
X0376125Y0021198D01*
X0376018Y0019599D02*
X0374751Y0019599D01*
X0374510Y0018001D02*
X0375653Y0018001D01*
X0375288Y0016402D02*
X0374154Y0016402D01*
X0374672Y0014804D02*
X0373385Y0014804D01*
X0373903Y0013205D02*
X0372615Y0013205D01*
X0372950Y0011607D02*
X0371564Y0011607D01*
X0371675Y0010008D02*
X0370081Y0010008D01*
X0370106Y0008410D02*
X0368472Y0008410D01*
X0368742Y0008566D02*
X0368742Y0008566D01*
X0368102Y0006811D02*
X0365703Y0006811D01*
X0364992Y0005213D02*
X0360684Y0005213D01*
X0359523Y0038454D02*
X0359523Y0038454D01*
X0354529Y0038080D02*
X0354529Y0038080D01*
X0348017Y0041979D02*
X0331445Y0041979D01*
X0293823Y0080343D02*
X0371916Y0080343D01*
X0371916Y0081941D02*
X0294035Y0081941D01*
X0294035Y0083540D02*
X0350865Y0083540D01*
X0350904Y0083501D02*
X0353127Y0082580D01*
X0355534Y0082580D01*
X0357758Y0083501D01*
X0359460Y0085203D01*
X0360381Y0087426D01*
X0360381Y0089833D01*
X0359460Y0092057D01*
X0357758Y0093759D01*
X0355534Y0094680D01*
X0353127Y0094680D01*
X0350904Y0093759D01*
X0349202Y0092057D01*
X0348281Y0089833D01*
X0348281Y0087426D01*
X0349202Y0085203D01*
X0350904Y0083501D01*
X0349266Y0085138D02*
X0294035Y0085138D01*
X0294035Y0086737D02*
X0348566Y0086737D01*
X0348281Y0088335D02*
X0294035Y0088335D01*
X0294035Y0089934D02*
X0348322Y0089934D01*
X0348984Y0091532D02*
X0294035Y0091532D01*
X0294035Y0093131D02*
X0350276Y0093131D01*
X0358386Y0093131D02*
X0371916Y0093131D01*
X0371916Y0094729D02*
X0294035Y0094729D01*
X0296151Y0096328D02*
X0371916Y0096328D01*
X0371916Y0097926D02*
X0296379Y0097926D01*
X0296379Y0099525D02*
X0371916Y0099525D01*
X0371916Y0091532D02*
X0359677Y0091532D01*
X0360339Y0089934D02*
X0371916Y0089934D01*
X0371916Y0088335D02*
X0360381Y0088335D01*
X0360095Y0086737D02*
X0371916Y0086737D01*
X0371916Y0085138D02*
X0359395Y0085138D01*
X0357797Y0083540D02*
X0371916Y0083540D01*
X0371916Y0133094D02*
X0149796Y0133094D01*
X0151394Y0134692D02*
X0371916Y0134692D01*
X0371916Y0136291D02*
X0152993Y0136291D01*
X0140849Y0142685D02*
X0116855Y0142685D01*
X0117057Y0144283D02*
X0142447Y0144283D01*
X0145259Y0149696D02*
X0137182Y0149696D01*
X0136420Y0150458D01*
X0136420Y0158535D01*
X0137182Y0159296D01*
X0145259Y0159296D01*
X0146020Y0158535D01*
X0146020Y0150458D01*
X0145259Y0149696D01*
X0146020Y0150677D02*
X0146420Y0150677D01*
X0146420Y0152276D02*
X0146020Y0152276D01*
X0146020Y0153874D02*
X0146420Y0153874D01*
X0146420Y0155473D02*
X0146020Y0155473D01*
X0146020Y0157071D02*
X0146420Y0157071D01*
X0146556Y0158670D02*
X0145885Y0158670D01*
X0143506Y0160268D02*
X0206464Y0160268D01*
X0204865Y0158670D02*
X0195885Y0158670D01*
X0196020Y0157071D02*
X0203267Y0157071D01*
X0201668Y0155473D02*
X0196020Y0155473D01*
X0196020Y0153874D02*
X0200070Y0153874D01*
X0198471Y0152276D02*
X0196020Y0152276D01*
X0196020Y0150677D02*
X0196873Y0150677D01*
X0196850Y0147685D02*
X0148819Y0147685D01*
X0147243Y0149079D02*
X0045407Y0149079D01*
X0045407Y0150677D02*
X0046420Y0150677D01*
X0046420Y0152276D02*
X0045407Y0152276D01*
X0045407Y0153874D02*
X0046420Y0153874D01*
X0046420Y0155473D02*
X0045407Y0155473D01*
X0045407Y0157071D02*
X0046420Y0157071D01*
X0046556Y0158670D02*
X0045451Y0158670D01*
X0043307Y0159496D02*
X0043307Y0128000D01*
X0055928Y0120306D02*
X0059426Y0120306D01*
X0058777Y0118707D02*
X0056577Y0118707D01*
X0056577Y0117109D02*
X0058777Y0117109D01*
X0058777Y0115510D02*
X0056577Y0115510D01*
X0056577Y0113912D02*
X0058777Y0113912D01*
X0058777Y0112313D02*
X0056577Y0112313D01*
X0056391Y0110715D02*
X0056018Y0110715D01*
X0049337Y0110715D02*
X0028129Y0110715D01*
X0026531Y0112313D02*
X0048777Y0112313D01*
X0048777Y0113912D02*
X0025722Y0113912D01*
X0025722Y0115510D02*
X0048777Y0115510D01*
X0048777Y0117109D02*
X0025722Y0117109D01*
X0025722Y0118707D02*
X0048777Y0118707D01*
X0062677Y0115441D02*
X0063740Y0115441D01*
X0078740Y0100441D01*
X0067679Y0096328D02*
X0005737Y0096328D01*
X0005737Y0097926D02*
X0066080Y0097926D01*
X0064482Y0099525D02*
X0005737Y0099525D01*
X0005737Y0101123D02*
X0062883Y0101123D01*
X0063876Y0109116D02*
X0067095Y0109116D01*
X0068239Y0113912D02*
X0068277Y0113912D01*
X0068277Y0115510D02*
X0066641Y0115510D01*
X0066577Y0117109D02*
X0068277Y0117109D01*
X0068328Y0118707D02*
X0066577Y0118707D01*
X0065928Y0120306D02*
X0068893Y0120306D01*
X0093542Y0121904D02*
X0096505Y0121904D01*
X0095928Y0120306D02*
X0099426Y0120306D01*
X0098777Y0118707D02*
X0096577Y0118707D01*
X0096577Y0117109D02*
X0098777Y0117109D01*
X0098777Y0115510D02*
X0096577Y0115510D01*
X0096577Y0113912D02*
X0098777Y0113912D01*
X0098777Y0112313D02*
X0096577Y0112313D01*
X0096018Y0110715D02*
X0099337Y0110715D01*
X0100345Y0121904D02*
X0101812Y0121904D01*
X0098425Y0124063D02*
X0114173Y0124063D01*
X0116105Y0125101D02*
X0123265Y0125101D01*
X0121667Y0123503D02*
X0117703Y0123503D01*
X0118980Y0122226D02*
X0118980Y0122226D01*
X0119302Y0121904D02*
X0120068Y0121904D01*
X0116273Y0124933D02*
X0116273Y0124933D01*
X0127182Y0149696D02*
X0135259Y0149696D01*
X0136020Y0150458D01*
X0136020Y0158535D01*
X0135259Y0159296D01*
X0127182Y0159296D01*
X0126420Y0158535D01*
X0126420Y0150458D01*
X0127182Y0149696D01*
X0126420Y0150677D02*
X0126020Y0150677D01*
X0126020Y0152276D02*
X0126420Y0152276D01*
X0126420Y0153874D02*
X0126020Y0153874D01*
X0126020Y0155473D02*
X0126420Y0155473D01*
X0126420Y0157071D02*
X0126020Y0157071D01*
X0125885Y0158670D02*
X0126556Y0158670D01*
X0135885Y0158670D02*
X0136556Y0158670D01*
X0136420Y0157071D02*
X0136020Y0157071D01*
X0136020Y0155473D02*
X0136420Y0155473D01*
X0136420Y0153874D02*
X0136020Y0153874D01*
X0136020Y0152276D02*
X0136420Y0152276D01*
X0136420Y0150677D02*
X0136020Y0150677D01*
X0141732Y0161465D02*
X0045276Y0161465D01*
X0043307Y0159496D01*
X0041207Y0160268D02*
X0040028Y0160268D01*
X0040286Y0161867D02*
X0042708Y0161867D01*
X0042063Y0163465D02*
X0039480Y0163465D01*
X0039944Y0165064D02*
X0009974Y0165064D01*
X0009974Y0166662D02*
X0038597Y0166662D01*
X0037711Y0168261D02*
X0009974Y0168261D01*
X0009974Y0169859D02*
X0037152Y0169859D01*
X0036872Y0171458D02*
X0009974Y0171458D01*
X0005774Y0171458D02*
X0005737Y0171458D01*
X0005737Y0173056D02*
X0005774Y0173056D01*
X0005737Y0174655D02*
X0005774Y0174655D01*
X0005737Y0176253D02*
X0005774Y0176253D01*
X0005737Y0177852D02*
X0005774Y0177852D01*
X0005737Y0179451D02*
X0005774Y0179451D01*
X0005737Y0181049D02*
X0005774Y0181049D01*
X0005737Y0182648D02*
X0005774Y0182648D01*
X0005737Y0184246D02*
X0005774Y0184246D01*
X0005737Y0185845D02*
X0005774Y0185845D01*
X0005737Y0187443D02*
X0005774Y0187443D01*
X0005737Y0189042D02*
X0005774Y0189042D01*
X0005737Y0190640D02*
X0005774Y0190640D01*
X0005737Y0192239D02*
X0005774Y0192239D01*
X0005737Y0193837D02*
X0005774Y0193837D01*
X0005737Y0195436D02*
X0005774Y0195436D01*
X0005737Y0197034D02*
X0005774Y0197034D01*
X0005737Y0198633D02*
X0005774Y0198633D01*
X0005737Y0200231D02*
X0006269Y0200231D01*
X0005737Y0201830D02*
X0007868Y0201830D01*
X0009466Y0203428D02*
X0005737Y0203428D01*
X0005737Y0205027D02*
X0143569Y0205027D01*
X0143569Y0206625D02*
X0005737Y0206625D01*
X0005737Y0208224D02*
X0143569Y0208224D01*
X0143569Y0209822D02*
X0025535Y0209822D01*
X0024878Y0209672D02*
X0029760Y0210787D01*
X0034097Y0213290D01*
X0037503Y0216961D01*
X0037503Y0216961D01*
X0039676Y0221473D01*
X0039676Y0221473D01*
X0040422Y0226425D01*
X0039676Y0231377D01*
X0037503Y0235889D01*
X0034097Y0239560D01*
X0034097Y0239560D01*
X0029760Y0242064D01*
X0029760Y0242064D01*
X0024878Y0243178D01*
X0024877Y0243178D01*
X0019884Y0242804D01*
X0019884Y0242804D01*
X0015222Y0240974D01*
X0011307Y0237852D01*
X0008486Y0233714D01*
X0007010Y0228929D01*
X0007010Y0223921D01*
X0008486Y0219136D01*
X0011307Y0214998D01*
X0015222Y0211876D01*
X0015222Y0211876D01*
X0019884Y0210046D01*
X0024877Y0209672D01*
X0024878Y0209672D01*
X0022875Y0209822D02*
X0005737Y0209822D01*
X0005737Y0211421D02*
X0016382Y0211421D01*
X0013788Y0213019D02*
X0005737Y0213019D01*
X0005737Y0214618D02*
X0011784Y0214618D01*
X0011307Y0214998D02*
X0011307Y0214998D01*
X0011307Y0214998D01*
X0010476Y0216216D02*
X0005737Y0216216D01*
X0005737Y0217815D02*
X0009387Y0217815D01*
X0008400Y0219413D02*
X0005737Y0219413D01*
X0005737Y0221012D02*
X0007907Y0221012D01*
X0007414Y0222610D02*
X0005737Y0222610D01*
X0005737Y0224209D02*
X0007010Y0224209D01*
X0007010Y0225807D02*
X0005737Y0225807D01*
X0005792Y0227406D02*
X0007010Y0227406D01*
X0007033Y0229004D02*
X0005981Y0229004D01*
X0006346Y0230603D02*
X0007526Y0230603D01*
X0008019Y0232201D02*
X0006711Y0232201D01*
X0007447Y0233800D02*
X0008544Y0233800D01*
X0008217Y0235398D02*
X0009634Y0235398D01*
X0009321Y0236997D02*
X0010724Y0236997D01*
X0011307Y0237852D02*
X0011307Y0237852D01*
X0010595Y0238595D02*
X0012239Y0238595D01*
X0012382Y0240194D02*
X0014243Y0240194D01*
X0015222Y0240974D02*
X0015222Y0240974D01*
X0014571Y0241792D02*
X0017306Y0241792D01*
X0018085Y0243391D02*
X0363805Y0243391D01*
X0364405Y0242064D02*
X0364405Y0242064D01*
X0364876Y0241792D02*
X0367319Y0241792D01*
X0367644Y0240194D02*
X0369507Y0240194D01*
X0368742Y0239560D02*
X0368742Y0239560D01*
X0369637Y0238595D02*
X0371294Y0238595D01*
X0371120Y0236997D02*
X0372569Y0236997D01*
X0372149Y0235889D02*
X0372149Y0235889D01*
X0372385Y0235398D02*
X0373673Y0235398D01*
X0373155Y0233800D02*
X0374442Y0233800D01*
X0373924Y0232201D02*
X0375179Y0232201D01*
X0374321Y0231377D02*
X0374321Y0231377D01*
X0374438Y0230603D02*
X0375544Y0230603D01*
X0375909Y0229004D02*
X0374679Y0229004D01*
X0374920Y0227406D02*
X0376098Y0227406D01*
X0376153Y0225807D02*
X0374975Y0225807D01*
X0374734Y0224209D02*
X0376153Y0224209D01*
X0376153Y0222610D02*
X0374493Y0222610D01*
X0374099Y0221012D02*
X0376153Y0221012D01*
X0376153Y0219413D02*
X0373329Y0219413D01*
X0372559Y0217815D02*
X0376153Y0217815D01*
X0376153Y0216216D02*
X0371457Y0216216D01*
X0369974Y0214618D02*
X0376153Y0214618D01*
X0376153Y0213019D02*
X0368273Y0213019D01*
X0365504Y0211421D02*
X0376153Y0211421D01*
X0351028Y0211421D02*
X0147769Y0211421D01*
X0147769Y0213019D02*
X0348434Y0213019D01*
X0349868Y0211876D02*
X0349868Y0211876D01*
X0346430Y0214618D02*
X0147769Y0214618D01*
X0147769Y0216216D02*
X0345122Y0216216D01*
X0344032Y0217815D02*
X0147769Y0217815D01*
X0147769Y0219413D02*
X0343046Y0219413D01*
X0343131Y0219136D02*
X0343131Y0219136D01*
X0342553Y0221012D02*
X0147769Y0221012D01*
X0150969Y0222610D02*
X0165611Y0222610D01*
X0166289Y0221932D02*
X0168237Y0221125D01*
X0170346Y0221125D01*
X0172294Y0221932D01*
X0173784Y0223423D01*
X0174591Y0225371D01*
X0174591Y0227479D01*
X0173784Y0229427D01*
X0172294Y0230918D01*
X0170346Y0231725D01*
X0168237Y0231725D01*
X0166289Y0230918D01*
X0164798Y0229427D01*
X0163991Y0227479D01*
X0163991Y0225371D01*
X0164798Y0223423D01*
X0166289Y0221932D01*
X0164473Y0224209D02*
X0150969Y0224209D01*
X0150969Y0225807D02*
X0163991Y0225807D01*
X0163991Y0227406D02*
X0150969Y0227406D01*
X0150969Y0229004D02*
X0164623Y0229004D01*
X0165974Y0230603D02*
X0150969Y0230603D01*
X0145669Y0226425D02*
X0145669Y0165402D01*
X0141732Y0161465D01*
X0145104Y0161867D02*
X0208062Y0161867D01*
X0209435Y0163465D02*
X0146703Y0163465D01*
X0147769Y0165064D02*
X0209435Y0165064D01*
X0209435Y0166662D02*
X0147769Y0166662D01*
X0147769Y0168261D02*
X0199915Y0168261D01*
X0200680Y0167944D02*
X0202391Y0167944D01*
X0203971Y0168599D01*
X0205181Y0169808D01*
X0205835Y0171389D01*
X0205835Y0179099D01*
X0205181Y0180680D01*
X0203971Y0181889D01*
X0202391Y0182544D01*
X0200680Y0182544D01*
X0199100Y0181889D01*
X0197890Y0180680D01*
X0197235Y0179099D01*
X0197235Y0171389D01*
X0197890Y0169808D01*
X0199100Y0168599D01*
X0200680Y0167944D01*
X0203156Y0168261D02*
X0209435Y0168261D01*
X0207869Y0169859D02*
X0205202Y0169859D01*
X0205835Y0171458D02*
X0207235Y0171458D01*
X0207235Y0173056D02*
X0205835Y0173056D01*
X0205835Y0174655D02*
X0207235Y0174655D01*
X0207235Y0176253D02*
X0205835Y0176253D01*
X0205835Y0177852D02*
X0207235Y0177852D01*
X0207381Y0179451D02*
X0205690Y0179451D01*
X0204812Y0181049D02*
X0208259Y0181049D01*
X0214812Y0181049D02*
X0218259Y0181049D01*
X0217381Y0179451D02*
X0215690Y0179451D01*
X0215835Y0177852D02*
X0217235Y0177852D01*
X0217235Y0176253D02*
X0215835Y0176253D01*
X0215835Y0174655D02*
X0217235Y0174655D01*
X0217235Y0173056D02*
X0215835Y0173056D01*
X0215835Y0171458D02*
X0217235Y0171458D01*
X0217869Y0169859D02*
X0215202Y0169859D01*
X0213635Y0168261D02*
X0219435Y0168261D01*
X0219435Y0166662D02*
X0213635Y0166662D01*
X0213635Y0165064D02*
X0219435Y0165064D01*
X0219435Y0163465D02*
X0213635Y0163465D01*
X0213635Y0161867D02*
X0219435Y0161867D01*
X0218275Y0160268D02*
X0212404Y0160268D01*
X0210805Y0158670D02*
X0216676Y0158670D01*
X0215078Y0157071D02*
X0209207Y0157071D01*
X0207608Y0155473D02*
X0213479Y0155473D01*
X0211881Y0153874D02*
X0206010Y0153874D01*
X0204411Y0152276D02*
X0210282Y0152276D01*
X0208684Y0150677D02*
X0202812Y0150677D01*
X0201214Y0149079D02*
X0207085Y0149079D01*
X0205487Y0147480D02*
X0199615Y0147480D01*
X0198017Y0145882D02*
X0203888Y0145882D01*
X0206631Y0142685D02*
X0266134Y0142685D01*
X0266113Y0144283D02*
X0208229Y0144283D01*
X0209828Y0145882D02*
X0266559Y0145882D01*
X0267669Y0147480D02*
X0211427Y0147480D01*
X0213025Y0149079D02*
X0276986Y0149079D01*
X0278584Y0150677D02*
X0214624Y0150677D01*
X0216222Y0152276D02*
X0280183Y0152276D01*
X0281781Y0153874D02*
X0217821Y0153874D01*
X0221535Y0160559D02*
X0221535Y0175244D01*
X0225835Y0174655D02*
X0226735Y0174655D01*
X0226735Y0176253D02*
X0225835Y0176253D01*
X0225835Y0177852D02*
X0226735Y0177852D01*
X0226880Y0179451D02*
X0225690Y0179451D01*
X0224812Y0181049D02*
X0227640Y0181049D01*
X0233466Y0182648D02*
X0270550Y0182648D01*
X0270550Y0181049D02*
X0235431Y0181049D01*
X0236190Y0179451D02*
X0270550Y0179451D01*
X0270550Y0177852D02*
X0236335Y0177852D01*
X0236335Y0176253D02*
X0270550Y0176253D01*
X0271192Y0174655D02*
X0236335Y0174655D01*
X0226735Y0173056D02*
X0225835Y0173056D01*
X0225835Y0171458D02*
X0226800Y0171458D01*
X0227363Y0169859D02*
X0225202Y0169859D01*
X0211535Y0175244D02*
X0211535Y0162370D01*
X0196850Y0147685D01*
X0186420Y0150677D02*
X0186020Y0150677D01*
X0186020Y0152276D02*
X0186420Y0152276D01*
X0186420Y0153874D02*
X0186020Y0153874D01*
X0186020Y0155473D02*
X0186420Y0155473D01*
X0186420Y0157071D02*
X0186020Y0157071D01*
X0185885Y0158670D02*
X0186556Y0158670D01*
X0176556Y0158670D02*
X0175885Y0158670D01*
X0176020Y0157071D02*
X0176420Y0157071D01*
X0176420Y0155473D02*
X0176020Y0155473D01*
X0176020Y0153874D02*
X0176420Y0153874D01*
X0176420Y0152276D02*
X0176020Y0152276D01*
X0176020Y0150677D02*
X0176420Y0150677D01*
X0166420Y0150677D02*
X0166020Y0150677D01*
X0166020Y0152276D02*
X0166420Y0152276D01*
X0166420Y0153874D02*
X0166020Y0153874D01*
X0166020Y0155473D02*
X0166420Y0155473D01*
X0166420Y0157071D02*
X0166020Y0157071D01*
X0165885Y0158670D02*
X0166556Y0158670D01*
X0156556Y0158670D02*
X0155885Y0158670D01*
X0156020Y0157071D02*
X0156420Y0157071D01*
X0156420Y0155473D02*
X0156020Y0155473D01*
X0156020Y0153874D02*
X0156420Y0153874D01*
X0156420Y0152276D02*
X0156020Y0152276D01*
X0156020Y0150677D02*
X0156420Y0150677D01*
X0147769Y0169859D02*
X0197869Y0169859D01*
X0197235Y0171458D02*
X0147769Y0171458D01*
X0147769Y0173056D02*
X0197235Y0173056D01*
X0197235Y0174655D02*
X0147769Y0174655D01*
X0147769Y0176253D02*
X0197235Y0176253D01*
X0197235Y0177852D02*
X0147769Y0177852D01*
X0147769Y0179451D02*
X0197381Y0179451D01*
X0198259Y0181049D02*
X0147769Y0181049D01*
X0143569Y0181049D02*
X0052799Y0181049D01*
X0053383Y0182648D02*
X0048603Y0182648D01*
X0047926Y0182648D02*
X0046326Y0182648D01*
X0046326Y0181049D02*
X0047926Y0181049D01*
X0047926Y0179451D02*
X0046326Y0179451D01*
X0046326Y0177852D02*
X0047926Y0177852D01*
X0047926Y0176253D02*
X0046326Y0176253D01*
X0054691Y0179451D02*
X0143569Y0179451D01*
X0143569Y0177852D02*
X0055895Y0177852D01*
X0056707Y0176253D02*
X0143569Y0176253D01*
X0143569Y0174655D02*
X0057187Y0174655D01*
X0064491Y0182648D02*
X0143569Y0182648D01*
X0143569Y0184246D02*
X0066090Y0184246D01*
X0067429Y0185845D02*
X0143569Y0185845D01*
X0143569Y0187443D02*
X0068091Y0187443D01*
X0068737Y0189042D02*
X0143569Y0189042D01*
X0143569Y0190640D02*
X0068737Y0190640D01*
X0068737Y0192239D02*
X0143569Y0192239D01*
X0143569Y0193837D02*
X0068350Y0193837D01*
X0067688Y0195436D02*
X0143569Y0195436D01*
X0143569Y0197034D02*
X0066715Y0197034D01*
X0065116Y0198633D02*
X0143569Y0198633D01*
X0143569Y0200231D02*
X0062146Y0200231D01*
X0055124Y0201830D02*
X0143569Y0201830D01*
X0143569Y0203428D02*
X0053526Y0203428D01*
X0036811Y0216216D02*
X0143569Y0216216D01*
X0143569Y0214618D02*
X0035328Y0214618D01*
X0034097Y0213290D02*
X0034097Y0213290D01*
X0033627Y0213019D02*
X0143569Y0213019D01*
X0143569Y0211421D02*
X0030858Y0211421D01*
X0029760Y0210787D02*
X0029760Y0210787D01*
X0019884Y0210046D02*
X0019884Y0210046D01*
X0037914Y0217815D02*
X0143569Y0217815D01*
X0143569Y0219413D02*
X0038684Y0219413D01*
X0039453Y0221012D02*
X0143569Y0221012D01*
X0140369Y0222610D02*
X0129665Y0222610D01*
X0128986Y0221932D02*
X0130477Y0223423D01*
X0131284Y0225371D01*
X0131284Y0227479D01*
X0130477Y0229427D01*
X0128986Y0230918D01*
X0127038Y0231725D01*
X0124930Y0231725D01*
X0122982Y0230918D01*
X0121491Y0229427D01*
X0120684Y0227479D01*
X0120684Y0225371D01*
X0121491Y0223423D01*
X0122982Y0221932D01*
X0124930Y0221125D01*
X0127038Y0221125D01*
X0128986Y0221932D01*
X0130803Y0224209D02*
X0140369Y0224209D01*
X0140369Y0225807D02*
X0131284Y0225807D01*
X0131284Y0227406D02*
X0140369Y0227406D01*
X0140369Y0229004D02*
X0130653Y0229004D01*
X0129302Y0230603D02*
X0140369Y0230603D01*
X0122667Y0230603D02*
X0039792Y0230603D01*
X0039676Y0231377D02*
X0039676Y0231377D01*
X0039279Y0232201D02*
X0342665Y0232201D01*
X0343131Y0233714D02*
X0343131Y0233714D01*
X0343190Y0233800D02*
X0038509Y0233800D01*
X0037739Y0235398D02*
X0344280Y0235398D01*
X0345369Y0236997D02*
X0036475Y0236997D01*
X0037503Y0235889D02*
X0037503Y0235889D01*
X0034992Y0238595D02*
X0346885Y0238595D01*
X0345952Y0237852D02*
X0345952Y0237852D01*
X0345952Y0237852D01*
X0348889Y0240194D02*
X0032999Y0240194D01*
X0030230Y0241792D02*
X0351952Y0241792D01*
X0349868Y0240974D02*
X0349868Y0240974D01*
X0354529Y0242804D02*
X0354529Y0242804D01*
X0359523Y0243178D02*
X0359523Y0243178D01*
X0342172Y0230603D02*
X0194276Y0230603D01*
X0194276Y0230964D02*
X0193515Y0231725D01*
X0184438Y0231725D01*
X0183676Y0230964D01*
X0183676Y0221887D01*
X0184438Y0221125D01*
X0193515Y0221125D01*
X0194276Y0221887D01*
X0194276Y0230964D01*
X0194276Y0229004D02*
X0341679Y0229004D01*
X0341655Y0227406D02*
X0194276Y0227406D01*
X0194276Y0225807D02*
X0341655Y0225807D01*
X0341655Y0224209D02*
X0194276Y0224209D01*
X0194276Y0222610D02*
X0342060Y0222610D01*
X0291084Y0192239D02*
X0284216Y0192239D01*
X0283553Y0193837D02*
X0289486Y0193837D01*
X0287887Y0195436D02*
X0281920Y0195436D01*
X0296379Y0177852D02*
X0371916Y0177852D01*
X0371916Y0176253D02*
X0296379Y0176253D01*
X0295738Y0174655D02*
X0371916Y0174655D01*
X0371916Y0173056D02*
X0356412Y0173056D01*
X0355534Y0173420D02*
X0353127Y0173420D01*
X0350904Y0172499D01*
X0349202Y0170797D01*
X0348281Y0168573D01*
X0348281Y0166167D01*
X0349202Y0163943D01*
X0350904Y0162241D01*
X0353127Y0161320D01*
X0355534Y0161320D01*
X0357758Y0162241D01*
X0359460Y0163943D01*
X0360381Y0166167D01*
X0360381Y0168573D01*
X0359460Y0170797D01*
X0357758Y0172499D01*
X0355534Y0173420D01*
X0352249Y0173056D02*
X0294035Y0173056D01*
X0294035Y0171458D02*
X0349863Y0171458D01*
X0348813Y0169859D02*
X0294035Y0169859D01*
X0294035Y0168261D02*
X0348281Y0168261D01*
X0348281Y0166662D02*
X0294035Y0166662D01*
X0294035Y0165064D02*
X0348737Y0165064D01*
X0349679Y0163465D02*
X0294035Y0163465D01*
X0294035Y0161867D02*
X0351807Y0161867D01*
X0356854Y0161867D02*
X0371916Y0161867D01*
X0371916Y0163465D02*
X0358982Y0163465D01*
X0359924Y0165064D02*
X0371916Y0165064D01*
X0371916Y0166662D02*
X0360381Y0166662D01*
X0360381Y0168261D02*
X0371916Y0168261D01*
X0371916Y0169859D02*
X0359848Y0169859D01*
X0358799Y0171458D02*
X0371916Y0171458D01*
X0371916Y0160268D02*
X0294035Y0160268D01*
X0293648Y0158670D02*
X0371916Y0158670D01*
X0350365Y0152276D02*
X0287254Y0152276D01*
X0285655Y0150677D02*
X0349022Y0150677D01*
X0331629Y0141086D02*
X0371916Y0141086D01*
X0371916Y0139488D02*
X0330184Y0139488D01*
X0371916Y0137889D02*
X0201835Y0137889D01*
X0203434Y0139488D02*
X0268241Y0139488D01*
X0266796Y0141086D02*
X0205032Y0141086D01*
X0277713Y0105919D02*
X0293478Y0105919D01*
X0286692Y0104320D02*
X0280237Y0104320D01*
X0280237Y0102722D02*
X0286692Y0102722D01*
X0286692Y0101123D02*
X0280237Y0101123D01*
X0280237Y0099525D02*
X0286692Y0099525D01*
X0286692Y0097926D02*
X0280237Y0097926D01*
X0280009Y0096328D02*
X0286920Y0096328D01*
X0183676Y0222610D02*
X0172972Y0222610D01*
X0174110Y0224209D02*
X0183676Y0224209D01*
X0183676Y0225807D02*
X0174591Y0225807D01*
X0174591Y0227406D02*
X0183676Y0227406D01*
X0183676Y0229004D02*
X0173960Y0229004D01*
X0172609Y0230603D02*
X0183676Y0230603D01*
X0122304Y0222610D02*
X0039847Y0222610D01*
X0040088Y0224209D02*
X0121166Y0224209D01*
X0120684Y0225807D02*
X0040329Y0225807D01*
X0040274Y0227406D02*
X0120684Y0227406D01*
X0121316Y0229004D02*
X0040033Y0229004D01*
X0025631Y0187443D02*
X0009974Y0187443D01*
X0009974Y0185845D02*
X0026360Y0185845D01*
X0005774Y0169859D02*
X0005737Y0169859D01*
X0005737Y0168261D02*
X0005774Y0168261D01*
X0005737Y0166662D02*
X0005774Y0166662D01*
X0005737Y0165064D02*
X0005774Y0165064D01*
X0005737Y0163465D02*
X0005774Y0163465D01*
X0005737Y0161867D02*
X0005774Y0161867D01*
X0005737Y0160268D02*
X0005774Y0160268D01*
X0005737Y0158670D02*
X0005774Y0158670D01*
X0005737Y0157071D02*
X0005774Y0157071D01*
X0005737Y0155473D02*
X0005774Y0155473D01*
X0005737Y0153874D02*
X0005774Y0153874D01*
X0005737Y0152276D02*
X0005774Y0152276D01*
X0005737Y0150677D02*
X0005774Y0150677D01*
X0005737Y0149079D02*
X0005774Y0149079D01*
X0005737Y0147480D02*
X0005774Y0147480D01*
X0005737Y0145882D02*
X0005774Y0145882D01*
X0005737Y0144283D02*
X0005774Y0144283D01*
X0005737Y0142685D02*
X0005774Y0142685D01*
X0005737Y0141086D02*
X0005774Y0141086D01*
X0005737Y0139488D02*
X0005774Y0139488D01*
X0005737Y0137889D02*
X0005774Y0137889D01*
X0005737Y0136291D02*
X0005774Y0136291D01*
X0005737Y0134692D02*
X0005774Y0134692D01*
X0005737Y0133094D02*
X0005774Y0133094D01*
X0005737Y0131495D02*
X0005774Y0131495D01*
X0005737Y0129897D02*
X0005774Y0129897D01*
X0005737Y0128298D02*
X0005774Y0128298D01*
X0005737Y0126700D02*
X0005774Y0126700D01*
X0005737Y0125101D02*
X0005774Y0125101D01*
X0005737Y0123503D02*
X0005774Y0123503D01*
X0005737Y0121904D02*
X0005774Y0121904D01*
X0005737Y0120306D02*
X0005774Y0120306D01*
X0005737Y0118707D02*
X0005774Y0118707D01*
X0005737Y0117109D02*
X0005774Y0117109D01*
X0005737Y0115510D02*
X0005774Y0115510D01*
X0005737Y0113912D02*
X0005774Y0113912D01*
X0005737Y0112313D02*
X0005774Y0112313D01*
X0005737Y0110715D02*
X0006442Y0110715D01*
X0005737Y0109116D02*
X0008040Y0109116D01*
X0009639Y0107517D02*
X0005737Y0107517D01*
X0005737Y0105919D02*
X0011237Y0105919D01*
X0012836Y0104320D02*
X0005737Y0104320D01*
X0005737Y0102722D02*
X0014434Y0102722D01*
X0015578Y0107517D02*
X0025387Y0107517D01*
X0023788Y0109116D02*
X0013980Y0109116D01*
X0012381Y0110715D02*
X0022190Y0110715D01*
X0021522Y0112313D02*
X0010783Y0112313D01*
X0009974Y0113912D02*
X0021522Y0113912D01*
X0021522Y0115510D02*
X0009974Y0115510D01*
X0009974Y0117109D02*
X0021522Y0117109D01*
X0021522Y0118707D02*
X0009974Y0118707D01*
X0009974Y0120306D02*
X0021522Y0120306D01*
X0021522Y0121904D02*
X0009974Y0121904D01*
X0009974Y0123503D02*
X0021522Y0123503D01*
X0021522Y0125101D02*
X0009974Y0125101D01*
X0009974Y0126700D02*
X0021522Y0126700D01*
X0021522Y0128298D02*
X0009974Y0128298D01*
X0009974Y0129897D02*
X0021522Y0129897D01*
X0021522Y0131495D02*
X0009974Y0131495D01*
X0009974Y0133094D02*
X0021522Y0133094D01*
X0021522Y0134692D02*
X0009974Y0134692D01*
X0009974Y0136291D02*
X0021522Y0136291D01*
X0021522Y0137889D02*
X0009974Y0137889D01*
X0009974Y0139488D02*
X0021522Y0139488D01*
X0021522Y0141086D02*
X0009974Y0141086D01*
X0009974Y0142685D02*
X0021522Y0142685D01*
X0021522Y0144283D02*
X0009974Y0144283D01*
X0009974Y0145882D02*
X0021522Y0145882D01*
X0021522Y0147480D02*
X0009974Y0147480D01*
X0009974Y0149079D02*
X0021522Y0149079D01*
X0021522Y0150677D02*
X0009974Y0150677D01*
X0009974Y0152276D02*
X0021522Y0152276D01*
X0021522Y0153874D02*
X0009974Y0153874D01*
X0009974Y0155473D02*
X0021522Y0155473D01*
X0021522Y0157071D02*
X0009974Y0157071D01*
X0009974Y0158670D02*
X0021522Y0158670D01*
X0021522Y0160268D02*
X0009974Y0160268D01*
X0009974Y0161867D02*
X0023023Y0161867D01*
X0024622Y0163465D02*
X0009974Y0163465D01*
X0023622Y0159496D02*
X0025591Y0161465D01*
X0037402Y0161465D01*
D25*
X0275213Y0143770D02*
X0291535Y0160093D01*
X0291535Y0179181D01*
X0295079Y0182724D01*
X0299213Y0182724D01*
X0295472Y0191386D02*
X0287402Y0199457D01*
X0287402Y0206740D01*
X0275213Y0190970D02*
X0275213Y0179362D01*
X0275394Y0179181D01*
X0287402Y0128000D02*
X0287402Y0120717D01*
X0295472Y0112646D01*
X0295079Y0103984D02*
X0299213Y0103984D01*
X0295079Y0103984D02*
X0291535Y0100441D01*
X0291535Y0081353D01*
X0275213Y0065030D01*
X0275394Y0100441D02*
X0275213Y0100622D01*
X0275213Y0112230D01*
D26*
X0362205Y0206740D03*
X0129921Y0068945D03*
X0058071Y0108315D03*
X0047244Y0124063D03*
X0098425Y0124063D03*
X0114173Y0143748D03*
X0037402Y0161465D03*
D27*
X0287402Y0128000D03*
X0287402Y0206740D03*
M02*
